<svg width="546" height="122" viewBox="0 0 546 122" fill="none" xmlns="http://www.w3.org/2000/svg">
<path d="M24.244 104C19.5267 104 15.8533 102.763 13.224 100.288C10.5947 97.736 9.28 94.256 9.28 89.848V36.72C9.28 32.3893 10.556 28.9867 13.108 26.512C15.7373 24.0373 19.372 22.8 24.012 22.8H40.252C48.2947 22.8 55.2933 24.5013 61.248 27.904C67.28 31.2293 71.92 35.9467 75.168 42.056C78.416 48.1653 80.04 55.3187 80.04 63.516C80.04 71.7133 78.416 78.8667 75.168 84.976C71.92 91.008 67.28 95.6867 61.248 99.012C55.2933 102.337 48.2947 104 40.252 104H24.244ZM39.092 96.808C49.3 96.808 57.188 93.908 62.756 88.108C68.4013 82.308 71.224 74.1107 71.224 63.516C71.224 52.9213 68.4013 44.6853 62.756 38.808C57.1107 32.9307 49.2227 29.992 39.092 29.992H24.128C22.272 29.992 20.764 30.6107 19.604 31.848C18.5213 33.0853 17.98 34.7093 17.98 36.72V90.08C17.98 92.0907 18.5213 93.7147 19.604 94.952C20.764 96.1893 22.272 96.808 24.128 96.808H39.092ZM99.5389 105.16C98.2242 105.16 97.1802 104.773 96.4069 104C95.6335 103.149 95.2469 101.989 95.2469 100.52V55.164C95.2469 44.6467 98.1855 36.4493 104.063 30.572C110.018 24.6173 118.254 21.64 128.771 21.64C139.211 21.64 147.408 24.6173 153.363 30.572C159.318 36.5267 162.295 44.724 162.295 55.164V100.52C162.295 101.989 161.908 103.149 161.135 104C160.362 104.773 159.279 105.16 157.887 105.16C156.572 105.16 155.49 104.773 154.639 104C153.866 103.149 153.479 101.989 153.479 100.52V74.42H103.947V100.52C103.947 101.989 103.56 103.149 102.787 104C102.014 104.773 100.931 105.16 99.5389 105.16ZM153.479 67.228V54.816C153.479 46.5413 151.352 40.2 147.099 35.792C142.846 31.3067 136.736 29.064 128.771 29.064C120.728 29.064 114.58 31.268 110.327 35.676C106.074 40.084 103.947 46.464 103.947 54.816V67.228H153.479ZM205.082 105.16C203.69 105.16 202.607 104.773 201.834 104C201.138 103.149 200.79 101.989 200.79 100.52V29.992H174.226C172.834 29.992 171.712 29.7213 170.862 29.18C170.088 28.5613 169.702 27.672 169.702 26.512C169.702 24.0373 171.21 22.8 174.226 22.8H236.17C239.186 22.8 240.694 24.0373 240.694 26.512C240.694 27.5947 240.307 28.4453 239.534 29.064C238.76 29.6827 237.639 29.992 236.17 29.992H209.606V100.52C209.606 101.989 209.18 103.149 208.33 104C207.556 104.773 206.474 105.16 205.082 105.16ZM253.372 105.16C252.057 105.16 251.013 104.773 250.24 104C249.467 103.149 249.08 101.989 249.08 100.52V53.192C249.08 46.7733 250.433 41.2053 253.14 36.488C255.924 31.6933 259.868 28.02 264.972 25.468C270.076 22.916 276.069 21.64 282.952 21.64C289.835 21.64 295.789 22.916 300.816 25.468C305.92 28.02 309.825 31.6933 312.532 36.488C315.316 41.2053 316.708 46.7733 316.708 53.192V100.52C316.708 101.989 316.321 103.149 315.548 104C314.852 104.773 313.808 105.16 312.416 105.16C311.101 105.16 310.019 104.773 309.168 104C308.395 103.149 308.008 101.989 308.008 100.52V52.844C308.008 45.3427 305.804 39.504 301.396 35.328C296.988 31.152 290.84 29.064 282.952 29.064C275.219 29.064 269.071 31.1907 264.508 35.444C260.023 39.6973 257.78 45.4973 257.78 52.844V100.52C257.78 101.989 257.393 103.149 256.62 104C255.847 104.773 254.764 105.16 253.372 105.16ZM369.958 105.16C362.148 105.16 355.11 103.459 348.846 100.056C342.582 96.576 337.633 91.6653 333.998 85.324C330.441 78.9827 328.662 71.6747 328.662 63.4C328.662 55.048 330.441 47.74 333.998 41.476C337.633 35.1347 342.582 30.2627 348.846 26.86C355.11 23.38 362.148 21.64 369.958 21.64C377.769 21.64 384.806 23.38 391.07 26.86C397.334 30.2627 402.245 35.1347 405.802 41.476C409.437 47.74 411.254 55.048 411.254 63.4C411.254 71.6747 409.437 78.9827 405.802 85.324C402.245 91.6653 397.334 96.576 391.07 100.056C384.806 103.459 377.769 105.16 369.958 105.16ZM369.958 97.736C376.222 97.736 381.79 96.3827 386.662 93.676C391.612 90.9693 395.478 87.064 398.262 81.96C401.124 76.7787 402.554 70.592 402.554 63.4C402.554 56.1307 401.085 49.9053 398.146 44.724C395.285 39.5427 391.341 35.6373 386.314 33.008C381.365 30.3787 375.836 29.064 369.726 29.064C363.54 29.064 357.972 30.4173 353.022 33.124C348.15 35.8307 344.322 39.7747 341.538 44.956C338.754 50.1373 337.362 56.2853 337.362 63.4C337.362 70.592 338.754 76.7787 341.538 81.96C344.4 87.064 348.266 90.9693 353.138 93.676C358.088 96.3827 363.694 97.736 369.958 97.736ZM434.723 105.16C433.408 105.16 432.364 104.773 431.591 104C430.817 103.149 430.431 101.989 430.431 100.52V26.28C430.431 24.8107 430.817 23.6893 431.591 22.916C432.364 22.0653 433.408 21.64 434.723 21.64C436.115 21.64 437.197 22.0653 437.971 22.916C438.744 23.7667 439.131 24.888 439.131 26.28V100.52C439.131 101.912 438.744 103.033 437.971 103.884C437.197 104.735 436.115 105.16 434.723 105.16ZM476.236 104C471.519 104 467.846 102.763 465.216 100.288C462.587 97.736 461.272 94.256 461.272 89.848V36.72C461.272 32.3893 462.548 28.9867 465.1 26.512C467.73 24.0373 471.364 22.8 476.004 22.8H492.244C500.287 22.8 507.286 24.5013 513.24 27.904C519.272 31.2293 523.912 35.9467 527.16 42.056C530.408 48.1653 532.032 55.3187 532.032 63.516C532.032 71.7133 530.408 78.8667 527.16 84.976C523.912 91.008 519.272 95.6867 513.24 99.012C507.286 102.337 500.287 104 492.244 104H476.236ZM491.084 96.808C501.292 96.808 509.18 93.908 514.748 88.108C520.394 82.308 523.216 74.1107 523.216 63.516C523.216 52.9213 520.394 44.6853 514.748 38.808C509.103 32.9307 501.215 29.992 491.084 29.992H476.12C474.264 29.992 472.756 30.6107 471.596 31.848C470.514 33.0853 469.972 34.7093 469.972 36.72V90.08C469.972 92.0907 470.514 93.7147 471.596 94.952C472.756 96.1893 474.264 96.808 476.12 96.808H491.084Z" fill="white"/>
</svg>
