<svg width="705" height="85" viewBox="0 0 705 85" fill="none" xmlns="http://www.w3.org/2000/svg">
<path d="M4.992 84.16C3.67733 84.16 2.63333 83.7733 1.86 83C1.08667 82.1493 0.7 80.9893 0.7 79.52V27.088C0.7 18.8907 3.02 12.4333 7.66 7.71599C12.3 2.99866 18.68 0.639996 26.8 0.639996C31.5173 0.639996 35.848 1.87733 39.792 4.352C43.8133 6.74933 46.8293 9.95866 48.84 13.98C50.8507 9.88133 53.7893 6.63333 57.656 4.236C61.6 1.83866 66.008 0.639996 70.88 0.639996C79 0.639996 85.38 2.99866 90.02 7.71599C94.66 12.356 96.98 18.8133 96.98 27.088V79.52C96.98 80.9893 96.5547 82.1493 95.704 83C94.9307 83.7733 93.8867 84.16 92.572 84.16C91.18 84.16 90.0973 83.7733 89.324 83C88.628 82.1493 88.28 80.9893 88.28 79.52V27.088C88.28 20.9787 86.888 16.3 84.104 13.052C81.3973 9.804 76.912 8.18 70.648 8.18C65.1573 8.18 60.8653 9.88133 57.772 13.284C54.6787 16.6093 53.132 21.2107 53.132 27.088V79.52C53.132 80.9893 52.7453 82.1493 51.972 83C51.1987 83.7733 50.1547 84.16 48.84 84.16C47.5253 84.16 46.4813 83.7733 45.708 83C45.012 82.1493 44.664 80.9893 44.664 79.52V27.088C44.664 21.3653 43.04 16.8027 39.792 13.4C36.544 9.92 32.2907 8.18 27.032 8.18C20.768 8.18 16.244 9.804 13.46 13.052C10.7533 16.3 9.4 20.9787 9.4 27.088V79.52C9.4 80.9893 9.01333 82.1493 8.24 83C7.46667 83.7733 6.384 84.16 4.992 84.16ZM150.349 84.16C142.538 84.16 135.501 82.4587 129.237 79.056C122.973 75.576 118.024 70.6653 114.389 64.324C110.832 57.9827 109.053 50.6747 109.053 42.4C109.053 34.048 110.832 26.74 114.389 20.476C118.024 14.1347 122.973 9.26266 129.237 5.86C135.501 2.38 142.538 0.639996 150.349 0.639996C158.16 0.639996 165.197 2.38 171.461 5.86C177.725 9.26266 182.636 14.1347 186.193 20.476C189.828 26.74 191.645 34.048 191.645 42.4C191.645 50.6747 189.828 57.9827 186.193 64.324C182.636 70.6653 177.725 75.576 171.461 79.056C165.197 82.4587 158.16 84.16 150.349 84.16ZM150.349 76.736C156.613 76.736 162.181 75.3827 167.053 72.676C172.002 69.9693 175.869 66.064 178.653 60.96C181.514 55.7787 182.945 49.592 182.945 42.4C182.945 35.1307 181.476 28.9053 178.537 23.724C175.676 18.5427 171.732 14.6373 166.705 12.008C161.756 9.37866 156.226 8.064 150.117 8.064C143.93 8.064 138.362 9.41733 133.413 12.124C128.541 14.8307 124.713 18.7747 121.929 23.956C119.145 29.1373 117.753 35.2853 117.753 42.4C117.753 49.592 119.145 55.7787 121.929 60.96C124.79 66.064 128.657 69.9693 133.529 72.676C138.478 75.3827 144.085 76.736 150.349 76.736ZM245.505 84.16C237.695 84.16 230.657 82.4587 224.393 79.056C218.129 75.576 213.18 70.6653 209.545 64.324C205.988 57.9827 204.209 50.6747 204.209 42.4C204.209 34.048 205.988 26.74 209.545 20.476C213.18 14.1347 218.129 9.26266 224.393 5.86C230.657 2.38 237.695 0.639996 245.505 0.639996C253.316 0.639996 260.353 2.38 266.617 5.86C272.881 9.26266 277.792 14.1347 281.349 20.476C284.984 26.74 286.801 34.048 286.801 42.4C286.801 50.6747 284.984 57.9827 281.349 64.324C277.792 70.6653 272.881 75.576 266.617 79.056C260.353 82.4587 253.316 84.16 245.505 84.16ZM245.505 76.736C251.769 76.736 257.337 75.3827 262.209 72.676C267.159 69.9693 271.025 66.064 273.809 60.96C276.671 55.7787 278.101 49.592 278.101 42.4C278.101 35.1307 276.632 28.9053 273.693 23.724C270.832 18.5427 266.888 14.6373 261.861 12.008C256.912 9.37866 251.383 8.064 245.273 8.064C239.087 8.064 233.519 9.41733 228.569 12.124C223.697 14.8307 219.869 18.7747 217.085 23.956C214.301 29.1373 212.909 35.2853 212.909 42.4C212.909 49.592 214.301 55.7787 217.085 60.96C219.947 66.064 223.813 69.9693 228.685 72.676C233.635 75.3827 239.241 76.736 245.505 76.736ZM303.032 84.16C301.718 84.16 300.674 83.7733 299.9 83C299.127 82.1493 298.74 80.9893 298.74 79.52V32.192C298.74 25.7733 300.094 20.2053 302.8 15.488C305.584 10.6933 309.528 7.01999 314.632 4.46799C319.736 1.916 325.73 0.639996 332.612 0.639996C339.495 0.639996 345.45 1.916 350.476 4.46799C355.58 7.01999 359.486 10.6933 362.192 15.488C364.976 20.2053 366.368 25.7733 366.368 32.192V79.52C366.368 80.9893 365.982 82.1493 365.208 83C364.512 83.7733 363.468 84.16 362.076 84.16C360.762 84.16 359.679 83.7733 358.828 83C358.055 82.1493 357.668 80.9893 357.668 79.52V31.844C357.668 24.3427 355.464 18.504 351.056 14.328C346.648 10.152 340.5 8.064 332.612 8.064C324.879 8.064 318.731 10.1907 314.168 14.444C309.683 18.6973 307.44 24.4973 307.44 31.844V79.52C307.44 80.9893 307.054 82.1493 306.28 83C305.507 83.7733 304.424 84.16 303.032 84.16ZM417.344 84.16C409.92 84.16 403.076 82.9227 396.812 80.448C390.625 77.896 385.792 74.416 382.312 70.008C381.693 69.2347 381.384 68.4227 381.384 67.572C381.384 66.4893 381.964 65.4453 383.124 64.44C383.743 63.976 384.4 63.744 385.096 63.744C386.488 63.744 387.725 64.4013 388.808 65.716C391.979 69.196 395.961 71.9027 400.756 73.836C405.628 75.692 411.157 76.62 417.344 76.62C424.149 76.62 429.408 75.3827 433.12 72.908C436.832 70.356 438.688 66.76 438.688 62.12C438.688 58.0987 436.871 54.8507 433.236 52.376C429.679 49.9013 423.608 47.6973 415.024 45.764C403.811 43.2893 395.729 40.196 390.78 36.484C385.908 32.6947 383.472 27.7067 383.472 21.52C383.472 15.1013 386.179 10.036 391.592 6.324C397.083 2.53466 404.468 0.639996 413.748 0.639996C420.785 0.639996 427.127 1.87733 432.772 4.352C438.495 6.82666 442.555 10.152 444.952 14.328C445.416 15.1013 445.648 15.836 445.648 16.532C445.648 17.7693 444.991 18.852 443.676 19.78C443.135 20.0893 442.516 20.244 441.82 20.244C440.119 20.244 438.804 19.5867 437.876 18.272C435.633 15.024 432.463 12.5493 428.364 10.848C424.265 9.06933 419.393 8.18 413.748 8.18C399.441 8.18 392.288 12.6267 392.288 21.52C392.288 24.2267 393.023 26.508 394.492 28.364C395.961 30.1427 398.32 31.7667 401.568 33.236C404.893 34.628 409.495 36.02 415.372 37.412C426.817 40.1187 435.053 43.4053 440.08 47.272C445.107 51.0613 447.62 56.0107 447.62 62.12C447.62 68.9253 444.875 74.3 439.384 78.244C433.971 82.188 426.624 84.16 417.344 84.16ZM467.417 84.16C466.102 84.16 465.058 83.7733 464.285 83C463.512 82.1493 463.125 80.9893 463.125 79.52V5.28C463.125 3.81067 463.512 2.68933 464.285 1.91599C465.058 1.06533 466.102 0.639996 467.417 0.639996C468.809 0.639996 469.892 1.06533 470.665 1.91599C471.438 2.68933 471.825 3.81067 471.825 5.28V37.644H522.749V5.28C522.749 3.81067 523.136 2.68933 523.909 1.91599C524.682 1.06533 525.765 0.639996 527.157 0.639996C528.472 0.639996 529.516 1.06533 530.289 1.91599C531.062 2.68933 531.449 3.81067 531.449 5.28V79.52C531.449 80.9893 531.062 82.1493 530.289 83C529.516 83.7733 528.472 84.16 527.157 84.16C525.842 84.16 524.76 83.7733 523.909 83C523.136 82.1493 522.749 80.9893 522.749 79.52V44.952H471.825V79.52C471.825 80.9893 471.438 82.1493 470.665 83C469.892 83.7733 468.809 84.16 467.417 84.16ZM588.181 84.16C580.37 84.16 573.333 82.4587 567.069 79.056C560.805 75.576 555.856 70.6653 552.221 64.324C548.664 57.9827 546.885 50.6747 546.885 42.4C546.885 34.048 548.664 26.74 552.221 20.476C555.856 14.1347 560.805 9.26266 567.069 5.86C573.333 2.38 580.37 0.639996 588.181 0.639996C595.992 0.639996 603.029 2.38 609.293 5.86C615.557 9.26266 620.468 14.1347 624.025 20.476C627.66 26.74 629.477 34.048 629.477 42.4C629.477 50.6747 627.66 57.9827 624.025 64.324C620.468 70.6653 615.557 75.576 609.293 79.056C603.029 82.4587 595.992 84.16 588.181 84.16ZM588.181 76.736C594.445 76.736 600.013 75.3827 604.885 72.676C609.834 69.9693 613.701 66.064 616.485 60.96C619.346 55.7787 620.777 49.592 620.777 42.4C620.777 35.1307 619.308 28.9053 616.369 23.724C613.508 18.5427 609.564 14.6373 604.537 12.008C599.588 9.37866 594.058 8.064 587.949 8.064C581.762 8.064 576.194 9.41733 571.245 12.124C566.373 14.8307 562.545 18.7747 559.761 23.956C556.977 29.1373 555.585 35.2853 555.585 42.4C555.585 49.592 556.977 55.7787 559.761 60.96C562.622 66.064 566.489 69.9693 571.361 72.676C576.31 75.3827 581.917 76.736 588.181 76.736ZM668.672 84.16C667.28 84.16 666.197 83.7733 665.424 83C664.728 82.1493 664.38 80.9893 664.38 79.52V8.992H637.816C636.424 8.992 635.302 8.72133 634.452 8.18C633.678 7.56133 633.292 6.67199 633.292 5.512C633.292 3.03733 634.8 1.79999 637.816 1.79999H699.76C702.776 1.79999 704.284 3.03733 704.284 5.512C704.284 6.59466 703.897 7.44533 703.124 8.064C702.35 8.68266 701.229 8.992 699.76 8.992H673.196V79.52C673.196 80.9893 672.77 82.1493 671.92 83C671.146 83.7733 670.064 84.16 668.672 84.16Z" fill="white"/>
</svg>
