<svg width="23" height="24" viewBox="0 0 23 24" fill="none" xmlns="http://www.w3.org/2000/svg">
<path d="M1.42687 7.61636C1.42687 7.3709 1.1154 7.29454 1.01401 7.51807C0.362688 8.95404 0 10.5488 0 12.2282C0 13.9076 0.362688 15.5024 1.01401 16.9383C1.1154 17.1619 1.42687 17.0855 1.42687 16.8401V7.61636Z" fill="#873EFF"/>
<path d="M3.80498 20.4173C3.80498 20.5407 3.65971 20.6052 3.57012 20.5204C3.21827 20.1874 2.8876 19.8323 2.58035 19.4572C2.44692 19.2943 2.37811 19.0889 2.37811 18.8783V5.5781C2.37811 5.36755 2.44692 5.16208 2.58035 4.9992C2.8876 4.62415 3.21827 4.26901 3.57012 3.93603C3.65971 3.85124 3.80498 3.91572 3.80498 4.03907V20.4173Z" fill="#873EFF"/>
<path d="M6.18309 21.9857C6.18309 22.1639 5.99465 22.2782 5.83927 22.1911C5.57145 22.0409 5.31031 21.8802 5.05639 21.7096C4.86585 21.5816 4.75622 21.3648 4.75622 21.1352V3.32119C4.75622 3.09163 4.86585 2.87485 5.05639 2.74682C5.31031 2.5762 5.57145 2.41552 5.83927 2.26531C5.99465 2.17817 6.18309 2.29252 6.18309 2.47068V21.9857Z" fill="#873EFF"/>
<path d="M8.5612 22.9768C8.5612 23.1321 8.41457 23.2458 8.26518 23.203C7.93139 23.1074 7.60385 22.997 7.28333 22.8725C7.19302 22.8374 7.13433 22.75 7.13433 22.6531V1.8033C7.13433 1.70642 7.19302 1.619 7.28333 1.58392C7.60385 1.45942 7.93139 1.34898 8.26518 1.25337C8.41457 1.21057 8.5612 1.32427 8.5612 1.47966V22.9768Z" fill="#873EFF"/>
<path d="M10.9393 23.3857C10.9393 23.5208 10.8268 23.629 10.6919 23.6206C10.361 23.5999 10.0339 23.5651 9.71118 23.5168C9.59631 23.4997 9.51244 23.4002 9.51244 23.2841V1.17234C9.51244 1.05619 9.59631 0.956758 9.71118 0.939566C10.0339 0.891272 10.361 0.856487 10.6919 0.8358C10.8268 0.827367 10.9393 0.935597 10.9393 1.07076V23.3857Z" fill="#873EFF"/>
<path d="M13.3174 23.2841C13.3174 23.4002 13.2336 23.4997 13.1187 23.5168C12.796 23.5651 12.4689 23.5999 12.138 23.6206C12.0031 23.629 11.8906 23.5208 11.8906 23.3857V1.07076C11.8906 0.935597 12.0031 0.827368 12.138 0.8358C12.4689 0.856487 12.796 0.891272 13.1187 0.939566C13.2336 0.956758 13.3174 1.05619 13.3174 1.17234V23.2841Z" fill="#873EFF"/>
<path d="M15.6955 22.6531C15.6955 22.75 15.6368 22.8374 15.5465 22.8725C15.226 22.997 14.8985 23.1074 14.5647 23.203C14.4153 23.2458 14.2687 23.1321 14.2687 22.9768V1.47966C14.2687 1.32427 14.4153 1.21057 14.5647 1.25337C14.8985 1.34899 15.226 1.45943 15.5465 1.58394C15.6368 1.61902 15.6955 1.70643 15.6955 1.80332V22.6531Z" fill="#873EFF"/>
<path d="M18.0736 21.1352C18.0736 21.3648 17.964 21.5815 17.7735 21.7096C17.5196 21.8802 17.2584 22.0409 16.9906 22.1911C16.8352 22.2782 16.6468 22.1639 16.6468 21.9857V2.47068C16.6468 2.29252 16.8352 2.17817 16.9906 2.26532C17.2584 2.41552 17.5196 2.57621 17.7735 2.74684C17.964 2.87487 18.0736 3.09165 18.0736 3.32121V21.1352Z" fill="#873EFF"/>
<path d="M20.4518 18.8783C20.4518 19.0889 20.3829 19.2943 20.2495 19.4572C19.9423 19.8323 19.6116 20.1874 19.2597 20.5204C19.1702 20.6052 19.0249 20.5407 19.0249 20.4173V4.03907C19.0249 3.91572 19.1702 3.85124 19.2597 3.93603C19.6116 4.26901 19.9423 4.62415 20.2495 4.9992C20.3829 5.16207 20.4518 5.36755 20.4518 5.5781V18.8783Z" fill="#873EFF"/>
<path d="M22.8299 12.2282C22.8299 13.9076 22.4672 15.5024 21.8159 16.9383C21.7145 17.1619 21.403 17.0855 21.403 16.8401V7.61635C21.403 7.3709 21.7145 7.29453 21.8159 7.51807C22.4672 8.95404 22.8299 10.5488 22.8299 12.2282Z" fill="#873EFF"/>
<path d="M1.42687 7.61636C1.42687 7.3709 1.1154 7.29454 1.01401 7.51807C0.362688 8.95404 0 10.5488 0 12.2282C0 13.9076 0.362688 15.5024 1.01401 16.9383C1.1154 17.1619 1.42687 17.0855 1.42687 16.8401V7.61636Z" fill="url(#paint0_radial_175_2468)"/>
<path d="M3.80498 20.4173C3.80498 20.5407 3.65971 20.6052 3.57012 20.5204C3.21827 20.1874 2.8876 19.8323 2.58035 19.4572C2.44692 19.2943 2.37811 19.0889 2.37811 18.8783V5.5781C2.37811 5.36755 2.44692 5.16208 2.58035 4.9992C2.8876 4.62415 3.21827 4.26901 3.57012 3.93603C3.65971 3.85124 3.80498 3.91572 3.80498 4.03907V20.4173Z" fill="url(#paint1_radial_175_2468)"/>
<path d="M6.18309 21.9857C6.18309 22.1639 5.99465 22.2782 5.83927 22.1911C5.57145 22.0409 5.31031 21.8802 5.05639 21.7096C4.86585 21.5816 4.75622 21.3648 4.75622 21.1352V3.32119C4.75622 3.09163 4.86585 2.87485 5.05639 2.74682C5.31031 2.5762 5.57145 2.41552 5.83927 2.26531C5.99465 2.17817 6.18309 2.29252 6.18309 2.47068V21.9857Z" fill="url(#paint2_radial_175_2468)"/>
<path d="M8.5612 22.9768C8.5612 23.1321 8.41457 23.2458 8.26518 23.203C7.93139 23.1074 7.60385 22.997 7.28333 22.8725C7.19302 22.8374 7.13433 22.75 7.13433 22.6531V1.8033C7.13433 1.70642 7.19302 1.619 7.28333 1.58392C7.60385 1.45942 7.93139 1.34898 8.26518 1.25337C8.41457 1.21057 8.5612 1.32427 8.5612 1.47966V22.9768Z" fill="url(#paint3_radial_175_2468)"/>
<path d="M10.9393 23.3857C10.9393 23.5208 10.8268 23.629 10.6919 23.6206C10.361 23.5999 10.0339 23.5651 9.71118 23.5168C9.59631 23.4997 9.51244 23.4002 9.51244 23.2841V1.17234C9.51244 1.05619 9.59631 0.956758 9.71118 0.939566C10.0339 0.891272 10.361 0.856487 10.6919 0.8358C10.8268 0.827367 10.9393 0.935597 10.9393 1.07076V23.3857Z" fill="url(#paint4_radial_175_2468)"/>
<path d="M13.3174 23.2841C13.3174 23.4002 13.2336 23.4997 13.1187 23.5168C12.796 23.5651 12.4689 23.5999 12.138 23.6206C12.0031 23.629 11.8906 23.5208 11.8906 23.3857V1.07076C11.8906 0.935597 12.0031 0.827368 12.138 0.8358C12.4689 0.856487 12.796 0.891272 13.1187 0.939566C13.2336 0.956758 13.3174 1.05619 13.3174 1.17234V23.2841Z" fill="url(#paint5_radial_175_2468)"/>
<path d="M15.6955 22.6531C15.6955 22.75 15.6368 22.8374 15.5465 22.8725C15.226 22.997 14.8985 23.1074 14.5647 23.203C14.4153 23.2458 14.2687 23.1321 14.2687 22.9768V1.47966C14.2687 1.32427 14.4153 1.21057 14.5647 1.25337C14.8985 1.34899 15.226 1.45943 15.5465 1.58394C15.6368 1.61902 15.6955 1.70643 15.6955 1.80332V22.6531Z" fill="url(#paint6_radial_175_2468)"/>
<path d="M18.0736 21.1352C18.0736 21.3648 17.964 21.5815 17.7735 21.7096C17.5196 21.8802 17.2584 22.0409 16.9906 22.1911C16.8352 22.2782 16.6468 22.1639 16.6468 21.9857V2.47068C16.6468 2.29252 16.8352 2.17817 16.9906 2.26532C17.2584 2.41552 17.5196 2.57621 17.7735 2.74684C17.964 2.87487 18.0736 3.09165 18.0736 3.32121V21.1352Z" fill="url(#paint7_radial_175_2468)"/>
<path d="M20.4518 18.8783C20.4518 19.0889 20.3829 19.2943 20.2495 19.4572C19.9423 19.8323 19.6116 20.1874 19.2597 20.5204C19.1702 20.6052 19.0249 20.5407 19.0249 20.4173V4.03907C19.0249 3.91572 19.1702 3.85124 19.2597 3.93603C19.6116 4.26901 19.9423 4.62415 20.2495 4.9992C20.3829 5.16207 20.4518 5.36755 20.4518 5.5781V18.8783Z" fill="url(#paint8_radial_175_2468)"/>
<path d="M22.8299 12.2282C22.8299 13.9076 22.4672 15.5024 21.8159 16.9383C21.7145 17.1619 21.403 17.0855 21.403 16.8401V7.61635C21.403 7.3709 21.7145 7.29453 21.8159 7.51807C22.4672 8.95404 22.8299 10.5488 22.8299 12.2282Z" fill="url(#paint9_radial_175_2468)"/>
<mask id="mask0_175_2468" style="mask-type:alpha" maskUnits="userSpaceOnUse" x="0" y="0" width="23" height="24">
<path d="M1.42687 7.61636C1.42687 7.3709 1.1154 7.29454 1.01401 7.51807C0.362688 8.95404 0 10.5488 0 12.2282C0 13.9076 0.362688 15.5024 1.01401 16.9383C1.1154 17.1619 1.42687 17.0855 1.42687 16.8401V7.61636Z" fill="url(#paint10_radial_175_2468)"/>
<path d="M3.80498 20.4173C3.80498 20.5407 3.65971 20.6052 3.57012 20.5204C3.21827 20.1874 2.8876 19.8323 2.58035 19.4572C2.44692 19.2943 2.37811 19.0889 2.37811 18.8783V5.5781C2.37811 5.36755 2.44692 5.16208 2.58035 4.9992C2.8876 4.62415 3.21827 4.26901 3.57012 3.93603C3.65971 3.85124 3.80498 3.91572 3.80498 4.03907V20.4173Z" fill="url(#paint11_radial_175_2468)"/>
<path d="M6.18309 21.9857C6.18309 22.1639 5.99465 22.2782 5.83927 22.1911C5.57145 22.0409 5.31031 21.8802 5.05639 21.7096C4.86585 21.5816 4.75622 21.3648 4.75622 21.1352V3.32119C4.75622 3.09163 4.86585 2.87485 5.05639 2.74682C5.31031 2.5762 5.57145 2.41552 5.83927 2.26531C5.99465 2.17817 6.18309 2.29252 6.18309 2.47068V21.9857Z" fill="url(#paint12_radial_175_2468)"/>
<path d="M8.5612 22.9768C8.5612 23.1321 8.41457 23.2458 8.26518 23.203C7.93139 23.1074 7.60385 22.997 7.28333 22.8725C7.19302 22.8374 7.13433 22.75 7.13433 22.6531V1.8033C7.13433 1.70642 7.19302 1.619 7.28333 1.58392C7.60385 1.45942 7.93139 1.34898 8.26518 1.25337C8.41457 1.21057 8.5612 1.32427 8.5612 1.47966V22.9768Z" fill="url(#paint13_radial_175_2468)"/>
<path d="M10.9393 23.3857C10.9393 23.5208 10.8268 23.629 10.6919 23.6206C10.361 23.5999 10.0339 23.5651 9.71118 23.5168C9.59631 23.4997 9.51244 23.4002 9.51244 23.2841V1.17234C9.51244 1.05619 9.59631 0.956758 9.71118 0.939566C10.0339 0.891272 10.361 0.856487 10.6919 0.8358C10.8268 0.827367 10.9393 0.935597 10.9393 1.07076V23.3857Z" fill="url(#paint14_radial_175_2468)"/>
<path d="M13.3174 23.2841C13.3174 23.4002 13.2336 23.4997 13.1187 23.5168C12.796 23.5651 12.4689 23.5999 12.138 23.6206C12.0031 23.629 11.8906 23.5208 11.8906 23.3857V1.07076C11.8906 0.935597 12.0031 0.827368 12.138 0.8358C12.4689 0.856487 12.796 0.891272 13.1187 0.939566C13.2336 0.956758 13.3174 1.05619 13.3174 1.17234V23.2841Z" fill="url(#paint15_radial_175_2468)"/>
<path d="M15.6955 22.6531C15.6955 22.75 15.6368 22.8374 15.5465 22.8725C15.226 22.997 14.8985 23.1074 14.5647 23.203C14.4153 23.2458 14.2687 23.1321 14.2687 22.9768V1.47966C14.2687 1.32427 14.4153 1.21057 14.5647 1.25337C14.8985 1.34899 15.226 1.45943 15.5465 1.58394C15.6368 1.61902 15.6955 1.70643 15.6955 1.80332V22.6531Z" fill="url(#paint16_radial_175_2468)"/>
<path d="M18.0736 21.1352C18.0736 21.3648 17.964 21.5815 17.7735 21.7096C17.5196 21.8802 17.2584 22.0409 16.9906 22.1911C16.8352 22.2782 16.6468 22.1639 16.6468 21.9857V2.47068C16.6468 2.29252 16.8352 2.17817 16.9906 2.26532C17.2584 2.41552 17.5196 2.57621 17.7735 2.74684C17.964 2.87487 18.0736 3.09165 18.0736 3.32121V21.1352Z" fill="url(#paint17_radial_175_2468)"/>
<path d="M20.4518 18.8783C20.4518 19.0889 20.3829 19.2943 20.2495 19.4572C19.9423 19.8323 19.6116 20.1874 19.2597 20.5204C19.1702 20.6052 19.0249 20.5407 19.0249 20.4173V4.03907C19.0249 3.91572 19.1702 3.85124 19.2597 3.93603C19.6116 4.26901 19.9423 4.62415 20.2495 4.9992C20.3829 5.16207 20.4518 5.36755 20.4518 5.5781V18.8783Z" fill="url(#paint18_radial_175_2468)"/>
<path d="M22.8299 12.2282C22.8299 13.9076 22.4672 15.5024 21.8159 16.9383C21.7145 17.1619 21.403 17.0855 21.403 16.8401V7.61635C21.403 7.3709 21.7145 7.29453 21.8159 7.51807C22.4672 8.95404 22.8299 10.5488 22.8299 12.2282Z" fill="url(#paint19_radial_175_2468)"/>
</mask>
<g mask="url(#mask0_175_2468)">
<rect x="5.23184" y="17.4697" width="0.475622" height="4.75622" rx="0.237811" fill="#0F0F11"/>
<rect x="2.85373" y="18.4209" width="0.475622" height="6.18309" rx="0.237811" fill="#0F0F11"/>
<rect x="7.60995" y="15.0916" width="0.475622" height="8.5612" rx="0.237811" fill="#0F0F11"/>
<rect x="9.98807" y="11.7622" width="0.475622" height="10.9393" rx="0.237811" fill="#0F0F11"/>
<rect x="12.3662" y="7.95728" width="0.475622" height="13.793" rx="0.237811" fill="#0F0F11"/>
<rect x="14.7443" y="2.72559" width="0.475622" height="17.1224" rx="0.237811" fill="#0F0F11"/>
<rect x="17.1224" y="2.72559" width="0.475622" height="15.6955" rx="0.237811" fill="#0F0F11"/>
<rect x="19.5005" y="0.822998" width="0.475622" height="15.6955" rx="0.237811" fill="#0F0F11"/>
<rect x="21.8786" y="-1.55518" width="0.475622" height="15.6955" rx="0.237811" fill="#0F0F11"/>
<rect x="4.75623" y="18.8967" width="1.42687" height="3.32936" rx="0.237811" fill="white"/>
<rect x="2.37811" y="19.8479" width="1.42687" height="2.37811" rx="0.237811" fill="white"/>
<rect x="7.13434" y="16.5186" width="1.42687" height="5.70747" rx="0.237811" fill="white"/>
<rect x="9.51245" y="13.1892" width="1.42687" height="8.08558" rx="0.237811" fill="white"/>
<rect x="11.8906" y="9.38428" width="1.42687" height="10.9393" rx="0.237811" fill="white"/>
<rect x="14.2687" y="4.15234" width="1.42687" height="14.2687" rx="0.237811" fill="white"/>
<rect x="16.6468" y="2.24976" width="1.42687" height="14.7443" rx="0.237811" fill="white"/>
<rect x="19.0249" y="2.24976" width="1.42687" height="12.8418" rx="0.237811" fill="white"/>
<rect x="21.403" y="2.24976" width="1.42687" height="10.4637" rx="0.237811" fill="white"/>
</g>
<defs>
<radialGradient id="paint0_radial_175_2468" cx="0" cy="0" r="1" gradientUnits="userSpaceOnUse" gradientTransform="translate(5.46965 2.48768) rotate(68.7026) scale(15.0593 15.0721)">
<stop stop-color="#C64BFF"/>
<stop offset="1" stop-color="#873EFF"/>
</radialGradient>
<radialGradient id="paint1_radial_175_2468" cx="0" cy="0" r="1" gradientUnits="userSpaceOnUse" gradientTransform="translate(5.46965 2.48768) rotate(68.7026) scale(15.0593 15.0721)">
<stop stop-color="#C64BFF"/>
<stop offset="1" stop-color="#873EFF"/>
</radialGradient>
<radialGradient id="paint2_radial_175_2468" cx="0" cy="0" r="1" gradientUnits="userSpaceOnUse" gradientTransform="translate(5.46965 2.48768) rotate(68.7026) scale(15.0593 15.0721)">
<stop stop-color="#C64BFF"/>
<stop offset="1" stop-color="#873EFF"/>
</radialGradient>
<radialGradient id="paint3_radial_175_2468" cx="0" cy="0" r="1" gradientUnits="userSpaceOnUse" gradientTransform="translate(5.46965 2.48768) rotate(68.7026) scale(15.0593 15.0721)">
<stop stop-color="#C64BFF"/>
<stop offset="1" stop-color="#873EFF"/>
</radialGradient>
<radialGradient id="paint4_radial_175_2468" cx="0" cy="0" r="1" gradientUnits="userSpaceOnUse" gradientTransform="translate(5.46965 2.48768) rotate(68.7026) scale(15.0593 15.0721)">
<stop stop-color="#C64BFF"/>
<stop offset="1" stop-color="#873EFF"/>
</radialGradient>
<radialGradient id="paint5_radial_175_2468" cx="0" cy="0" r="1" gradientUnits="userSpaceOnUse" gradientTransform="translate(5.46965 2.48768) rotate(68.7026) scale(15.0593 15.0721)">
<stop stop-color="#C64BFF"/>
<stop offset="1" stop-color="#873EFF"/>
</radialGradient>
<radialGradient id="paint6_radial_175_2468" cx="0" cy="0" r="1" gradientUnits="userSpaceOnUse" gradientTransform="translate(5.46965 2.48768) rotate(68.7026) scale(15.0593 15.0721)">
<stop stop-color="#C64BFF"/>
<stop offset="1" stop-color="#873EFF"/>
</radialGradient>
<radialGradient id="paint7_radial_175_2468" cx="0" cy="0" r="1" gradientUnits="userSpaceOnUse" gradientTransform="translate(5.46965 2.48768) rotate(68.7026) scale(15.0593 15.0721)">
<stop stop-color="#C64BFF"/>
<stop offset="1" stop-color="#873EFF"/>
</radialGradient>
<radialGradient id="paint8_radial_175_2468" cx="0" cy="0" r="1" gradientUnits="userSpaceOnUse" gradientTransform="translate(5.46965 2.48768) rotate(68.7026) scale(15.0593 15.0721)">
<stop stop-color="#C64BFF"/>
<stop offset="1" stop-color="#873EFF"/>
</radialGradient>
<radialGradient id="paint9_radial_175_2468" cx="0" cy="0" r="1" gradientUnits="userSpaceOnUse" gradientTransform="translate(5.46965 2.48768) rotate(68.7026) scale(15.0593 15.0721)">
<stop stop-color="#C64BFF"/>
<stop offset="1" stop-color="#873EFF"/>
</radialGradient>
<radialGradient id="paint10_radial_175_2468" cx="0" cy="0" r="1" gradientUnits="userSpaceOnUse" gradientTransform="translate(6.4209 3.67673) rotate(50.9806) scale(17.7532 17.7683)">
<stop stop-color="#873EFF"/>
<stop offset="1" stop-color="#512599"/>
</radialGradient>
<radialGradient id="paint11_radial_175_2468" cx="0" cy="0" r="1" gradientUnits="userSpaceOnUse" gradientTransform="translate(6.4209 3.67673) rotate(50.9806) scale(17.7532 17.7683)">
<stop stop-color="#873EFF"/>
<stop offset="1" stop-color="#512599"/>
</radialGradient>
<radialGradient id="paint12_radial_175_2468" cx="0" cy="0" r="1" gradientUnits="userSpaceOnUse" gradientTransform="translate(6.4209 3.67673) rotate(50.9806) scale(17.7532 17.7683)">
<stop stop-color="#873EFF"/>
<stop offset="1" stop-color="#512599"/>
</radialGradient>
<radialGradient id="paint13_radial_175_2468" cx="0" cy="0" r="1" gradientUnits="userSpaceOnUse" gradientTransform="translate(6.4209 3.67673) rotate(50.9806) scale(17.7532 17.7683)">
<stop stop-color="#873EFF"/>
<stop offset="1" stop-color="#512599"/>
</radialGradient>
<radialGradient id="paint14_radial_175_2468" cx="0" cy="0" r="1" gradientUnits="userSpaceOnUse" gradientTransform="translate(6.4209 3.67673) rotate(50.9806) scale(17.7532 17.7683)">
<stop stop-color="#873EFF"/>
<stop offset="1" stop-color="#512599"/>
</radialGradient>
<radialGradient id="paint15_radial_175_2468" cx="0" cy="0" r="1" gradientUnits="userSpaceOnUse" gradientTransform="translate(6.4209 3.67673) rotate(50.9806) scale(17.7532 17.7683)">
<stop stop-color="#873EFF"/>
<stop offset="1" stop-color="#512599"/>
</radialGradient>
<radialGradient id="paint16_radial_175_2468" cx="0" cy="0" r="1" gradientUnits="userSpaceOnUse" gradientTransform="translate(6.4209 3.67673) rotate(50.9806) scale(17.7532 17.7683)">
<stop stop-color="#873EFF"/>
<stop offset="1" stop-color="#512599"/>
</radialGradient>
<radialGradient id="paint17_radial_175_2468" cx="0" cy="0" r="1" gradientUnits="userSpaceOnUse" gradientTransform="translate(6.4209 3.67673) rotate(50.9806) scale(17.7532 17.7683)">
<stop stop-color="#873EFF"/>
<stop offset="1" stop-color="#512599"/>
</radialGradient>
<radialGradient id="paint18_radial_175_2468" cx="0" cy="0" r="1" gradientUnits="userSpaceOnUse" gradientTransform="translate(6.4209 3.67673) rotate(50.9806) scale(17.7532 17.7683)">
<stop stop-color="#873EFF"/>
<stop offset="1" stop-color="#512599"/>
</radialGradient>
<radialGradient id="paint19_radial_175_2468" cx="0" cy="0" r="1" gradientUnits="userSpaceOnUse" gradientTransform="translate(6.4209 3.67673) rotate(50.9806) scale(17.7532 17.7683)">
<stop stop-color="#873EFF"/>
<stop offset="1" stop-color="#512599"/>
</radialGradient>
</defs>
</svg>
