<svg width="705" height="85" fill="none">
  <path fill="#fff" d="M4.992 84.16c-1.315 0-2.359-.387-3.132-1.16C1.087 82.15.7 80.99.7 79.52V27.088c0-8.197 2.32-14.655 6.96-19.372C12.3 2.999 18.68.64 26.8.64c4.717 0 9.048 1.237 12.992 3.712 4.021 2.397 7.037 5.607 9.048 9.628 2.01-4.099 4.95-7.347 8.816-9.744C61.6 1.839 66.008.64 70.88.64c8.12 0 14.5 2.359 19.14 7.076 4.64 4.64 6.96 11.097 6.96 19.372V79.52c0 1.47-.425 2.63-1.276 3.48-.773.773-1.817 1.16-3.132 1.16-1.392 0-2.475-.387-3.248-1.16-.696-.85-1.044-2.01-1.044-3.48V27.088c0-6.11-1.392-10.788-4.176-14.036-2.707-3.248-7.192-4.872-13.456-4.872-5.49 0-9.783 1.701-12.876 5.104-3.093 3.325-4.64 7.927-4.64 13.804V79.52c0 1.47-.387 2.63-1.16 3.48-.773.773-1.817 1.16-3.132 1.16-1.315 0-2.359-.387-3.132-1.16-.696-.85-1.044-2.01-1.044-3.48V27.088c0-5.723-1.624-10.285-4.872-13.688-3.248-3.48-7.501-5.22-12.76-5.22-6.264 0-10.788 1.624-13.572 4.872C10.753 16.3 9.4 20.979 9.4 27.088V79.52c0 1.47-.387 2.63-1.16 3.48-.773.773-1.856 1.16-3.248 1.16Zm145.357 0c-7.811 0-14.848-1.701-21.112-5.104-6.264-3.48-11.213-8.39-14.848-14.732-3.557-6.341-5.336-13.65-5.336-21.924 0-8.352 1.779-15.66 5.336-21.924 3.635-6.341 8.584-11.213 14.848-14.616 6.264-3.48 13.301-5.22 21.112-5.22 7.811 0 14.848 1.74 21.112 5.22 6.264 3.403 11.175 8.275 14.732 14.616 3.635 6.264 5.452 13.572 5.452 21.924 0 8.275-1.817 15.583-5.452 21.924-3.557 6.341-8.468 11.252-14.732 14.732-6.264 3.403-13.301 5.104-21.112 5.104Zm0-7.424c6.264 0 11.832-1.353 16.704-4.06 4.949-2.707 8.816-6.612 11.6-11.716 2.861-5.181 4.292-11.368 4.292-18.56 0-7.27-1.469-13.495-4.408-18.676-2.861-5.181-6.805-9.087-11.832-11.716-4.949-2.63-10.479-3.944-16.588-3.944-6.187 0-11.755 1.353-16.704 4.06-4.872 2.707-8.7 6.65-11.484 11.832-2.784 5.181-4.176 11.33-4.176 18.444 0 7.192 1.392 13.379 4.176 18.56 2.861 5.104 6.728 9.01 11.6 11.716 4.949 2.707 10.556 4.06 16.82 4.06Zm95.156 7.424c-7.81 0-14.848-1.701-21.112-5.104-6.264-3.48-11.213-8.39-14.848-14.732-3.557-6.341-5.336-13.65-5.336-21.924 0-8.352 1.779-15.66 5.336-21.924 3.635-6.341 8.584-11.213 14.848-14.616 6.264-3.48 13.302-5.22 21.112-5.22 7.811 0 14.848 1.74 21.112 5.22 6.264 3.403 11.175 8.275 14.732 14.616 3.635 6.264 5.452 13.572 5.452 21.924 0 8.275-1.817 15.583-5.452 21.924-3.557 6.341-8.468 11.252-14.732 14.732-6.264 3.403-13.301 5.104-21.112 5.104Zm0-7.424c6.264 0 11.832-1.353 16.704-4.06 4.95-2.707 8.816-6.612 11.6-11.716 2.862-5.181 4.292-11.368 4.292-18.56 0-7.27-1.469-13.495-4.408-18.676-2.861-5.181-6.805-9.087-11.832-11.716-4.949-2.63-10.478-3.944-16.588-3.944-6.186 0-11.754 1.353-16.704 4.06-4.872 2.707-8.7 6.65-11.484 11.832-2.784 5.181-4.176 11.33-4.176 18.444 0 7.192 1.392 13.379 4.176 18.56 2.862 5.104 6.728 9.01 11.6 11.716 4.95 2.707 10.556 4.06 16.82 4.06Zm57.527 7.424c-1.314 0-2.358-.387-3.132-1.16-.773-.85-1.16-2.01-1.16-3.48V32.192c0-6.419 1.354-11.987 4.06-16.704 2.784-4.795 6.728-8.468 11.832-11.02C319.736 1.916 325.73.64 332.612.64c6.883 0 12.838 1.276 17.864 3.828 5.104 2.552 9.01 6.225 11.716 11.02 2.784 4.717 4.176 10.285 4.176 16.704V79.52c0 1.47-.386 2.63-1.16 3.48-.696.773-1.74 1.16-3.132 1.16-1.314 0-2.397-.387-3.248-1.16-.773-.85-1.16-2.01-1.16-3.48V31.844c0-7.501-2.204-13.34-6.612-17.516-4.408-4.176-10.556-6.264-18.444-6.264-7.733 0-13.881 2.127-18.444 6.38-4.485 4.253-6.728 10.053-6.728 17.4V79.52c0 1.47-.386 2.63-1.16 3.48-.773.773-1.856 1.16-3.248 1.16Zm114.312 0c-7.424 0-14.268-1.237-20.532-3.712-6.187-2.552-11.02-6.032-14.5-10.44-.619-.773-.928-1.585-.928-2.436 0-1.083.58-2.127 1.74-3.132.619-.464 1.276-.696 1.972-.696 1.392 0 2.629.657 3.712 1.972 3.171 3.48 7.153 6.187 11.948 8.12 4.872 1.856 10.401 2.784 16.588 2.784 6.805 0 12.064-1.237 15.776-3.712 3.712-2.552 5.568-6.148 5.568-10.788 0-4.021-1.817-7.27-5.452-9.744-3.557-2.475-9.628-4.679-18.212-6.612-11.213-2.475-19.295-5.568-24.244-9.28-4.872-3.79-7.308-8.777-7.308-14.964 0-6.419 2.707-11.484 8.12-15.196C397.083 2.534 404.468.64 413.748.64c7.037 0 13.379 1.237 19.024 3.712 5.723 2.475 9.783 5.8 12.18 9.976.464.773.696 1.508.696 2.204 0 1.237-.657 2.32-1.972 3.248-.541.31-1.16.464-1.856.464-1.701 0-3.016-.657-3.944-1.972-2.243-3.248-5.413-5.723-9.512-7.424-4.099-1.779-8.971-2.668-14.616-2.668-14.307 0-21.46 4.447-21.46 13.34 0 2.707.735 4.988 2.204 6.844 1.469 1.779 3.828 3.403 7.076 4.872 3.325 1.392 7.927 2.784 13.804 4.176 11.445 2.707 19.681 5.993 24.708 9.86 5.027 3.79 7.54 8.739 7.54 14.848 0 6.805-2.745 12.18-8.236 16.124-5.413 3.944-12.76 5.916-22.04 5.916Zm50.073 0c-1.315 0-2.359-.387-3.132-1.16-.773-.85-1.16-2.01-1.16-3.48V5.28c0-1.47.387-2.59 1.16-3.364.773-.85 1.817-1.276 3.132-1.276 1.392 0 2.475.425 3.248 1.276.773.773 1.16 1.895 1.16 3.364v32.364h50.924V5.28c0-1.47.387-2.59 1.16-3.364.773-.85 1.856-1.276 3.248-1.276 1.315 0 2.359.425 3.132 1.276.773.773 1.16 1.895 1.16 3.364v74.24c0 1.47-.387 2.63-1.16 3.48-.773.773-1.817 1.16-3.132 1.16-1.315 0-2.397-.387-3.248-1.16-.773-.85-1.16-2.01-1.16-3.48V44.952h-50.924V79.52c0 1.47-.387 2.63-1.16 3.48-.773.773-1.856 1.16-3.248 1.16Zm120.764 0c-7.811 0-14.848-1.701-21.112-5.104-6.264-3.48-11.213-8.39-14.848-14.732-3.557-6.341-5.336-13.65-5.336-21.924 0-8.352 1.779-15.66 5.336-21.924 3.635-6.341 8.584-11.213 14.848-14.616C573.333 2.38 580.37.64 588.181.64c7.811 0 14.848 1.74 21.112 5.22 6.264 3.403 11.175 8.275 14.732 14.616 3.635 6.264 5.452 13.572 5.452 21.924 0 8.275-1.817 15.583-5.452 21.924-3.557 6.341-8.468 11.252-14.732 14.732-6.264 3.403-13.301 5.104-21.112 5.104Zm0-7.424c6.264 0 11.832-1.353 16.704-4.06 4.949-2.707 8.816-6.612 11.6-11.716 2.861-5.181 4.292-11.368 4.292-18.56 0-7.27-1.469-13.495-4.408-18.676-2.861-5.181-6.805-9.087-11.832-11.716-4.949-2.63-10.479-3.944-16.588-3.944-6.187 0-11.755 1.353-16.704 4.06-4.872 2.707-8.7 6.65-11.484 11.832-2.784 5.181-4.176 11.33-4.176 18.444 0 7.192 1.392 13.379 4.176 18.56 2.861 5.104 6.728 9.01 11.6 11.716 4.949 2.707 10.556 4.06 16.82 4.06Zm80.491 7.424c-1.392 0-2.475-.387-3.248-1.16-.696-.85-1.044-2.01-1.044-3.48V8.992h-26.564c-1.392 0-2.514-.27-3.364-.812-.774-.619-1.16-1.508-1.16-2.668 0-2.475 1.508-3.712 4.524-3.712h61.944c3.016 0 4.524 1.237 4.524 3.712 0 1.083-.387 1.933-1.16 2.552-.774.619-1.895.928-3.364.928h-26.564V79.52c0 1.47-.426 2.63-1.276 3.48-.774.773-1.856 1.16-3.248 1.16Z"/>
</svg>
