<svg width="37" height="37" viewBox="0 0 37 37" fill="none" xmlns="http://www.w3.org/2000/svg">
<path d="M12.5 17C12.5 13.6863 15.1863 11 18.5 11C21.8137 11 24.5 13.6863 24.5 17V21.935C24.5 22.2418 24.6219 22.5361 24.8389 22.7531L25.2322 23.1464C25.5472 23.4614 25.3241 24 24.8787 24H12.1213C11.6759 24 11.4528 23.4614 11.7678 23.1464L12.1611 22.7531C12.3781 22.5361 12.5 22.2418 12.5 21.935V17Z" stroke="#715894" stroke-width="2"/>
<path d="M20.9146 26.5C20.7087 27.0826 20.1531 27.5 19.5 27.5H17.5C16.8469 27.5 16.2913 27.0826 16.0854 26.5H20.9146Z" fill="#D9D9D9" stroke="#715894"/>
</svg>
