<svg width="328" height="322" viewBox="0 0 328 322" fill="none" xmlns="http://www.w3.org/2000/svg">
<rect x="103" y="136" width="2" height="2" fill="white" fill-opacity="0.1"/>
<rect x="103" y="98" width="2" height="2" fill="white" fill-opacity="0.1"/>
<rect x="141" y="136" width="2" height="2" fill="white" fill-opacity="0.1"/>
<rect x="141" y="98" width="2" height="2" fill="white" fill-opacity="0.1"/>
<g opacity="0.3">
<rect x="22.9999" y="136" width="2" height="2" fill="white" fill-opacity="0.1"/>
<rect x="22.9999" y="98" width="2" height="2" fill="white" fill-opacity="0.1"/>
<rect x="60.9999" y="136" width="2" height="2" fill="white" fill-opacity="0.1"/>
<rect x="60.9999" y="98" width="2" height="2" fill="white" fill-opacity="0.1"/>
</g>
<g opacity="0.3">
<rect x="22.9999" y="217" width="2" height="2" fill="white" fill-opacity="0.1"/>
<rect x="22.9999" y="179" width="2" height="2" fill="white" fill-opacity="0.1"/>
<rect x="60.9999" y="217" width="2" height="2" fill="white" fill-opacity="0.1"/>
<rect x="60.9999" y="179" width="2" height="2" fill="white" fill-opacity="0.1"/>
</g>
<g opacity="0.3">
<rect x="103" y="56" width="2" height="2" fill="white" fill-opacity="0.1"/>
<rect x="103" y="18" width="2" height="2" fill="white" fill-opacity="0.1"/>
<rect x="141" y="56" width="2" height="2" fill="white" fill-opacity="0.1"/>
<rect x="141" y="18" width="2" height="2" fill="white" fill-opacity="0.1"/>
</g>
<g opacity="0.3">
<rect x="103" y="296" width="2" height="2" fill="white" fill-opacity="0.1"/>
<rect x="103" y="258" width="2" height="2" fill="white" fill-opacity="0.1"/>
<rect x="141" y="296" width="2" height="2" fill="white" fill-opacity="0.1"/>
<rect x="141" y="258" width="2" height="2" fill="white" fill-opacity="0.1"/>
</g>
<rect x="103" y="216" width="2" height="2" fill="white" fill-opacity="0.1"/>
<rect x="103" y="178" width="2" height="2" fill="white" fill-opacity="0.1"/>
<rect x="141" y="216" width="2" height="2" fill="white" fill-opacity="0.1"/>
<rect x="141" y="178" width="2" height="2" fill="white" fill-opacity="0.1"/>
<rect x="185" y="136" width="2" height="2" fill="white" fill-opacity="0.1"/>
<rect x="185" y="98" width="2" height="2" fill="white" fill-opacity="0.1"/>
<rect x="223" y="136" width="2" height="2" fill="white" fill-opacity="0.1"/>
<rect x="223" y="98" width="2" height="2" fill="white" fill-opacity="0.1"/>
<g opacity="0.3">
<rect x="265" y="136" width="2" height="2" fill="white" fill-opacity="0.1"/>
<rect x="265" y="98" width="2" height="2" fill="white" fill-opacity="0.1"/>
<rect x="303" y="136" width="2" height="2" fill="white" fill-opacity="0.1"/>
<rect x="303" y="98" width="2" height="2" fill="white" fill-opacity="0.1"/>
</g>
<g opacity="0.3">
<rect x="265" y="217" width="2" height="2" fill="white" fill-opacity="0.1"/>
<rect x="265" y="179" width="2" height="2" fill="white" fill-opacity="0.1"/>
<rect x="303" y="217" width="2" height="2" fill="white" fill-opacity="0.1"/>
<rect x="303" y="179" width="2" height="2" fill="white" fill-opacity="0.1"/>
</g>
<g opacity="0.3">
<rect x="185" y="56" width="2" height="2" fill="white" fill-opacity="0.1"/>
<rect x="185" y="18" width="2" height="2" fill="white" fill-opacity="0.1"/>
<rect x="223" y="56" width="2" height="2" fill="white" fill-opacity="0.1"/>
<rect x="223" y="18" width="2" height="2" fill="white" fill-opacity="0.1"/>
</g>
<g opacity="0.3">
<rect x="185" y="296" width="2" height="2" fill="white" fill-opacity="0.1"/>
<rect x="185" y="258" width="2" height="2" fill="white" fill-opacity="0.1"/>
<rect x="223" y="296" width="2" height="2" fill="white" fill-opacity="0.1"/>
<rect x="223" y="258" width="2" height="2" fill="white" fill-opacity="0.1"/>
</g>
<rect x="185" y="216" width="2" height="2" fill="white" fill-opacity="0.1"/>
<rect x="185" y="178" width="2" height="2" fill="white" fill-opacity="0.1"/>
<rect x="223" y="216" width="2" height="2" fill="white" fill-opacity="0.1"/>
<rect x="223" y="178" width="2" height="2" fill="white" fill-opacity="0.1"/>
<g filter="url(#filter0_f_258_143381)">
<circle cx="164" cy="158" r="85.4528" fill="url(#paint0_radial_258_143381)"/>
</g>
<g filter="url(#filter1_b_258_143381)">
<mask id="path-50-inside-1_258_143381" fill="white">
<path fill-rule="evenodd" clip-rule="evenodd" d="M165 97C165 96.4477 164.552 96 164 96C163.448 96 163 96.4477 163 97V116C163 116.552 162.552 117 162 117C161.448 117 161 117.448 161 118V155C161 155.552 161.448 156 162 156C162.552 156 163 156.448 163 157V166C163 166.552 163.448 167 164 167C164.552 167 165 166.552 165 166V157C165 156.448 165.448 156 166 156C166.552 156 167 155.552 167 155V118C167 117.448 166.552 117 166 117C165.448 117 165 116.552 165 116V97ZM129 110C129 109.448 128.552 109 128 109C127.448 109 127 109.448 127 110V118C127 118.552 126.552 119 126 119C125.448 119 125 119.448 125 120V156C125 156.552 125.448 157 126 157C126.552 157 127 157.448 127 158V177C127 177.552 127.448 178 128 178C128.552 178 129 177.552 129 177V158C129 157.448 129.448 157 130 157C130.552 157 131 156.552 131 156V120C131 119.448 130.552 119 130 119C129.448 119 129 118.552 129 118V110ZM111 130C111 129.448 110.552 129 110 129C109.448 129 109 129.448 109 130V135C109 135.552 108.552 136 108 136C107.448 136 107 136.448 107 137V184C107 184.552 107.448 185 108 185C108.552 185 109 185.448 109 186V191C109 191.552 109.448 192 110 192C110.552 192 111 191.552 111 191V186C111 185.448 111.448 185 112 185C112.552 185 113 184.552 113 184V137C113 136.448 112.552 136 112 136C111.448 136 111 135.552 111 135V130ZM145 137C145 136.448 145.448 136 146 136C146.552 136 147 136.448 147 137V164C147 164.552 147.448 165 148 165C148.552 165 149 165.448 149 166V193C149 193.552 148.552 194 148 194C147.448 194 147 194.448 147 195V212C147 212.552 146.552 213 146 213C145.448 213 145 212.552 145 212V195C145 194.448 144.552 194 144 194C143.448 194 143 193.552 143 193V166C143 165.448 143.448 165 144 165C144.552 165 145 164.552 145 164V137ZM181 122C181 121.448 181.448 121 182 121C182.552 121 183 121.448 183 122V129C183 129.552 183.448 130 184 130C184.552 130 185 130.448 185 131V151C185 151.552 184.552 152 184 152C183.448 152 183 152.448 183 153V179C183 179.552 182.552 180 182 180C181.448 180 181 179.552 181 179V153C181 152.448 180.552 152 180 152C179.448 152 179 151.552 179 151V131C179 130.448 179.448 130 180 130C180.552 130 181 129.552 181 129V122ZM201 135C201 134.448 200.552 134 200 134C199.448 134 199 134.448 199 135V160C199 160.552 198.552 161 198 161C197.448 161 197 161.448 197 162V212C197 212.552 197.448 213 198 213C198.552 213 199 213.448 199 214V218C199 218.552 199.448 219 200 219C200.552 219 201 218.552 201 218V214C201 213.448 201.448 213 202 213C202.552 213 203 212.552 203 212V162C203 161.448 202.552 161 202 161C201.448 161 201 160.552 201 160V135ZM217 100C217 99.4477 217.448 99 218 99C218.552 99 219 99.4477 219 100V115C219 115.552 219.448 116 220 116C220.552 116 221 116.448 221 117V152C221 152.552 220.552 153 220 153C219.448 153 219 153.448 219 154V157C219 157.552 218.552 158 218 158C217.448 158 217 157.552 217 157V154C217 153.448 216.552 153 216 153C215.448 153 215 152.552 215 152V117C215 116.448 215.448 116 216 116C216.552 116 217 115.552 217 115V100Z"/>
</mask>
<path fill-rule="evenodd" clip-rule="evenodd" d="M165 97C165 96.4477 164.552 96 164 96C163.448 96 163 96.4477 163 97V116C163 116.552 162.552 117 162 117C161.448 117 161 117.448 161 118V155C161 155.552 161.448 156 162 156C162.552 156 163 156.448 163 157V166C163 166.552 163.448 167 164 167C164.552 167 165 166.552 165 166V157C165 156.448 165.448 156 166 156C166.552 156 167 155.552 167 155V118C167 117.448 166.552 117 166 117C165.448 117 165 116.552 165 116V97ZM129 110C129 109.448 128.552 109 128 109C127.448 109 127 109.448 127 110V118C127 118.552 126.552 119 126 119C125.448 119 125 119.448 125 120V156C125 156.552 125.448 157 126 157C126.552 157 127 157.448 127 158V177C127 177.552 127.448 178 128 178C128.552 178 129 177.552 129 177V158C129 157.448 129.448 157 130 157C130.552 157 131 156.552 131 156V120C131 119.448 130.552 119 130 119C129.448 119 129 118.552 129 118V110ZM111 130C111 129.448 110.552 129 110 129C109.448 129 109 129.448 109 130V135C109 135.552 108.552 136 108 136C107.448 136 107 136.448 107 137V184C107 184.552 107.448 185 108 185C108.552 185 109 185.448 109 186V191C109 191.552 109.448 192 110 192C110.552 192 111 191.552 111 191V186C111 185.448 111.448 185 112 185C112.552 185 113 184.552 113 184V137C113 136.448 112.552 136 112 136C111.448 136 111 135.552 111 135V130ZM145 137C145 136.448 145.448 136 146 136C146.552 136 147 136.448 147 137V164C147 164.552 147.448 165 148 165C148.552 165 149 165.448 149 166V193C149 193.552 148.552 194 148 194C147.448 194 147 194.448 147 195V212C147 212.552 146.552 213 146 213C145.448 213 145 212.552 145 212V195C145 194.448 144.552 194 144 194C143.448 194 143 193.552 143 193V166C143 165.448 143.448 165 144 165C144.552 165 145 164.552 145 164V137ZM181 122C181 121.448 181.448 121 182 121C182.552 121 183 121.448 183 122V129C183 129.552 183.448 130 184 130C184.552 130 185 130.448 185 131V151C185 151.552 184.552 152 184 152C183.448 152 183 152.448 183 153V179C183 179.552 182.552 180 182 180C181.448 180 181 179.552 181 179V153C181 152.448 180.552 152 180 152C179.448 152 179 151.552 179 151V131C179 130.448 179.448 130 180 130C180.552 130 181 129.552 181 129V122ZM201 135C201 134.448 200.552 134 200 134C199.448 134 199 134.448 199 135V160C199 160.552 198.552 161 198 161C197.448 161 197 161.448 197 162V212C197 212.552 197.448 213 198 213C198.552 213 199 213.448 199 214V218C199 218.552 199.448 219 200 219C200.552 219 201 218.552 201 218V214C201 213.448 201.448 213 202 213C202.552 213 203 212.552 203 212V162C203 161.448 202.552 161 202 161C201.448 161 201 160.552 201 160V135ZM217 100C217 99.4477 217.448 99 218 99C218.552 99 219 99.4477 219 100V115C219 115.552 219.448 116 220 116C220.552 116 221 116.448 221 117V152C221 152.552 220.552 153 220 153C219.448 153 219 153.448 219 154V157C219 157.552 218.552 158 218 158C217.448 158 217 157.552 217 157V154C217 153.448 216.552 153 216 153C215.448 153 215 152.552 215 152V117C215 116.448 215.448 116 216 116C216.552 116 217 115.552 217 115V100Z" fill="url(#paint1_radial_258_143381)"/>
<path d="M164 116V97H162V116H164ZM162 118V116C160.895 116 160 116.895 160 118H162ZM162 155V118H160V155H162ZM162 155H160C160 156.105 160.895 157 162 157V155ZM164 166V157H162V166H164ZM164 157V166H166V157H164ZM166 155V157C167.105 157 168 156.105 168 155H166ZM166 118V155H168V118H166ZM166 118H168C168 116.895 167.105 116 166 116V118ZM164 97V116H166V97H164ZM128 118V110H126V118H128ZM126 120V118C124.895 118 124 118.895 124 120H126ZM126 156V120H124V156H126ZM126 156H124C124 157.105 124.895 158 126 158V156ZM128 177V158H126V177H128ZM128 158V177H130V158H128ZM130 156V158C131.105 158 132 157.105 132 156H130ZM130 120V156H132V120H130ZM130 120H132C132 118.895 131.105 118 130 118V120ZM128 110V118H130V110H128ZM110 135V130H108V135H110ZM108 137V135C106.895 135 106 135.895 106 137H108ZM108 184V137H106V184H108ZM108 184H108H106C106 185.105 106.895 186 108 186V184ZM110 191V186H108V191H110ZM110 186V191H112V186H110ZM112 184V186C113.105 186 114 185.105 114 184H112ZM112 137V184H114V137H112ZM112 137H114C114 135.895 113.105 135 112 135V137ZM110 130V135H112V130H110ZM148 164V137H146V164H148ZM150 166C150 164.895 149.105 164 148 164V166H150ZM150 193V166H148V193H150ZM148 195C149.105 195 150 194.105 150 193H148V195ZM148 212V195H146V212H148ZM144 195V212H146V195H144ZM142 193C142 194.105 142.895 195 144 195V193H142ZM142 166V193H144V166H142ZM144 164C142.895 164 142 164.895 142 166H144V164ZM144 137V164H146V137H144ZM184 129V122H182V129H184ZM186 131C186 129.895 185.105 129 184 129V131H186ZM186 151V131H184V151H186ZM184 153C185.105 153 186 152.105 186 151H184V153ZM184 179V153H182V179H184ZM180 153V179H182V153H180ZM178 151C178 152.105 178.895 153 180 153V151H178ZM178 131V151H180V131H178ZM180 129C178.895 129 178 129.895 178 131H180V129ZM180 122V129H182V122H180ZM200 160V135H198V160H200ZM198 162V160C196.895 160 196 160.895 196 162H198ZM198 212V162H196V212H198ZM198 212H196C196 213.105 196.895 214 198 214V212ZM200 218V214H198V218H200ZM200 214V218H202V214H200ZM202 212V214C203.105 214 204 213.105 204 212H202ZM202 162V212H204V162H202ZM202 162H204C204 160.895 203.105 160 202 160V162ZM200 135V160H202V135H200ZM220 115V100H218V115H220ZM222 117C222 115.895 221.105 115 220 115V117H222ZM222 152V117H220V152H222ZM220 154C221.105 154 222 153.105 222 152H220V154ZM220 157V154H218V157H220ZM216 154V157H218V154H216ZM214 152C214 153.105 214.895 154 216 154V152H214ZM214 117V152H216V117H214ZM216 115C214.895 115 214 115.895 214 117H216V115ZM216 100V115H218V100H216ZM216 117C217.105 117 218 116.105 218 115H216V117ZM220 152C218.895 152 218 152.895 218 154H220V152ZM218 100H220C220 98.8954 219.105 98 218 98V100ZM202 160H200C200 161.105 200.895 162 202 162V160ZM202 214V212C200.895 212 200 212.895 200 214H202ZM198 160V162C199.105 162 200 161.105 200 160H198ZM182 153C182 151.895 181.105 151 180 151V153H182ZM182 129C182 130.105 182.895 131 184 131V129H182ZM146 195C146 193.895 145.105 193 144 193V195H146ZM146 164C146 165.105 146.895 166 148 166V164H146ZM200 220C201.105 220 202 219.105 202 218H200V220ZM112 186V184C110.895 184 110 184.895 110 186H112ZM200 135H202C202 133.895 201.105 133 200 133V135ZM108 135V137C109.105 137 110 136.105 110 135H108ZM182 179H180C180 180.105 180.895 181 182 181V179ZM130 158V156C128.895 156 128 156.895 128 158H130ZM198 214H200C200 212.895 199.105 212 198 212V214ZM108 191C108 192.105 108.895 193 110 193V191H108ZM182 122H184C184 120.895 183.105 120 182 120V122ZM128 110H130C130 108.895 129.105 108 128 108V110ZM108 186H108H110C110 184.895 109.105 184 108 184V186ZM144 166C145.105 166 146 165.105 146 164H144V166ZM128 108C126.895 108 126 108.895 126 110H128V108ZM166 116H164C164 117.105 164.895 118 166 118V116ZM200 133C198.895 133 198 133.895 198 135H200V133ZM110 130H112C112 128.895 111.105 128 110 128V130ZM146 212H144C144 213.105 144.895 214 146 214V212ZM166 157V155C164.895 155 164 155.895 164 157H166ZM180 131C181.105 131 182 130.105 182 129H180V131ZM110 128C108.895 128 108 128.895 108 130H110V128ZM146 212V214C147.105 214 148 213.105 148 212H146ZM218 154C218 152.895 217.105 152 216 152V154H218ZM164 168C165.105 168 166 167.105 166 166H164V168ZM130 118H128C128 119.105 128.895 120 130 120V118ZM148 193C146.895 193 146 193.895 146 195H148V193ZM218 157H216C216 158.105 216.895 159 218 159V157ZM162 166C162 167.105 162.895 168 164 168V166H162ZM198 218C198 219.105 198.895 220 200 220V218H198ZM110 193C111.105 193 112 192.105 112 191H110V193ZM182 120C180.895 120 180 120.895 180 122H182V120ZM126 118V120C127.105 120 128 119.105 128 118H126ZM218 157V159C219.105 159 220 158.105 220 157H218ZM162 157H164C164 155.895 163.105 155 162 155V157ZM182 179V181C183.105 181 184 180.105 184 179H182ZM128 179C129.105 179 130 178.105 130 177H128V179ZM146 135C144.895 135 144 135.895 144 137H146V135ZM162 116V118C163.105 118 164 117.105 164 116H162ZM184 151C182.895 151 182 151.895 182 153H184V151ZM126 177C126 178.105 126.895 179 128 179V177H126ZM146 137H148C148 135.895 147.105 135 146 135V137ZM218 115C218 116.105 218.895 117 220 117V115H218ZM164 97H166C166 95.8954 165.105 95 164 95V97ZM126 158H128C128 156.895 127.105 156 126 156V158ZM112 135H110C110 136.105 110.895 137 112 137V135ZM218 98C216.895 98 216 98.8954 216 100H218V98ZM164 95C162.895 95 162 95.8954 162 97H164V97V95Z" fill="url(#paint2_linear_258_143381)" mask="url(#path-50-inside-1_258_143381)"/>
</g>
<defs>
<filter id="filter0_f_258_143381" x="0.346756" y="-5.65312" width="327.306" height="327.305" filterUnits="userSpaceOnUse" color-interpolation-filters="sRGB">
<feFlood flood-opacity="0" result="BackgroundImageFix"/>
<feBlend mode="normal" in="SourceGraphic" in2="BackgroundImageFix" result="shape"/>
<feGaussianBlur stdDeviation="39.1" result="effect1_foregroundBlur_258_143381"/>
</filter>
<filter id="filter1_b_258_143381" x="1.2" y="-9.8" width="325.6" height="334.6" filterUnits="userSpaceOnUse" color-interpolation-filters="sRGB">
<feFlood flood-opacity="0" result="BackgroundImageFix"/>
<feGaussianBlur in="BackgroundImageFix" stdDeviation="52.9"/>
<feComposite in2="SourceAlpha" operator="in" result="effect1_backgroundBlur_258_143381"/>
<feBlend mode="normal" in="SourceGraphic" in2="effect1_backgroundBlur_258_143381" result="shape"/>
</filter>
<radialGradient id="paint0_radial_258_143381" cx="0" cy="0" r="1" gradientUnits="userSpaceOnUse" gradientTransform="translate(164 158) rotate(90) scale(85.4528)">
<stop stop-color="#7000FF"/>
<stop offset="1" stop-color="#792BF8" stop-opacity="0"/>
</radialGradient>
<radialGradient id="paint1_radial_258_143381" cx="0" cy="0" r="1" gradientUnits="userSpaceOnUse" gradientTransform="translate(164 99) rotate(90) scale(26.8268 57)">
<stop offset="0.0537305" stop-color="#874DE5" stop-opacity="0.4"/>
<stop offset="1" stop-color="#8D43FF" stop-opacity="0.27"/>
</radialGradient>
<linearGradient id="paint2_linear_258_143381" x1="164" y1="99" x2="164" y2="126.505" gradientUnits="userSpaceOnUse">
<stop stop-color="white" stop-opacity="0.1"/>
<stop offset="1" stop-color="white" stop-opacity="0"/>
</linearGradient>
</defs>
</svg>
