<svg width="24" height="24" viewBox="0 0 24 24" fill="none" xmlns="http://www.w3.org/2000/svg">
<path d="M15.3271 14.9139C14.3199 14.8448 13.5281 13.9716 13.5281 12.9043C13.5281 12.8686 13.5287 12.833 13.5307 12.7974V12.8023C13.5287 12.7687 13.5274 12.7296 13.5274 12.6898C13.5274 11.6245 14.3206 10.7542 15.3218 10.6906H15.3271C16.3329 10.7479 17.1275 11.6162 17.1275 12.6793C17.1275 12.7226 17.1261 12.7652 17.1235 12.8079V12.8023C17.1255 12.8372 17.1268 12.8784 17.1268 12.9196C17.1268 13.9835 16.3329 14.8532 15.3318 14.9133H15.3264L15.3271 14.9139ZM8.68422 14.9139C7.67705 14.8448 6.88519 13.9716 6.88519 12.9043C6.88519 12.8686 6.88585 12.833 6.88785 12.7974V12.8023C6.88585 12.7687 6.88452 12.7296 6.88452 12.6898C6.88452 11.6245 7.67772 10.7542 8.67889 10.6906H8.68422C9.69005 10.7479 10.4846 11.6162 10.4846 12.6793C10.4846 12.7226 10.4833 12.7652 10.4806 12.8079V12.8023C10.4826 12.8358 10.4839 12.8749 10.4839 12.9147C10.4839 13.98 9.69072 14.8504 8.68955 14.9139H8.68422ZM18.9272 5.34538C17.752 4.7642 16.3869 4.30456 14.9578 4.03842L14.8585 4.02305C14.8552 4.02235 14.8512 4.02165 14.8472 4.02165C14.8239 4.02165 14.8039 4.03493 14.7932 4.05449C14.6372 4.34158 14.4679 4.69993 14.3153 5.06737L14.2866 5.1449C13.6001 5.02964 12.8082 4.96398 12.0017 4.96398C11.1951 4.96398 10.4033 5.02964 9.63073 5.15608L9.71671 5.1442C9.53674 4.70413 9.36477 4.34647 9.1748 4L9.20213 4.05379C9.1908 4.03353 9.17014 4.02096 9.14681 4.02096C9.14348 4.02096 9.13948 4.02096 9.13614 4.02165C7.60773 4.30317 6.24263 4.7621 4.96684 5.38869L5.06749 5.34399C5.05616 5.34888 5.04683 5.35726 5.04083 5.36774C3.13848 8.19053 2 11.7028 2 15.4937C2 16.1273 2.03199 16.7525 2.09398 17.3686L2.08799 17.2918C2.08998 17.312 2.09998 17.3288 2.11398 17.3407C3.54041 18.459 5.1988 19.3601 6.9885 19.9518L7.10582 19.9853C7.11115 19.9874 7.11781 19.9881 7.12448 19.9881C7.14581 19.9881 7.16447 19.9776 7.1758 19.9616C7.53241 19.4586 7.87169 18.8886 8.16564 18.2907L8.19697 18.2208C8.20097 18.2124 8.20363 18.202 8.20363 18.1908C8.20363 18.1621 8.1863 18.1384 8.16231 18.1286H8.16164C7.55374 17.8827 7.03983 17.6208 6.55057 17.3204L6.6019 17.3497C6.58257 17.3379 6.5699 17.3162 6.5699 17.2918C6.5699 17.2701 6.5799 17.2506 6.59523 17.2387C6.69988 17.1563 6.8052 17.071 6.90518 16.9844C6.91585 16.9753 6.92984 16.9697 6.94451 16.9697C6.95384 16.9697 6.96251 16.9718 6.96984 16.9753H6.96917C8.44093 17.7165 10.1686 18.1496 11.9923 18.1496C13.816 18.1496 15.5444 17.7165 17.0868 16.9432L17.0155 16.9753C17.0235 16.9711 17.0322 16.969 17.0422 16.969C17.0568 16.969 17.0708 16.9746 17.0815 16.9837C17.1815 17.0703 17.2861 17.157 17.3921 17.2387C17.4074 17.2513 17.4174 17.2708 17.4174 17.2925C17.4174 17.3169 17.4048 17.3379 17.3868 17.3497C16.9462 17.6257 16.4323 17.8869 15.897 18.1028L15.827 18.1279C15.803 18.1377 15.7857 18.1621 15.7857 18.1901C15.7857 18.2013 15.7884 18.2117 15.793 18.2208C16.127 18.8914 16.4656 19.46 16.8402 20L16.8135 19.9602C16.8249 19.9769 16.8442 19.9881 16.8649 19.9881C16.8715 19.9881 16.8782 19.9867 16.8842 19.9853C18.7939 19.3622 20.4549 18.4611 21.9267 17.3085L21.8834 17.3414C21.898 17.3302 21.9073 17.3127 21.9093 17.2932C21.9673 16.7455 22 16.1098 22 15.4665C22 11.6839 20.8589 8.18075 18.9185 5.31395L18.9532 5.36843C18.9478 5.35726 18.9385 5.34818 18.9278 5.34329L18.9272 5.34538Z" fill="#715894"/>
</svg>
