<svg width="24" height="24" viewBox="0 0 24 24" fill="none" xmlns="http://www.w3.org/2000/svg">
<circle cx="12" cy="12" r="9" stroke="#715894" stroke-width="2"/>
<path d="M17 12C17 14.3154 16.3725 16.3664 15.4106 17.8093C14.444 19.2592 13.2185 20 12 20C10.7815 20 9.55601 19.2592 8.58941 17.8093C7.62747 16.3664 7 14.3154 7 12C7 9.68461 7.62747 7.63365 8.58941 6.19074C9.55601 4.74084 10.7815 4 12 4C13.2185 4 14.444 4.74084 15.4106 6.19074C16.3725 7.63365 17 9.68461 17 12Z" stroke="#715894" stroke-width="2"/>
<rect x="3" y="11" width="18" height="2" fill="#715894"/>
<rect x="13" y="3" width="18" height="2" transform="rotate(90 13 3)" fill="#715894"/>
</svg>
