<svg width="284" height="284" viewBox="0 0 284 284" fill="none" xmlns="http://www.w3.org/2000/svg">
<g clip-path="url(#clip0_186_114958)">
<rect x="80.0001" y="120" width="2" height="2" fill="white" fill-opacity="0.1"/>
<rect x="80.0001" y="82" width="2" height="2" fill="white" fill-opacity="0.1"/>
<rect x="118" y="120" width="2" height="2" fill="white" fill-opacity="0.1"/>
<rect x="118" y="82" width="2" height="2" fill="white" fill-opacity="0.1"/>
<g opacity="0.3">
<rect x="-0.00012207" y="120" width="2" height="2" fill="white" fill-opacity="0.1"/>
<rect x="-0.00012207" y="82" width="2" height="2" fill="white" fill-opacity="0.1"/>
<rect x="37.9999" y="120" width="2" height="2" fill="white" fill-opacity="0.1"/>
<rect x="37.9999" y="82" width="2" height="2" fill="white" fill-opacity="0.1"/>
</g>
<g opacity="0.3">
<rect x="-0.00012207" y="201" width="2" height="2" fill="white" fill-opacity="0.1"/>
<rect x="-0.00012207" y="163" width="2" height="2" fill="white" fill-opacity="0.1"/>
<rect x="37.9999" y="201" width="2" height="2" fill="white" fill-opacity="0.1"/>
<rect x="37.9999" y="163" width="2" height="2" fill="white" fill-opacity="0.1"/>
</g>
<g opacity="0.3">
<rect x="80.0001" y="40" width="2" height="2" fill="white" fill-opacity="0.1"/>
<rect x="80.0001" y="2" width="2" height="2" fill="white" fill-opacity="0.1"/>
<rect x="118" y="40" width="2" height="2" fill="white" fill-opacity="0.1"/>
<rect x="118" y="2" width="2" height="2" fill="white" fill-opacity="0.1"/>
</g>
<g opacity="0.3">
<rect x="80.0001" y="280" width="2" height="2" fill="white" fill-opacity="0.1"/>
<rect x="80.0001" y="242" width="2" height="2" fill="white" fill-opacity="0.1"/>
<rect x="118" y="280" width="2" height="2" fill="white" fill-opacity="0.1"/>
<rect x="118" y="242" width="2" height="2" fill="white" fill-opacity="0.1"/>
</g>
<rect x="80.0001" y="200" width="2" height="2" fill="white" fill-opacity="0.1"/>
<rect x="80.0001" y="162" width="2" height="2" fill="white" fill-opacity="0.1"/>
<rect x="118" y="200" width="2" height="2" fill="white" fill-opacity="0.1"/>
<rect x="118" y="162" width="2" height="2" fill="white" fill-opacity="0.1"/>
<rect x="162" y="120" width="2" height="2" fill="white" fill-opacity="0.1"/>
<rect x="162" y="82" width="2" height="2" fill="white" fill-opacity="0.1"/>
<rect x="200" y="120" width="2" height="2" fill="white" fill-opacity="0.1"/>
<rect x="200" y="82" width="2" height="2" fill="white" fill-opacity="0.1"/>
<g opacity="0.3">
<rect x="242" y="120" width="2" height="2" fill="white" fill-opacity="0.1"/>
<rect x="242" y="82" width="2" height="2" fill="white" fill-opacity="0.1"/>
<rect x="280" y="120" width="2" height="2" fill="white" fill-opacity="0.1"/>
<rect x="280" y="82" width="2" height="2" fill="white" fill-opacity="0.1"/>
</g>
<g opacity="0.3">
<rect x="242" y="201" width="2" height="2" fill="white" fill-opacity="0.1"/>
<rect x="242" y="163" width="2" height="2" fill="white" fill-opacity="0.1"/>
<rect x="280" y="201" width="2" height="2" fill="white" fill-opacity="0.1"/>
<rect x="280" y="163" width="2" height="2" fill="white" fill-opacity="0.1"/>
</g>
<g opacity="0.3">
<rect x="162" y="40" width="2" height="2" fill="white" fill-opacity="0.1"/>
<rect x="162" y="2" width="2" height="2" fill="white" fill-opacity="0.1"/>
<rect x="200" y="40" width="2" height="2" fill="white" fill-opacity="0.1"/>
<rect x="200" y="2" width="2" height="2" fill="white" fill-opacity="0.1"/>
</g>
<g opacity="0.3">
<rect x="162" y="280" width="2" height="2" fill="white" fill-opacity="0.1"/>
<rect x="162" y="242" width="2" height="2" fill="white" fill-opacity="0.1"/>
<rect x="200" y="280" width="2" height="2" fill="white" fill-opacity="0.1"/>
<rect x="200" y="242" width="2" height="2" fill="white" fill-opacity="0.1"/>
</g>
<rect x="162" y="200" width="2" height="2" fill="white" fill-opacity="0.1"/>
<rect x="162" y="162" width="2" height="2" fill="white" fill-opacity="0.1"/>
<rect x="200" y="200" width="2" height="2" fill="white" fill-opacity="0.1"/>
<rect x="200" y="162" width="2" height="2" fill="white" fill-opacity="0.1"/>
<g filter="url(#filter0_f_186_114958)">
<circle cx="141" cy="142" r="85.4528" fill="url(#paint0_radial_186_114958)"/>
</g>
<g filter="url(#filter1_b_186_114958)">
<rect x="73" y="107" width="136" height="71" rx="6" fill="url(#paint1_radial_186_114958)"/>
<rect x="73.5" y="107.5" width="135" height="70" rx="5.5" stroke="url(#paint2_linear_186_114958)"/>
</g>
<g filter="url(#filter2_b_186_114958)">
<rect x="79" y="114" width="19" height="9" rx="4.5" fill="url(#paint3_radial_186_114958)"/>
<rect x="79.5" y="114.5" width="18" height="8" rx="4" stroke="url(#paint4_linear_186_114958)"/>
</g>
<g filter="url(#filter3_b_186_114958)">
<rect x="79" y="129" width="19" height="9" rx="4.5" fill="url(#paint5_radial_186_114958)"/>
<rect x="79.5" y="129.5" width="18" height="8" rx="4" stroke="url(#paint6_linear_186_114958)"/>
</g>
<g filter="url(#filter4_b_186_114958)">
<rect x="79" y="144" width="19" height="9" rx="4.5" fill="url(#paint7_radial_186_114958)"/>
<rect x="79.5" y="144.5" width="18" height="8" rx="4" stroke="url(#paint8_linear_186_114958)"/>
</g>
<g filter="url(#filter5_b_186_114958)">
<rect x="79" y="159" width="19" height="9" rx="4.5" fill="url(#paint9_radial_186_114958)"/>
<rect x="79.5" y="159.5" width="18" height="8" rx="4" stroke="url(#paint10_linear_186_114958)"/>
</g>
<g filter="url(#filter6_b_186_114958)">
<rect x="103" y="114" width="69" height="9" rx="4.5" fill="url(#paint11_radial_186_114958)"/>
<rect x="103.5" y="114.5" width="68" height="8" rx="4" stroke="url(#paint12_linear_186_114958)"/>
</g>
<g filter="url(#filter7_b_186_114958)">
<rect x="103" y="129" width="69" height="9" rx="4.5" fill="url(#paint13_radial_186_114958)"/>
<rect x="103.5" y="129.5" width="68" height="8" rx="4" stroke="url(#paint14_linear_186_114958)"/>
</g>
<g filter="url(#filter8_b_186_114958)">
<rect x="103" y="144" width="69" height="9" rx="4.5" fill="url(#paint15_radial_186_114958)"/>
<rect x="103.5" y="144.5" width="68" height="8" rx="4" stroke="url(#paint16_linear_186_114958)"/>
</g>
<g filter="url(#filter9_b_186_114958)">
<rect x="103" y="159" width="69" height="9" rx="4.5" fill="url(#paint17_radial_186_114958)"/>
<rect x="103.5" y="159.5" width="68" height="8" rx="4" stroke="url(#paint18_linear_186_114958)"/>
</g>
<g filter="url(#filter10_b_186_114958)">
<rect x="177" y="114" width="26" height="9" rx="4.5" fill="url(#paint19_radial_186_114958)"/>
<rect x="177.5" y="114.5" width="25" height="8" rx="4" stroke="url(#paint20_linear_186_114958)"/>
</g>
<g filter="url(#filter11_b_186_114958)">
<rect x="177" y="129" width="26" height="9" rx="4.5" fill="url(#paint21_radial_186_114958)"/>
<rect x="177.5" y="129.5" width="25" height="8" rx="4" stroke="url(#paint22_linear_186_114958)"/>
</g>
<g filter="url(#filter12_b_186_114958)">
<rect x="177" y="144" width="26" height="9" rx="4.5" fill="url(#paint23_radial_186_114958)"/>
<rect x="177.5" y="144.5" width="25" height="8" rx="4" stroke="url(#paint24_linear_186_114958)"/>
</g>
<g filter="url(#filter13_b_186_114958)">
<rect x="177" y="159" width="26" height="9" rx="4.5" fill="url(#paint25_radial_186_114958)"/>
<rect x="177.5" y="159.5" width="25" height="8" rx="4" stroke="url(#paint26_linear_186_114958)"/>
</g>
<path d="M55.7347 240.56L54.7627 240.668V228.5H57.0667V242H54.0427L44.5747 229.832L45.5287 229.724V242H43.2247V228.5H46.3207L55.7347 240.56ZM64.9455 242.252C63.7095 242.252 62.6235 242.03 61.6875 241.586C60.7635 241.13 60.0375 240.5 59.5095 239.696C58.9935 238.892 58.7355 237.962 58.7355 236.906C58.7355 235.838 58.9935 234.908 59.5095 234.116C60.0375 233.312 60.7635 232.688 61.6875 232.244C62.6235 231.788 63.7095 231.56 64.9455 231.56C66.1815 231.56 67.2615 231.788 68.1855 232.244C69.1215 232.688 69.8475 233.312 70.3635 234.116C70.8915 234.908 71.1555 235.838 71.1555 236.906C71.1555 237.962 70.8915 238.892 70.3635 239.696C69.8475 240.5 69.1215 241.13 68.1855 241.586C67.2615 242.03 66.1815 242.252 64.9455 242.252ZM64.9455 240.416C65.7375 240.416 66.4155 240.272 66.9795 239.984C67.5555 239.696 67.9995 239.294 68.3115 238.778C68.6235 238.25 68.7795 237.626 68.7795 236.906C68.7795 236.186 68.6235 235.568 68.3115 235.052C67.9995 234.524 67.5555 234.116 66.9795 233.828C66.4155 233.54 65.7375 233.396 64.9455 233.396C64.1655 233.396 63.4875 233.54 62.9115 233.828C62.3355 234.116 61.8915 234.524 61.5795 235.052C61.2675 235.568 61.1115 236.186 61.1115 236.906C61.1115 237.626 61.2675 238.25 61.5795 238.778C61.8915 239.294 62.3355 239.696 62.9115 239.984C63.4875 240.272 64.1655 240.416 64.9455 240.416ZM86.6052 242L86.2092 238.22L86.6772 236.906L86.2092 235.61L86.6052 231.812H89.0172L88.4772 236.906L89.0172 242H86.6052ZM87.3252 236.906C87.0972 237.974 86.7192 238.91 86.1912 239.714C85.6632 240.518 85.0092 241.142 84.2292 241.586C83.4612 242.03 82.6032 242.252 81.6552 242.252C80.6592 242.252 79.7772 242.03 79.0092 241.586C78.2412 241.13 77.6412 240.5 77.2092 239.696C76.7772 238.892 76.5612 237.962 76.5612 236.906C76.5612 235.838 76.7772 234.908 77.2092 234.116C77.6412 233.312 78.2412 232.688 79.0092 232.244C79.7772 231.788 80.6592 231.56 81.6552 231.56C82.6032 231.56 83.4612 231.782 84.2292 232.226C85.0092 232.67 85.6632 233.294 86.1912 234.098C86.7312 234.89 87.1092 235.826 87.3252 236.906ZM78.9372 236.906C78.9372 237.59 79.0752 238.196 79.3512 238.724C79.6392 239.24 80.0292 239.648 80.5212 239.948C81.0132 240.236 81.5772 240.38 82.2132 240.38C82.8612 240.38 83.4612 240.236 84.0132 239.948C84.5652 239.648 85.0512 239.24 85.4712 238.724C85.9032 238.196 86.2452 237.59 86.4972 236.906C86.2452 236.222 85.9032 235.622 85.4712 235.106C85.0512 234.578 84.5652 234.17 84.0132 233.882C83.4612 233.582 82.8612 233.432 82.2132 233.432C81.5772 233.432 81.0132 233.582 80.5212 233.882C80.0292 234.17 79.6392 234.578 79.3512 235.106C79.0752 235.622 78.9372 236.222 78.9372 236.906ZM102.159 237.986C102.039 238.826 101.709 239.57 101.169 240.218C100.629 240.854 99.9392 241.352 99.0992 241.712C98.2592 242.072 97.3232 242.252 96.2912 242.252C95.1152 242.252 94.0772 242.03 93.1772 241.586C92.2892 241.13 91.5932 240.5 91.0892 239.696C90.5852 238.892 90.3332 237.962 90.3332 236.906C90.3332 235.85 90.5852 234.92 91.0892 234.116C91.5932 233.312 92.2892 232.688 93.1772 232.244C94.0772 231.788 95.1152 231.56 96.2912 231.56C97.3232 231.56 98.2592 231.74 99.0992 232.1C99.9392 232.46 100.629 232.964 101.169 233.612C101.709 234.248 102.039 234.992 102.159 235.844H99.8012C99.6332 235.076 99.2312 234.476 98.5952 234.044C97.9592 233.612 97.1912 233.396 96.2912 233.396C95.5712 233.396 94.9412 233.54 94.4012 233.828C93.8612 234.104 93.4412 234.506 93.1412 235.034C92.8532 235.55 92.7092 236.174 92.7092 236.906C92.7092 237.626 92.8532 238.25 93.1412 238.778C93.4412 239.306 93.8612 239.714 94.4012 240.002C94.9412 240.278 95.5712 240.416 96.2912 240.416C97.2032 240.416 97.9772 240.194 98.6132 239.75C99.2492 239.306 99.6452 238.718 99.8012 237.986H102.159ZM102.317 233.612V232.55L104.495 231.992L105.467 229.148H106.835V231.812H111.569V233.612H106.835V238.022C106.835 238.874 107.015 239.474 107.375 239.822C107.747 240.158 108.347 240.326 109.175 240.326C109.703 240.326 110.171 240.272 110.579 240.164C110.987 240.044 111.377 239.876 111.749 239.66V241.586C111.437 241.742 110.993 241.892 110.417 242.036C109.853 242.18 109.271 242.252 108.671 242.252C107.675 242.252 106.871 242.09 106.259 241.766C105.647 241.43 105.197 240.974 104.909 240.398C104.633 239.81 104.495 239.138 104.495 238.382V233.612H102.317ZM113.093 231.74L114.263 231.956L115.433 231.74V242H113.093V231.74ZM114.263 230.462C113.819 230.462 113.453 230.342 113.165 230.102C112.877 229.85 112.733 229.526 112.733 229.13C112.733 228.734 112.877 228.416 113.165 228.176C113.453 227.924 113.819 227.798 114.263 227.798C114.719 227.798 115.085 227.924 115.361 228.176C115.649 228.416 115.793 228.734 115.793 229.13C115.793 229.526 115.649 229.85 115.361 230.102C115.085 230.342 114.719 230.462 114.263 230.462ZM123.184 242.252C121.948 242.252 120.862 242.03 119.926 241.586C119.002 241.13 118.276 240.5 117.748 239.696C117.232 238.892 116.974 237.962 116.974 236.906C116.974 235.838 117.232 234.908 117.748 234.116C118.276 233.312 119.002 232.688 119.926 232.244C120.862 231.788 121.948 231.56 123.184 231.56C124.42 231.56 125.5 231.788 126.424 232.244C127.36 232.688 128.086 233.312 128.602 234.116C129.13 234.908 129.394 235.838 129.394 236.906C129.394 237.962 129.13 238.892 128.602 239.696C128.086 240.5 127.36 241.13 126.424 241.586C125.5 242.03 124.42 242.252 123.184 242.252ZM123.184 240.416C123.976 240.416 124.654 240.272 125.218 239.984C125.794 239.696 126.238 239.294 126.55 238.778C126.862 238.25 127.018 237.626 127.018 236.906C127.018 236.186 126.862 235.568 126.55 235.052C126.238 234.524 125.794 234.116 125.218 233.828C124.654 233.54 123.976 233.396 123.184 233.396C122.404 233.396 121.726 233.54 121.15 233.828C120.574 234.116 120.13 234.524 119.818 235.052C119.506 235.568 119.35 236.186 119.35 236.906C119.35 237.626 119.506 238.25 119.818 238.778C120.13 239.294 120.574 239.696 121.15 239.984C121.726 240.272 122.404 240.416 123.184 240.416ZM130.45 231.812H132.79L133.402 235.484V242H131.062V235.142L130.45 231.812ZM137.452 231.56C138.412 231.56 139.228 231.752 139.9 232.136C140.572 232.52 141.082 233.072 141.43 233.792C141.79 234.5 141.97 235.358 141.97 236.366V242H139.63V236.744C139.63 235.676 139.378 234.872 138.874 234.332C138.382 233.78 137.656 233.504 136.696 233.504C136.036 233.504 135.454 233.654 134.95 233.954C134.458 234.242 134.074 234.65 133.798 235.178C133.534 235.706 133.402 236.324 133.402 237.032L132.574 236.582C132.682 235.526 132.958 234.626 133.402 233.882C133.846 233.138 134.416 232.568 135.112 232.172C135.808 231.764 136.588 231.56 137.452 231.56ZM154.501 238.904C154.501 239.588 154.309 240.182 153.925 240.686C153.541 241.19 152.959 241.58 152.179 241.856C151.399 242.12 150.421 242.252 149.245 242.252C148.033 242.252 146.983 242.102 146.095 241.802C145.207 241.49 144.517 241.058 144.025 240.506C143.545 239.942 143.287 239.294 143.251 238.562H145.627C145.699 238.946 145.891 239.288 146.203 239.588C146.527 239.876 146.947 240.098 147.463 240.254C147.991 240.41 148.591 240.488 149.263 240.488C150.235 240.488 150.967 240.374 151.459 240.146C151.951 239.906 152.197 239.546 152.197 239.066C152.197 238.742 152.029 238.496 151.693 238.328C151.369 238.16 150.751 238.034 149.839 237.95L147.841 237.77C146.761 237.674 145.909 237.482 145.285 237.194C144.661 236.894 144.217 236.534 143.953 236.114C143.689 235.682 143.557 235.226 143.557 234.746C143.557 234.05 143.773 233.468 144.205 233C144.637 232.532 145.237 232.178 146.005 231.938C146.773 231.686 147.667 231.56 148.687 231.56C149.743 231.56 150.685 231.71 151.513 232.01C152.341 232.298 153.001 232.706 153.493 233.234C153.985 233.75 154.261 234.35 154.321 235.034H151.945C151.897 234.758 151.753 234.494 151.513 234.242C151.285 233.978 150.931 233.762 150.451 233.594C149.983 233.414 149.353 233.324 148.561 233.324C147.721 233.324 147.061 233.432 146.581 233.648C146.113 233.864 145.879 234.182 145.879 234.602C145.879 234.866 146.023 235.094 146.311 235.286C146.599 235.466 147.133 235.592 147.913 235.664L150.487 235.898C151.519 235.994 152.323 236.18 152.899 236.456C153.487 236.72 153.901 237.062 154.141 237.482C154.381 237.902 154.501 238.376 154.501 238.904ZM160.442 228.14H162.782V242H160.442V228.14ZM166.832 231.56C167.792 231.56 168.608 231.752 169.28 232.136C169.952 232.52 170.462 233.072 170.81 233.792C171.17 234.5 171.35 235.358 171.35 236.366V242H169.01V236.744C169.01 235.676 168.758 234.872 168.254 234.332C167.762 233.78 167.036 233.504 166.076 233.504C165.416 233.504 164.834 233.654 164.33 233.954C163.838 234.242 163.454 234.65 163.178 235.178C162.914 235.706 162.782 236.324 162.782 237.032L161.954 236.582C162.062 235.526 162.338 234.626 162.782 233.882C163.226 233.138 163.796 232.568 164.492 232.172C165.188 231.764 165.968 231.56 166.832 231.56ZM178.898 242.252C177.71 242.252 176.654 242.03 175.73 241.586C174.806 241.13 174.08 240.5 173.552 239.696C173.024 238.892 172.76 237.956 172.76 236.888C172.76 235.832 173.006 234.908 173.498 234.116C174.002 233.312 174.692 232.688 175.568 232.244C176.456 231.788 177.47 231.56 178.61 231.56C179.75 231.56 180.734 231.818 181.562 232.334C182.402 232.838 183.05 233.552 183.506 234.476C183.962 235.4 184.19 236.486 184.19 237.734H174.596V235.952H183.02L181.85 236.618C181.814 235.946 181.652 235.37 181.364 234.89C181.088 234.41 180.71 234.044 180.23 233.792C179.762 233.528 179.204 233.396 178.556 233.396C177.872 233.396 177.272 233.534 176.756 233.81C176.252 234.086 175.856 234.476 175.568 234.98C175.28 235.472 175.136 236.06 175.136 236.744C175.136 237.5 175.304 238.154 175.64 238.706C175.988 239.258 176.474 239.684 177.098 239.984C177.734 240.272 178.484 240.416 179.348 240.416C180.128 240.416 180.926 240.296 181.742 240.056C182.558 239.804 183.278 239.456 183.902 239.012V240.704C183.278 241.184 182.516 241.562 181.616 241.838C180.728 242.114 179.822 242.252 178.898 242.252ZM185.269 231.812H187.609L188.221 235.52V242H185.881V235.07L185.269 231.812ZM193.387 231.74V233.792C193.123 233.72 192.835 233.666 192.523 233.63C192.211 233.594 191.917 233.576 191.641 233.576C190.981 233.576 190.393 233.72 189.877 234.008C189.361 234.296 188.953 234.728 188.653 235.304C188.365 235.868 188.221 236.564 188.221 237.392L187.681 236.726C187.729 236.006 187.849 235.334 188.041 234.71C188.245 234.074 188.521 233.522 188.869 233.054C189.229 232.586 189.667 232.22 190.183 231.956C190.699 231.692 191.299 231.56 191.983 231.56C192.223 231.56 192.469 231.578 192.721 231.614C192.973 231.638 193.195 231.68 193.387 231.74ZM199.658 242.252C198.47 242.252 197.414 242.03 196.49 241.586C195.566 241.13 194.84 240.5 194.312 239.696C193.784 238.892 193.52 237.956 193.52 236.888C193.52 235.832 193.766 234.908 194.258 234.116C194.762 233.312 195.452 232.688 196.328 232.244C197.216 231.788 198.23 231.56 199.37 231.56C200.51 231.56 201.494 231.818 202.322 232.334C203.162 232.838 203.81 233.552 204.266 234.476C204.722 235.4 204.95 236.486 204.95 237.734H195.356V235.952H203.78L202.61 236.618C202.574 235.946 202.412 235.37 202.124 234.89C201.848 234.41 201.47 234.044 200.99 233.792C200.522 233.528 199.964 233.396 199.316 233.396C198.632 233.396 198.032 233.534 197.516 233.81C197.012 234.086 196.616 234.476 196.328 234.98C196.04 235.472 195.896 236.06 195.896 236.744C195.896 237.5 196.064 238.154 196.4 238.706C196.748 239.258 197.234 239.684 197.858 239.984C198.494 240.272 199.244 240.416 200.108 240.416C200.888 240.416 201.686 240.296 202.502 240.056C203.318 239.804 204.038 239.456 204.662 239.012V240.704C204.038 241.184 203.276 241.562 202.376 241.838C201.488 242.114 200.582 242.252 199.658 242.252ZM212.805 245.222C212.205 245.222 211.659 245.144 211.167 244.988C210.687 244.844 210.237 244.64 209.817 244.376V242.594C210.273 242.882 210.705 243.092 211.113 243.224C211.533 243.356 212.001 243.422 212.517 243.422C213.009 243.422 213.447 243.308 213.831 243.08C214.215 242.864 214.533 242.48 214.785 241.928L219.375 231.812H221.859L216.585 242.72C216.297 243.32 215.955 243.8 215.559 244.16C215.175 244.532 214.749 244.802 214.281 244.97C213.825 245.138 213.333 245.222 212.805 245.222ZM213.975 241.676L209.295 231.812H211.869L216.297 241.676H213.975ZM227.899 242.252C226.711 242.252 225.655 242.03 224.731 241.586C223.807 241.13 223.081 240.5 222.553 239.696C222.025 238.892 221.761 237.956 221.761 236.888C221.761 235.832 222.007 234.908 222.499 234.116C223.003 233.312 223.693 232.688 224.569 232.244C225.457 231.788 226.471 231.56 227.611 231.56C228.751 231.56 229.735 231.818 230.563 232.334C231.403 232.838 232.051 233.552 232.507 234.476C232.963 235.4 233.191 236.486 233.191 237.734H223.597V235.952H232.021L230.851 236.618C230.815 235.946 230.653 235.37 230.365 234.89C230.089 234.41 229.711 234.044 229.231 233.792C228.763 233.528 228.205 233.396 227.557 233.396C226.873 233.396 226.273 233.534 225.757 233.81C225.253 234.086 224.857 234.476 224.569 234.98C224.281 235.472 224.137 236.06 224.137 236.744C224.137 237.5 224.305 238.154 224.641 238.706C224.989 239.258 225.475 239.684 226.099 239.984C226.735 240.272 227.485 240.416 228.349 240.416C229.129 240.416 229.927 240.296 230.743 240.056C231.559 239.804 232.279 239.456 232.903 239.012V240.704C232.279 241.184 231.517 241.562 230.617 241.838C229.729 242.114 228.823 242.252 227.899 242.252ZM233.393 233.612V232.55L235.571 231.992L236.543 229.148H237.911V231.812H242.645V233.612H237.911V238.022C237.911 238.874 238.091 239.474 238.451 239.822C238.823 240.158 239.423 240.326 240.251 240.326C240.779 240.326 241.247 240.272 241.655 240.164C242.063 240.044 242.453 239.876 242.825 239.66V241.586C242.513 241.742 242.069 241.892 241.493 242.036C240.929 242.18 240.347 242.252 239.747 242.252C238.751 242.252 237.947 242.09 237.335 241.766C236.723 241.43 236.273 240.974 235.985 240.398C235.709 239.81 235.571 239.138 235.571 238.382V233.612H233.393Z" fill="white"/>
<path d="M38.3219 257H37.0889C37.016 256.645 36.8884 256.334 36.7061 256.065C36.5271 255.797 36.3084 255.571 36.0499 255.389C35.7947 255.204 35.5113 255.064 35.1997 254.972C34.8882 254.879 34.5634 254.832 34.2253 254.832C33.6088 254.832 33.0503 254.988 32.5499 255.3C32.0527 255.611 31.6566 256.07 31.3617 256.677C31.07 257.283 30.9242 258.027 30.9242 258.909C30.9242 259.791 31.07 260.535 31.3617 261.141C31.6566 261.748 32.0527 262.207 32.5499 262.518C33.0503 262.83 33.6088 262.986 34.2253 262.986C34.5634 262.986 34.8882 262.939 35.1997 262.847C35.5113 262.754 35.7947 262.616 36.0499 262.434C36.3084 262.248 36.5271 262.021 36.7061 261.753C36.8884 261.481 37.016 261.17 37.0889 260.818H38.3219C38.2291 261.339 38.06 261.804 37.8148 262.215C37.5695 262.626 37.2646 262.976 36.9 263.264C36.5354 263.549 36.1261 263.766 35.672 263.915C35.2213 264.065 34.739 264.139 34.2253 264.139C33.3569 264.139 32.5847 263.927 31.9085 263.503C31.2324 263.079 30.7004 262.475 30.3126 261.693C29.9249 260.911 29.731 259.983 29.731 258.909C29.731 257.835 29.9249 256.907 30.3126 256.125C30.7004 255.343 31.2324 254.74 31.9085 254.315C32.5847 253.891 33.3569 253.679 34.2253 253.679C34.739 253.679 35.2213 253.754 35.672 253.903C36.1261 254.052 36.5354 254.271 36.9 254.559C37.2646 254.844 37.5695 255.192 37.8148 255.603C38.06 256.011 38.2291 256.476 38.3219 257ZM42.9774 264.159C42.288 264.159 41.6832 263.995 41.1628 263.667C40.6458 263.339 40.2414 262.88 39.9497 262.29C39.6614 261.7 39.5172 261.01 39.5172 260.222C39.5172 259.426 39.6614 258.732 39.9497 258.138C40.2414 257.545 40.6458 257.085 41.1628 256.756C41.6832 256.428 42.288 256.264 42.9774 256.264C43.6668 256.264 44.27 256.428 44.7871 256.756C45.3074 257.085 45.7118 257.545 46.0002 258.138C46.2918 258.732 46.4377 259.426 46.4377 260.222C46.4377 261.01 46.2918 261.7 46.0002 262.29C45.7118 262.88 45.3074 263.339 44.7871 263.667C44.27 263.995 43.6668 264.159 42.9774 264.159ZM42.9774 263.105C43.5011 263.105 43.932 262.971 44.27 262.702C44.6081 262.434 44.8583 262.081 45.0208 261.643C45.1832 261.206 45.2644 260.732 45.2644 260.222C45.2644 259.711 45.1832 259.236 45.0208 258.795C44.8583 258.354 44.6081 257.998 44.27 257.726C43.932 257.454 43.5011 257.318 42.9774 257.318C42.4538 257.318 42.0229 257.454 41.6848 257.726C41.3467 257.998 41.0965 258.354 40.9341 258.795C40.7717 259.236 40.6905 259.711 40.6905 260.222C40.6905 260.732 40.7717 261.206 40.9341 261.643C41.0965 262.081 41.3467 262.434 41.6848 262.702C42.0229 262.971 42.4538 263.105 42.9774 263.105ZM47.9487 264V256.364H49.0822V257.557H49.1816C49.3407 257.149 49.5976 256.833 49.9522 256.607C50.3069 256.379 50.7328 256.264 51.2299 256.264C51.7337 256.264 52.153 256.379 52.4877 256.607C52.8258 256.833 53.0893 257.149 53.2782 257.557H53.3578C53.5533 257.162 53.8466 256.849 54.2377 256.617C54.6288 256.382 55.0978 256.264 55.6447 256.264C56.3275 256.264 56.8859 256.478 57.3201 256.906C57.7543 257.33 57.9714 257.991 57.9714 258.889V264H56.7981V258.889C56.7981 258.326 56.644 257.923 56.3357 257.681C56.0275 257.439 55.6646 257.318 55.247 257.318C54.71 257.318 54.2941 257.481 53.9991 257.805C53.7041 258.127 53.5566 258.535 53.5566 259.028V264H52.3634V258.77C52.3634 258.336 52.2226 257.986 51.9409 257.721C51.6591 257.452 51.2962 257.318 50.8521 257.318C50.5472 257.318 50.2621 257.399 49.997 257.562C49.7351 257.724 49.523 257.95 49.3606 258.238C49.2015 258.523 49.122 258.853 49.122 259.227V264H47.9487ZM63.0383 264.159C62.3025 264.159 61.6678 263.997 61.1342 263.672C60.6039 263.344 60.1946 262.886 59.9062 262.3C59.6212 261.71 59.4787 261.024 59.4787 260.241C59.4787 259.459 59.6212 258.77 59.9062 258.173C60.1946 257.573 60.5956 257.106 61.1094 256.771C61.6264 256.433 62.2296 256.264 62.919 256.264C63.3168 256.264 63.7095 256.33 64.0973 256.463C64.4851 256.596 64.8381 256.811 65.1562 257.109C65.4744 257.404 65.728 257.795 65.9169 258.283C66.1058 258.77 66.2003 259.37 66.2003 260.082V260.58H60.3139V259.565H65.0071C65.0071 259.134 64.9209 258.75 64.7486 258.412C64.5795 258.074 64.3376 257.807 64.0227 257.612C63.7112 257.416 63.3433 257.318 62.919 257.318C62.4517 257.318 62.0473 257.434 61.706 257.666C61.3679 257.895 61.1077 258.193 60.9254 258.561C60.7431 258.929 60.652 259.323 60.652 259.744V260.42C60.652 260.997 60.7514 261.486 60.9503 261.887C61.1525 262.285 61.4325 262.588 61.7905 262.797C62.1484 263.002 62.5644 263.105 63.0383 263.105C63.3466 263.105 63.625 263.062 63.8736 262.976C64.1255 262.886 64.3426 262.754 64.5248 262.578C64.7071 262.399 64.848 262.177 64.9474 261.912L66.081 262.23C65.9616 262.615 65.7611 262.953 65.4794 263.244C65.1977 263.533 64.8497 263.758 64.4354 263.92C64.0211 264.08 63.5554 264.159 63.0383 264.159ZM71.5217 264V253.818H72.695V257.577H72.7944C72.8806 257.444 72.9999 257.275 73.1523 257.07C73.3081 256.861 73.5302 256.675 73.8185 256.513C74.1102 256.347 74.5046 256.264 75.0018 256.264C75.6448 256.264 76.2115 256.425 76.7021 256.746C77.1926 257.068 77.5754 257.524 77.8505 258.114C78.1256 258.704 78.2631 259.4 78.2631 260.202C78.2631 261.01 78.1256 261.711 77.8505 262.305C77.5754 262.895 77.1943 263.352 76.707 263.677C76.2198 263.998 75.658 264.159 75.0217 264.159C74.5311 264.159 74.1384 264.078 73.8434 263.915C73.5484 263.75 73.3214 263.562 73.1623 263.354C73.0032 263.142 72.8806 262.966 72.7944 262.827H72.6552V264H71.5217ZM72.6751 260.182C72.6751 260.759 72.7596 261.267 72.9286 261.708C73.0977 262.146 73.3446 262.489 73.6694 262.737C73.9942 262.982 74.3919 263.105 74.8626 263.105C75.3531 263.105 75.7624 262.976 76.0906 262.717C76.422 262.455 76.6706 262.104 76.8363 261.663C77.0053 261.219 77.0898 260.725 77.0898 260.182C77.0898 259.645 77.007 259.161 76.8413 258.73C76.6789 258.296 76.4319 257.953 76.1005 257.701C75.7724 257.446 75.3597 257.318 74.8626 257.318C74.3853 257.318 73.9843 257.439 73.6595 257.681C73.3346 257.92 73.0894 258.254 72.9237 258.685C72.7579 259.113 72.6751 259.612 72.6751 260.182ZM82.025 264.179C81.5411 264.179 81.102 264.088 80.7076 263.906C80.3132 263.72 80 263.453 79.7679 263.105C79.5359 262.754 79.4199 262.33 79.4199 261.832C79.4199 261.395 79.5061 261.04 79.6785 260.768C79.8508 260.493 80.0812 260.278 80.3695 260.122C80.6579 259.966 80.976 259.85 81.3241 259.774C81.6754 259.695 82.0284 259.632 82.383 259.585C82.847 259.526 83.2232 259.481 83.5116 259.451C83.8032 259.418 84.0153 259.363 84.1479 259.287C84.2838 259.211 84.3518 259.078 84.3518 258.889V258.849C84.3518 258.359 84.2175 257.978 83.9491 257.706C83.6839 257.434 83.2812 257.298 82.741 257.298C82.1808 257.298 81.7417 257.421 81.4235 257.666C81.1053 257.911 80.8816 258.173 80.7523 258.452L79.6387 258.054C79.8375 257.59 80.1027 257.229 80.4341 256.97C80.7689 256.708 81.1335 256.526 81.5279 256.423C81.9256 256.317 82.3167 256.264 82.7012 256.264C82.9464 256.264 83.2282 256.294 83.5464 256.354C83.8679 256.41 84.1777 256.528 84.476 256.707C84.7777 256.886 85.0279 257.156 85.2268 257.517C85.4256 257.878 85.525 258.362 85.525 258.969V264H84.3518V262.966H84.2921C84.2125 263.132 84.08 263.309 83.8944 263.498C83.7088 263.687 83.4618 263.848 83.1536 263.98C82.8454 264.113 82.4692 264.179 82.025 264.179ZM82.204 263.125C82.668 263.125 83.0591 263.034 83.3773 262.852C83.6988 262.669 83.9408 262.434 84.1032 262.146C84.2689 261.857 84.3518 261.554 84.3518 261.236V260.162C84.302 260.222 84.1927 260.276 84.0236 260.326C83.8579 260.372 83.6657 260.414 83.4469 260.45C83.2315 260.483 83.021 260.513 82.8155 260.54C82.6134 260.563 82.4493 260.583 82.3233 260.599C82.0184 260.639 81.7334 260.704 81.4682 260.793C81.2064 260.879 80.9943 261.01 80.8319 261.186C80.6728 261.358 80.5932 261.594 80.5932 261.892C80.5932 262.3 80.744 262.608 81.0456 262.817C81.3506 263.022 81.7367 263.125 82.204 263.125ZM90.4888 264.159C89.7729 264.159 89.1564 263.99 88.6394 263.652C88.1224 263.314 87.7246 262.848 87.4462 262.255C87.1678 261.662 87.0286 260.984 87.0286 260.222C87.0286 259.446 87.1711 258.762 87.4562 258.168C87.7445 257.572 88.1456 257.106 88.6593 256.771C89.1763 256.433 89.7796 256.264 90.4689 256.264C91.0059 256.264 91.4898 256.364 91.9207 256.562C92.3515 256.761 92.7045 257.04 92.9796 257.398C93.2547 257.756 93.4254 258.173 93.4917 258.651H92.3184C92.2289 258.303 92.03 257.994 91.7218 257.726C91.4169 257.454 91.0059 257.318 90.4888 257.318C90.0314 257.318 89.6304 257.437 89.2857 257.676C88.9443 257.911 88.6775 258.245 88.4853 258.675C88.2964 259.103 88.2019 259.605 88.2019 260.182C88.2019 260.772 88.2947 261.286 88.4803 261.723C88.6692 262.161 88.9344 262.5 89.2758 262.742C89.6205 262.984 90.0248 263.105 90.4888 263.105C90.7938 263.105 91.0705 263.052 91.3191 262.946C91.5677 262.84 91.7781 262.688 91.9505 262.489C92.1228 262.29 92.2455 262.051 92.3184 261.773H93.4917C93.4254 262.223 93.2613 262.629 92.9995 262.991C92.741 263.349 92.3979 263.634 91.9704 263.846C91.5461 264.055 91.0523 264.159 90.4888 264.159ZM96.0206 261.216L96.0007 259.764H96.2394L99.5803 256.364H101.032L97.4723 259.963H97.3729L96.0206 261.216ZM94.9269 264V253.818H96.1002V264H94.9269ZM99.7791 264L96.7962 260.222L97.6314 259.406L101.271 264H99.7791ZM107.093 253.818V264H105.92V253.818H107.093ZM111.209 264.179C110.725 264.179 110.286 264.088 109.892 263.906C109.497 263.72 109.184 263.453 108.952 263.105C108.72 262.754 108.604 262.33 108.604 261.832C108.604 261.395 108.69 261.04 108.862 260.768C109.035 260.493 109.265 260.278 109.553 260.122C109.842 259.966 110.16 259.85 110.508 259.774C110.859 259.695 111.212 259.632 111.567 259.585C112.031 259.526 112.407 259.481 112.696 259.451C112.987 259.418 113.199 259.363 113.332 259.287C113.468 259.211 113.536 259.078 113.536 258.889V258.849C113.536 258.359 113.402 257.978 113.133 257.706C112.868 257.434 112.465 257.298 111.925 257.298C111.365 257.298 110.926 257.421 110.607 257.666C110.289 257.911 110.066 258.173 109.936 258.452L108.823 258.054C109.022 257.59 109.287 257.229 109.618 256.97C109.953 256.708 110.317 256.526 110.712 256.423C111.11 256.317 111.501 256.264 111.885 256.264C112.13 256.264 112.412 256.294 112.73 256.354C113.052 256.41 113.362 256.528 113.66 256.707C113.962 256.886 114.212 257.156 114.411 257.517C114.61 257.878 114.709 258.362 114.709 258.969V264H113.536V262.966H113.476C113.397 263.132 113.264 263.309 113.078 263.498C112.893 263.687 112.646 263.848 112.338 263.98C112.029 264.113 111.653 264.179 111.209 264.179ZM111.388 263.125C111.852 263.125 112.243 263.034 112.561 262.852C112.883 262.669 113.125 262.434 113.287 262.146C113.453 261.857 113.536 261.554 113.536 261.236V260.162C113.486 260.222 113.377 260.276 113.208 260.326C113.042 260.372 112.85 260.414 112.631 260.45C112.415 260.483 112.205 260.513 112 260.54C111.797 260.563 111.633 260.583 111.507 260.599C111.202 260.639 110.917 260.704 110.652 260.793C110.39 260.879 110.178 261.01 110.016 261.186C109.857 261.358 109.777 261.594 109.777 261.892C109.777 262.3 109.928 262.608 110.23 262.817C110.535 263.022 110.921 263.125 111.388 263.125ZM119.892 256.364V257.358H115.934V256.364H119.892ZM117.088 254.534H118.261V261.812C118.261 262.144 118.309 262.393 118.405 262.558C118.504 262.721 118.63 262.83 118.783 262.886C118.939 262.939 119.103 262.966 119.275 262.966C119.404 262.966 119.51 262.959 119.593 262.946C119.676 262.929 119.742 262.916 119.792 262.906L120.031 263.96C119.951 263.99 119.84 264.02 119.698 264.05C119.555 264.083 119.375 264.099 119.156 264.099C118.824 264.099 118.5 264.028 118.181 263.886C117.866 263.743 117.605 263.526 117.396 263.234C117.19 262.943 117.088 262.575 117.088 262.131V254.534ZM124.496 264.159C123.76 264.159 123.126 263.997 122.592 263.672C122.062 263.344 121.652 262.886 121.364 262.3C121.079 261.71 120.936 261.024 120.936 260.241C120.936 259.459 121.079 258.77 121.364 258.173C121.652 257.573 122.053 257.106 122.567 256.771C123.084 256.433 123.687 256.264 124.377 256.264C124.775 256.264 125.167 256.33 125.555 256.463C125.943 256.596 126.296 256.811 126.614 257.109C126.932 257.404 127.186 257.795 127.375 258.283C127.564 258.77 127.658 259.37 127.658 260.082V260.58H121.772V259.565H126.465C126.465 259.134 126.379 258.75 126.206 258.412C126.037 258.074 125.795 257.807 125.481 257.612C125.169 257.416 124.801 257.318 124.377 257.318C123.91 257.318 123.505 257.434 123.164 257.666C122.826 257.895 122.566 258.193 122.383 258.561C122.201 258.929 122.11 259.323 122.11 259.744V260.42C122.11 260.997 122.209 261.486 122.408 261.887C122.61 262.285 122.89 262.588 123.248 262.797C123.606 263.002 124.022 263.105 124.496 263.105C124.804 263.105 125.083 263.062 125.331 262.976C125.583 262.886 125.8 262.754 125.983 262.578C126.165 262.399 126.306 262.177 126.405 261.912L127.539 262.23C127.419 262.615 127.219 262.953 126.937 263.244C126.655 263.533 126.307 263.758 125.893 263.92C125.479 264.08 125.013 264.159 124.496 264.159ZM129.163 264V256.364H130.296V257.517H130.376C130.515 257.139 130.767 256.833 131.132 256.597C131.496 256.362 131.907 256.244 132.365 256.244C132.451 256.244 132.558 256.246 132.688 256.249C132.817 256.253 132.915 256.258 132.981 256.264V257.457C132.941 257.447 132.85 257.433 132.708 257.413C132.568 257.389 132.421 257.378 132.265 257.378C131.894 257.378 131.563 257.456 131.271 257.612C130.982 257.764 130.754 257.976 130.585 258.248C130.419 258.516 130.336 258.823 130.336 259.168V264H129.163ZM141.07 256.364V257.358H137.113V256.364H141.07ZM138.266 254.534H139.44V261.812C139.44 262.144 139.488 262.393 139.584 262.558C139.683 262.721 139.809 262.83 139.962 262.886C140.118 262.939 140.282 262.966 140.454 262.966C140.583 262.966 140.689 262.959 140.772 262.946C140.855 262.929 140.921 262.916 140.971 262.906L141.21 263.96C141.13 263.99 141.019 264.02 140.877 264.05C140.734 264.083 140.553 264.099 140.335 264.099C140.003 264.099 139.678 264.028 139.36 263.886C139.045 263.743 138.783 263.526 138.575 263.234C138.369 262.943 138.266 262.575 138.266 262.131V254.534ZM145.576 264.159C144.886 264.159 144.281 263.995 143.761 263.667C143.244 263.339 142.84 262.88 142.548 262.29C142.259 261.7 142.115 261.01 142.115 260.222C142.115 259.426 142.259 258.732 142.548 258.138C142.84 257.545 143.244 257.085 143.761 256.756C144.281 256.428 144.886 256.264 145.576 256.264C146.265 256.264 146.868 256.428 147.385 256.756C147.906 257.085 148.31 257.545 148.598 258.138C148.89 258.732 149.036 259.426 149.036 260.222C149.036 261.01 148.89 261.7 148.598 262.29C148.31 262.88 147.906 263.339 147.385 263.667C146.868 263.995 146.265 264.159 145.576 264.159ZM145.576 263.105C146.099 263.105 146.53 262.971 146.868 262.702C147.206 262.434 147.456 262.081 147.619 261.643C147.781 261.206 147.862 260.732 147.862 260.222C147.862 259.711 147.781 259.236 147.619 258.795C147.456 258.354 147.206 257.998 146.868 257.726C146.53 257.454 146.099 257.318 145.576 257.318C145.052 257.318 144.621 257.454 144.283 257.726C143.945 257.998 143.695 258.354 143.532 258.795C143.37 259.236 143.289 259.711 143.289 260.222C143.289 260.732 143.37 261.206 143.532 261.643C143.695 262.081 143.945 262.434 144.283 262.702C144.621 262.971 145.052 263.105 145.576 263.105ZM159.613 258.074L158.559 258.372C158.493 258.196 158.395 258.026 158.266 257.86C158.14 257.691 157.968 257.552 157.749 257.442C157.53 257.333 157.25 257.278 156.909 257.278C156.442 257.278 156.052 257.386 155.741 257.602C155.432 257.814 155.278 258.084 155.278 258.412C155.278 258.704 155.384 258.934 155.596 259.103C155.808 259.272 156.14 259.413 156.591 259.526L157.724 259.804C158.407 259.97 158.916 260.223 159.25 260.565C159.585 260.903 159.753 261.339 159.753 261.872C159.753 262.31 159.627 262.701 159.375 263.045C159.126 263.39 158.778 263.662 158.331 263.861C157.883 264.06 157.363 264.159 156.77 264.159C155.991 264.159 155.346 263.99 154.836 263.652C154.325 263.314 154.002 262.82 153.866 262.17L154.98 261.892C155.086 262.303 155.286 262.611 155.581 262.817C155.88 263.022 156.269 263.125 156.75 263.125C157.297 263.125 157.731 263.009 158.052 262.777C158.377 262.542 158.54 262.26 158.54 261.932C158.54 261.667 158.447 261.445 158.261 261.266C158.076 261.083 157.79 260.947 157.406 260.858L156.133 260.56C155.434 260.394 154.92 260.137 154.592 259.789C154.267 259.438 154.105 258.999 154.105 258.472C154.105 258.041 154.226 257.66 154.468 257.328C154.713 256.997 155.046 256.737 155.467 256.548C155.891 256.359 156.372 256.264 156.909 256.264C157.665 256.264 158.258 256.43 158.689 256.761C159.123 257.093 159.431 257.53 159.613 258.074ZM164.44 264.159C163.705 264.159 163.07 263.997 162.536 263.672C162.006 263.344 161.597 262.886 161.308 262.3C161.023 261.71 160.881 261.024 160.881 260.241C160.881 259.459 161.023 258.77 161.308 258.173C161.597 257.573 161.998 257.106 162.511 256.771C163.029 256.433 163.632 256.264 164.321 256.264C164.719 256.264 165.112 256.33 165.499 256.463C165.887 256.596 166.24 256.811 166.558 257.109C166.877 257.404 167.13 257.795 167.319 258.283C167.508 258.77 167.602 259.37 167.602 260.082V260.58H161.716V259.565H166.409C166.409 259.134 166.323 258.75 166.151 258.412C165.982 258.074 165.74 257.807 165.425 257.612C165.113 257.416 164.745 257.318 164.321 257.318C163.854 257.318 163.449 257.434 163.108 257.666C162.77 257.895 162.51 258.193 162.328 258.561C162.145 258.929 162.054 259.323 162.054 259.744V260.42C162.054 260.997 162.154 261.486 162.352 261.887C162.555 262.285 162.835 262.588 163.193 262.797C163.551 263.002 163.966 263.105 164.44 263.105C164.749 263.105 165.027 263.062 165.276 262.976C165.528 262.886 165.745 262.754 165.927 262.578C166.109 262.399 166.25 262.177 166.35 261.912L167.483 262.23C167.364 262.615 167.163 262.953 166.882 263.244C166.6 263.533 166.252 263.758 165.837 263.92C165.423 264.08 164.958 264.159 164.44 264.159ZM172.309 264.159C171.573 264.159 170.938 263.997 170.405 263.672C169.874 263.344 169.465 262.886 169.177 262.3C168.892 261.71 168.749 261.024 168.749 260.241C168.749 259.459 168.892 258.77 169.177 258.173C169.465 257.573 169.866 257.106 170.38 256.771C170.897 256.433 171.5 256.264 172.19 256.264C172.587 256.264 172.98 256.33 173.368 256.463C173.756 256.596 174.109 256.811 174.427 257.109C174.745 257.404 174.999 257.795 175.187 258.283C175.376 258.77 175.471 259.37 175.471 260.082V260.58H169.584V259.565H174.278C174.278 259.134 174.191 258.75 174.019 258.412C173.85 258.074 173.608 257.807 173.293 257.612C172.982 257.416 172.614 257.318 172.19 257.318C171.722 257.318 171.318 257.434 170.977 257.666C170.638 257.895 170.378 258.193 170.196 258.561C170.014 258.929 169.923 259.323 169.923 259.744V260.42C169.923 260.997 170.022 261.486 170.221 261.887C170.423 262.285 170.703 262.588 171.061 262.797C171.419 263.002 171.835 263.105 172.309 263.105C172.617 263.105 172.896 263.062 173.144 262.976C173.396 262.886 173.613 262.754 173.795 262.578C173.978 262.399 174.119 262.177 174.218 261.912L175.352 262.23C175.232 262.615 175.032 262.953 174.75 263.244C174.468 263.533 174.12 263.758 173.706 263.92C173.292 264.08 172.826 264.159 172.309 264.159ZM181.806 259.406V264H180.633V256.364H181.767V257.557H181.866C182.045 257.169 182.317 256.857 182.681 256.622C183.046 256.384 183.517 256.264 184.093 256.264C184.61 256.264 185.063 256.37 185.451 256.582C185.838 256.791 186.14 257.109 186.355 257.537C186.571 257.961 186.679 258.498 186.679 259.148V264H185.505V259.227C185.505 258.627 185.35 258.16 185.038 257.825C184.726 257.487 184.299 257.318 183.755 257.318C183.381 257.318 183.046 257.399 182.751 257.562C182.459 257.724 182.229 257.961 182.06 258.273C181.891 258.584 181.806 258.962 181.806 259.406ZM191.744 264.159C191.008 264.159 190.374 263.997 189.84 263.672C189.31 263.344 188.901 262.886 188.612 262.3C188.327 261.71 188.185 261.024 188.185 260.241C188.185 259.459 188.327 258.77 188.612 258.173C188.901 257.573 189.302 257.106 189.815 256.771C190.332 256.433 190.936 256.264 191.625 256.264C192.023 256.264 192.415 256.33 192.803 256.463C193.191 256.596 193.544 256.811 193.862 257.109C194.18 257.404 194.434 257.795 194.623 258.283C194.812 258.77 194.906 259.37 194.906 260.082V260.58H189.02V259.565H193.713C193.713 259.134 193.627 258.75 193.455 258.412C193.285 258.074 193.044 257.807 192.729 257.612C192.417 257.416 192.049 257.318 191.625 257.318C191.158 257.318 190.753 257.434 190.412 257.666C190.074 257.895 189.814 258.193 189.631 258.561C189.449 258.929 189.358 259.323 189.358 259.744V260.42C189.358 260.997 189.457 261.486 189.656 261.887C189.858 262.285 190.138 262.588 190.496 262.797C190.854 263.002 191.27 263.105 191.744 263.105C192.053 263.105 192.331 263.062 192.58 262.976C192.831 262.886 193.049 262.754 193.231 262.578C193.413 262.399 193.554 262.177 193.653 261.912L194.787 262.23C194.668 262.615 194.467 262.953 194.185 263.244C193.904 263.533 193.556 263.758 193.141 263.92C192.727 264.08 192.261 264.159 191.744 264.159ZM198.141 264L195.814 256.364H197.047L198.698 262.21H198.777L200.408 256.364H201.661L203.272 262.19H203.351L205.002 256.364H206.235L203.908 264H202.755L201.084 258.134H200.965L199.295 264H198.141ZM213.411 264.179C212.927 264.179 212.488 264.088 212.093 263.906C211.699 263.72 211.386 263.453 211.154 263.105C210.922 262.754 210.806 262.33 210.806 261.832C210.806 261.395 210.892 261.04 211.064 260.768C211.236 260.493 211.467 260.278 211.755 260.122C212.043 259.966 212.362 259.85 212.71 259.774C213.061 259.695 213.414 259.632 213.769 259.585C214.233 259.526 214.609 259.481 214.897 259.451C215.189 259.418 215.401 259.363 215.534 259.287C215.669 259.211 215.737 259.078 215.737 258.889V258.849C215.737 258.359 215.603 257.978 215.335 257.706C215.07 257.434 214.667 257.298 214.127 257.298C213.566 257.298 213.127 257.421 212.809 257.666C212.491 257.911 212.267 258.173 212.138 258.452L211.024 258.054C211.223 257.59 211.488 257.229 211.82 256.97C212.155 256.708 212.519 256.526 212.914 256.423C213.311 256.317 213.702 256.264 214.087 256.264C214.332 256.264 214.614 256.294 214.932 256.354C215.253 256.41 215.563 256.528 215.862 256.707C216.163 256.886 216.414 257.156 216.612 257.517C216.811 257.878 216.911 258.362 216.911 258.969V264H215.737V262.966H215.678C215.598 263.132 215.466 263.309 215.28 263.498C215.094 263.687 214.847 263.848 214.539 263.98C214.231 264.113 213.855 264.179 213.411 264.179ZM213.59 263.125C214.054 263.125 214.445 263.034 214.763 262.852C215.084 262.669 215.326 262.434 215.489 262.146C215.655 261.857 215.737 261.554 215.737 261.236V260.162C215.688 260.222 215.578 260.276 215.409 260.326C215.244 260.372 215.051 260.414 214.833 260.45C214.617 260.483 214.407 260.513 214.201 260.54C213.999 260.563 213.835 260.583 213.709 260.599C213.404 260.639 213.119 260.704 212.854 260.793C212.592 260.879 212.38 261.01 212.218 261.186C212.058 261.358 211.979 261.594 211.979 261.892C211.979 262.3 212.13 262.608 212.431 262.817C212.736 263.022 213.122 263.125 213.59 263.125ZM221.874 264.159C221.159 264.159 220.542 263.99 220.025 263.652C219.508 263.314 219.11 262.848 218.832 262.255C218.553 261.662 218.414 260.984 218.414 260.222C218.414 259.446 218.557 258.762 218.842 258.168C219.13 257.572 219.531 257.106 220.045 256.771C220.562 256.433 221.165 256.264 221.855 256.264C222.392 256.264 222.875 256.364 223.306 256.562C223.737 256.761 224.09 257.04 224.365 257.398C224.64 257.756 224.811 258.173 224.877 258.651H223.704C223.615 258.303 223.416 257.994 223.107 257.726C222.803 257.454 222.392 257.318 221.874 257.318C221.417 257.318 221.016 257.437 220.671 257.676C220.33 257.911 220.063 258.245 219.871 258.675C219.682 259.103 219.588 259.605 219.588 260.182C219.588 260.772 219.68 261.286 219.866 261.723C220.055 262.161 220.32 262.5 220.661 262.742C221.006 262.984 221.41 263.105 221.874 263.105C222.179 263.105 222.456 263.052 222.705 262.946C222.953 262.84 223.164 262.688 223.336 262.489C223.508 262.29 223.631 262.051 223.704 261.773H224.877C224.811 262.223 224.647 262.629 224.385 262.991C224.127 263.349 223.784 263.634 223.356 263.846C222.932 264.055 222.438 264.159 221.874 264.159ZM229.634 256.364V257.358H225.676V256.364H229.634ZM226.83 254.534H228.003V261.812C228.003 262.144 228.051 262.393 228.147 262.558C228.246 262.721 228.372 262.83 228.525 262.886C228.681 262.939 228.845 262.966 229.017 262.966C229.146 262.966 229.252 262.959 229.335 262.946C229.418 262.929 229.484 262.916 229.534 262.906L229.773 263.96C229.693 263.99 229.582 264.02 229.44 264.05C229.297 264.083 229.116 264.099 228.898 264.099C228.566 264.099 228.241 264.028 227.923 263.886C227.608 263.743 227.347 263.526 227.138 263.234C226.932 262.943 226.83 262.575 226.83 262.131V254.534ZM231.118 264V256.364H232.292V264H231.118ZM231.715 255.091C231.486 255.091 231.289 255.013 231.123 254.857C230.961 254.701 230.88 254.514 230.88 254.295C230.88 254.077 230.961 253.889 231.123 253.734C231.289 253.578 231.486 253.5 231.715 253.5C231.944 253.5 232.139 253.578 232.302 253.734C232.467 253.889 232.55 254.077 232.55 254.295C232.55 254.514 232.467 254.701 232.302 254.857C232.139 255.013 231.944 255.091 231.715 255.091ZM237.263 264.159C236.574 264.159 235.969 263.995 235.448 263.667C234.931 263.339 234.527 262.88 234.235 262.29C233.947 261.7 233.803 261.01 233.803 260.222C233.803 259.426 233.947 258.732 234.235 258.138C234.527 257.545 234.931 257.085 235.448 256.756C235.969 256.428 236.574 256.264 237.263 256.264C237.952 256.264 238.556 256.428 239.073 256.756C239.593 257.085 239.997 257.545 240.286 258.138C240.577 258.732 240.723 259.426 240.723 260.222C240.723 261.01 240.577 261.7 240.286 262.29C239.997 262.88 239.593 263.339 239.073 263.667C238.556 263.995 237.952 264.159 237.263 264.159ZM237.263 263.105C237.787 263.105 238.218 262.971 238.556 262.702C238.894 262.434 239.144 262.081 239.306 261.643C239.469 261.206 239.55 260.732 239.55 260.222C239.55 259.711 239.469 259.236 239.306 258.795C239.144 258.354 238.894 257.998 238.556 257.726C238.218 257.454 237.787 257.318 237.263 257.318C236.739 257.318 236.308 257.454 235.97 257.726C235.632 257.998 235.382 258.354 235.22 258.795C235.057 259.236 234.976 259.711 234.976 260.222C234.976 260.732 235.057 261.206 235.22 261.643C235.382 262.081 235.632 262.434 235.97 262.702C236.308 262.971 236.739 263.105 237.263 263.105ZM243.407 259.406V264H242.234V256.364H243.368V257.557H243.467C243.646 257.169 243.918 256.857 244.282 256.622C244.647 256.384 245.118 256.264 245.694 256.264C246.211 256.264 246.664 256.37 247.052 256.582C247.439 256.791 247.741 257.109 247.957 257.537C248.172 257.961 248.28 258.498 248.28 259.148V264H247.106V259.227C247.106 258.627 246.951 258.16 246.639 257.825C246.327 257.487 245.9 257.318 245.356 257.318C244.982 257.318 244.647 257.399 244.352 257.562C244.06 257.724 243.83 257.961 243.661 258.273C243.492 258.584 243.407 258.962 243.407 259.406ZM255.553 258.074L254.499 258.372C254.432 258.196 254.335 258.026 254.205 257.86C254.08 257.691 253.907 257.552 253.688 257.442C253.47 257.333 253.19 257.278 252.848 257.278C252.381 257.278 251.991 257.386 251.68 257.602C251.372 257.814 251.218 258.084 251.218 258.412C251.218 258.704 251.324 258.934 251.536 259.103C251.748 259.272 252.079 259.413 252.53 259.526L253.664 259.804C254.346 259.97 254.855 260.223 255.19 260.565C255.525 260.903 255.692 261.339 255.692 261.872C255.692 262.31 255.566 262.701 255.314 263.045C255.066 263.39 254.718 263.662 254.27 263.861C253.823 264.06 253.302 264.159 252.709 264.159C251.93 264.159 251.285 263.99 250.775 263.652C250.265 263.314 249.941 262.82 249.806 262.17L250.919 261.892C251.025 262.303 251.226 262.611 251.521 262.817C251.819 263.022 252.209 263.125 252.689 263.125C253.236 263.125 253.67 263.009 253.992 262.777C254.316 262.542 254.479 262.26 254.479 261.932C254.479 261.667 254.386 261.445 254.2 261.266C254.015 261.083 253.73 260.947 253.345 260.858L252.073 260.56C251.373 260.394 250.86 260.137 250.531 259.789C250.207 259.438 250.044 258.999 250.044 258.472C250.044 258.041 250.165 257.66 250.407 257.328C250.652 256.997 250.986 256.737 251.406 256.548C251.831 256.359 252.311 256.264 252.848 256.264C253.604 256.264 254.197 256.43 254.628 256.761C255.062 257.093 255.37 257.53 255.553 258.074ZM130.395 276.406V281H129.221V270.818H130.395V274.557H130.494C130.673 274.162 130.942 273.849 131.3 273.617C131.661 273.382 132.141 273.264 132.741 273.264C133.262 273.264 133.717 273.369 134.108 273.577C134.5 273.783 134.803 274.099 135.018 274.527C135.237 274.951 135.346 275.491 135.346 276.148V281H134.173V276.227C134.173 275.621 134.016 275.152 133.701 274.82C133.389 274.486 132.957 274.318 132.403 274.318C132.019 274.318 131.674 274.399 131.369 274.562C131.068 274.724 130.829 274.961 130.653 275.273C130.481 275.584 130.395 275.962 130.395 276.406ZM140.415 281.159C139.679 281.159 139.044 280.997 138.51 280.672C137.98 280.344 137.571 279.886 137.282 279.3C136.997 278.71 136.855 278.024 136.855 277.241C136.855 276.459 136.997 275.77 137.282 275.173C137.571 274.573 137.972 274.106 138.486 273.771C139.003 273.433 139.606 273.264 140.295 273.264C140.693 273.264 141.086 273.33 141.474 273.463C141.861 273.596 142.214 273.811 142.532 274.109C142.851 274.404 143.104 274.795 143.293 275.283C143.482 275.77 143.577 276.37 143.577 277.082V277.58H137.69V276.565H142.383C142.383 276.134 142.297 275.75 142.125 275.412C141.956 275.074 141.714 274.807 141.399 274.612C141.087 274.416 140.72 274.318 140.295 274.318C139.828 274.318 139.424 274.434 139.082 274.666C138.744 274.895 138.484 275.193 138.302 275.561C138.119 275.929 138.028 276.323 138.028 276.744V277.42C138.028 277.997 138.128 278.486 138.327 278.887C138.529 279.285 138.809 279.588 139.167 279.797C139.525 280.002 139.941 280.105 140.415 280.105C140.723 280.105 141.001 280.062 141.25 279.976C141.502 279.886 141.719 279.754 141.901 279.578C142.083 279.399 142.224 279.177 142.324 278.912L143.457 279.23C143.338 279.615 143.137 279.953 142.856 280.244C142.574 280.533 142.226 280.758 141.812 280.92C141.397 281.08 140.932 281.159 140.415 281.159ZM145.081 281V273.364H146.215V274.517H146.294C146.434 274.139 146.685 273.833 147.05 273.597C147.415 273.362 147.826 273.244 148.283 273.244C148.369 273.244 148.477 273.246 148.606 273.249C148.735 273.253 148.833 273.258 148.9 273.264V274.457C148.86 274.447 148.769 274.433 148.626 274.413C148.487 274.389 148.339 274.378 148.184 274.378C147.812 274.378 147.481 274.456 147.189 274.612C146.901 274.764 146.672 274.976 146.503 275.248C146.337 275.516 146.255 275.823 146.255 276.168V281H145.081ZM152.98 281.159C152.244 281.159 151.609 280.997 151.075 280.672C150.545 280.344 150.136 279.886 149.847 279.3C149.562 278.71 149.42 278.024 149.42 277.241C149.42 276.459 149.562 275.77 149.847 275.173C150.136 274.573 150.537 274.106 151.051 273.771C151.568 273.433 152.171 273.264 152.86 273.264C153.258 273.264 153.651 273.33 154.039 273.463C154.426 273.596 154.779 273.811 155.097 274.109C155.416 274.404 155.669 274.795 155.858 275.283C156.047 275.77 156.142 276.37 156.142 277.082V277.58H150.255V276.565H154.948C154.948 276.134 154.862 275.75 154.69 275.412C154.521 275.074 154.279 274.807 153.964 274.612C153.652 274.416 153.285 274.318 152.86 274.318C152.393 274.318 151.989 274.434 151.647 274.666C151.309 274.895 151.049 275.193 150.867 275.561C150.684 275.929 150.593 276.323 150.593 276.744V277.42C150.593 277.997 150.693 278.486 150.892 278.887C151.094 279.285 151.374 279.588 151.732 279.797C152.09 280.002 152.506 280.105 152.98 280.105C153.288 280.105 153.566 280.062 153.815 279.976C154.067 279.886 154.284 279.754 154.466 279.578C154.648 279.399 154.789 279.177 154.889 278.912L156.022 279.23C155.903 279.615 155.702 279.953 155.421 280.244C155.139 280.533 154.791 280.758 154.377 280.92C153.962 281.08 153.497 281.159 152.98 281.159Z" fill="white" fill-opacity="0.6"/>
</g>
<defs>
<filter id="filter0_f_186_114958" x="-22.6532" y="-21.6531" width="327.306" height="327.305" filterUnits="userSpaceOnUse" color-interpolation-filters="sRGB">
<feFlood flood-opacity="0" result="BackgroundImageFix"/>
<feBlend mode="normal" in="SourceGraphic" in2="BackgroundImageFix" result="shape"/>
<feGaussianBlur stdDeviation="39.1" result="effect1_foregroundBlur_186_114958"/>
</filter>
<filter id="filter1_b_186_114958" x="-32.8" y="1.2" width="347.6" height="282.6" filterUnits="userSpaceOnUse" color-interpolation-filters="sRGB">
<feFlood flood-opacity="0" result="BackgroundImageFix"/>
<feGaussianBlur in="BackgroundImageFix" stdDeviation="52.9"/>
<feComposite in2="SourceAlpha" operator="in" result="effect1_backgroundBlur_186_114958"/>
<feBlend mode="normal" in="SourceGraphic" in2="effect1_backgroundBlur_186_114958" result="shape"/>
</filter>
<filter id="filter2_b_186_114958" x="-26.8" y="8.2" width="230.6" height="220.6" filterUnits="userSpaceOnUse" color-interpolation-filters="sRGB">
<feFlood flood-opacity="0" result="BackgroundImageFix"/>
<feGaussianBlur in="BackgroundImageFix" stdDeviation="52.9"/>
<feComposite in2="SourceAlpha" operator="in" result="effect1_backgroundBlur_186_114958"/>
<feBlend mode="normal" in="SourceGraphic" in2="effect1_backgroundBlur_186_114958" result="shape"/>
</filter>
<filter id="filter3_b_186_114958" x="-26.8" y="23.2" width="230.6" height="220.6" filterUnits="userSpaceOnUse" color-interpolation-filters="sRGB">
<feFlood flood-opacity="0" result="BackgroundImageFix"/>
<feGaussianBlur in="BackgroundImageFix" stdDeviation="52.9"/>
<feComposite in2="SourceAlpha" operator="in" result="effect1_backgroundBlur_186_114958"/>
<feBlend mode="normal" in="SourceGraphic" in2="effect1_backgroundBlur_186_114958" result="shape"/>
</filter>
<filter id="filter4_b_186_114958" x="-26.8" y="38.2" width="230.6" height="220.6" filterUnits="userSpaceOnUse" color-interpolation-filters="sRGB">
<feFlood flood-opacity="0" result="BackgroundImageFix"/>
<feGaussianBlur in="BackgroundImageFix" stdDeviation="52.9"/>
<feComposite in2="SourceAlpha" operator="in" result="effect1_backgroundBlur_186_114958"/>
<feBlend mode="normal" in="SourceGraphic" in2="effect1_backgroundBlur_186_114958" result="shape"/>
</filter>
<filter id="filter5_b_186_114958" x="-26.8" y="53.2" width="230.6" height="220.6" filterUnits="userSpaceOnUse" color-interpolation-filters="sRGB">
<feFlood flood-opacity="0" result="BackgroundImageFix"/>
<feGaussianBlur in="BackgroundImageFix" stdDeviation="52.9"/>
<feComposite in2="SourceAlpha" operator="in" result="effect1_backgroundBlur_186_114958"/>
<feBlend mode="normal" in="SourceGraphic" in2="effect1_backgroundBlur_186_114958" result="shape"/>
</filter>
<filter id="filter6_b_186_114958" x="-2.8" y="8.2" width="280.6" height="220.6" filterUnits="userSpaceOnUse" color-interpolation-filters="sRGB">
<feFlood flood-opacity="0" result="BackgroundImageFix"/>
<feGaussianBlur in="BackgroundImageFix" stdDeviation="52.9"/>
<feComposite in2="SourceAlpha" operator="in" result="effect1_backgroundBlur_186_114958"/>
<feBlend mode="normal" in="SourceGraphic" in2="effect1_backgroundBlur_186_114958" result="shape"/>
</filter>
<filter id="filter7_b_186_114958" x="-2.8" y="23.2" width="280.6" height="220.6" filterUnits="userSpaceOnUse" color-interpolation-filters="sRGB">
<feFlood flood-opacity="0" result="BackgroundImageFix"/>
<feGaussianBlur in="BackgroundImageFix" stdDeviation="52.9"/>
<feComposite in2="SourceAlpha" operator="in" result="effect1_backgroundBlur_186_114958"/>
<feBlend mode="normal" in="SourceGraphic" in2="effect1_backgroundBlur_186_114958" result="shape"/>
</filter>
<filter id="filter8_b_186_114958" x="-2.8" y="38.2" width="280.6" height="220.6" filterUnits="userSpaceOnUse" color-interpolation-filters="sRGB">
<feFlood flood-opacity="0" result="BackgroundImageFix"/>
<feGaussianBlur in="BackgroundImageFix" stdDeviation="52.9"/>
<feComposite in2="SourceAlpha" operator="in" result="effect1_backgroundBlur_186_114958"/>
<feBlend mode="normal" in="SourceGraphic" in2="effect1_backgroundBlur_186_114958" result="shape"/>
</filter>
<filter id="filter9_b_186_114958" x="-2.8" y="53.2" width="280.6" height="220.6" filterUnits="userSpaceOnUse" color-interpolation-filters="sRGB">
<feFlood flood-opacity="0" result="BackgroundImageFix"/>
<feGaussianBlur in="BackgroundImageFix" stdDeviation="52.9"/>
<feComposite in2="SourceAlpha" operator="in" result="effect1_backgroundBlur_186_114958"/>
<feBlend mode="normal" in="SourceGraphic" in2="effect1_backgroundBlur_186_114958" result="shape"/>
</filter>
<filter id="filter10_b_186_114958" x="71.2" y="8.2" width="237.6" height="220.6" filterUnits="userSpaceOnUse" color-interpolation-filters="sRGB">
<feFlood flood-opacity="0" result="BackgroundImageFix"/>
<feGaussianBlur in="BackgroundImageFix" stdDeviation="52.9"/>
<feComposite in2="SourceAlpha" operator="in" result="effect1_backgroundBlur_186_114958"/>
<feBlend mode="normal" in="SourceGraphic" in2="effect1_backgroundBlur_186_114958" result="shape"/>
</filter>
<filter id="filter11_b_186_114958" x="71.2" y="23.2" width="237.6" height="220.6" filterUnits="userSpaceOnUse" color-interpolation-filters="sRGB">
<feFlood flood-opacity="0" result="BackgroundImageFix"/>
<feGaussianBlur in="BackgroundImageFix" stdDeviation="52.9"/>
<feComposite in2="SourceAlpha" operator="in" result="effect1_backgroundBlur_186_114958"/>
<feBlend mode="normal" in="SourceGraphic" in2="effect1_backgroundBlur_186_114958" result="shape"/>
</filter>
<filter id="filter12_b_186_114958" x="71.2" y="38.2" width="237.6" height="220.6" filterUnits="userSpaceOnUse" color-interpolation-filters="sRGB">
<feFlood flood-opacity="0" result="BackgroundImageFix"/>
<feGaussianBlur in="BackgroundImageFix" stdDeviation="52.9"/>
<feComposite in2="SourceAlpha" operator="in" result="effect1_backgroundBlur_186_114958"/>
<feBlend mode="normal" in="SourceGraphic" in2="effect1_backgroundBlur_186_114958" result="shape"/>
</filter>
<filter id="filter13_b_186_114958" x="71.2" y="53.2" width="237.6" height="220.6" filterUnits="userSpaceOnUse" color-interpolation-filters="sRGB">
<feFlood flood-opacity="0" result="BackgroundImageFix"/>
<feGaussianBlur in="BackgroundImageFix" stdDeviation="52.9"/>
<feComposite in2="SourceAlpha" operator="in" result="effect1_backgroundBlur_186_114958"/>
<feBlend mode="normal" in="SourceGraphic" in2="effect1_backgroundBlur_186_114958" result="shape"/>
</filter>
<radialGradient id="paint0_radial_186_114958" cx="0" cy="0" r="1" gradientUnits="userSpaceOnUse" gradientTransform="translate(141 142) rotate(90) scale(85.4528)">
<stop stop-color="#7000FF"/>
<stop offset="1" stop-color="#792BF8" stop-opacity="0"/>
</radialGradient>
<radialGradient id="paint1_radial_186_114958" cx="0" cy="0" r="1" gradientUnits="userSpaceOnUse" gradientTransform="translate(141 107) rotate(90) scale(17.801 68)">
<stop offset="0.0537305" stop-color="#56496A" stop-opacity="0.2"/>
<stop offset="1" stop-color="#2D233D" stop-opacity="0.27"/>
</radialGradient>
<linearGradient id="paint2_linear_186_114958" x1="141" y1="107" x2="141" y2="125.251" gradientUnits="userSpaceOnUse">
<stop stop-color="white" stop-opacity="0.1"/>
<stop offset="1" stop-color="white" stop-opacity="0"/>
</linearGradient>
<radialGradient id="paint3_radial_186_114958" cx="0" cy="0" r="1" gradientUnits="userSpaceOnUse" gradientTransform="translate(88.5 114) rotate(90) scale(2.25646 9.5)">
<stop offset="0.0537305" stop-color="#6E43B4" stop-opacity="0.2"/>
<stop offset="1" stop-color="#502691" stop-opacity="0.27"/>
</radialGradient>
<linearGradient id="paint4_linear_186_114958" x1="88.5" y1="114" x2="88.5" y2="116.314" gradientUnits="userSpaceOnUse">
<stop stop-color="white" stop-opacity="0.1"/>
<stop offset="1" stop-color="white" stop-opacity="0"/>
</linearGradient>
<radialGradient id="paint5_radial_186_114958" cx="0" cy="0" r="1" gradientUnits="userSpaceOnUse" gradientTransform="translate(88.5 129) rotate(90) scale(2.25646 9.5)">
<stop offset="0.0537305" stop-color="#6E43B4" stop-opacity="0.2"/>
<stop offset="1" stop-color="#502691" stop-opacity="0.27"/>
</radialGradient>
<linearGradient id="paint6_linear_186_114958" x1="88.5" y1="129" x2="88.5" y2="131.314" gradientUnits="userSpaceOnUse">
<stop stop-color="white" stop-opacity="0.1"/>
<stop offset="1" stop-color="white" stop-opacity="0"/>
</linearGradient>
<radialGradient id="paint7_radial_186_114958" cx="0" cy="0" r="1" gradientUnits="userSpaceOnUse" gradientTransform="translate(88.5 144) rotate(90) scale(2.25646 9.5)">
<stop offset="0.0537305" stop-color="#6E43B4" stop-opacity="0.2"/>
<stop offset="1" stop-color="#502691" stop-opacity="0.27"/>
</radialGradient>
<linearGradient id="paint8_linear_186_114958" x1="88.5" y1="144" x2="88.5" y2="146.314" gradientUnits="userSpaceOnUse">
<stop stop-color="white" stop-opacity="0.1"/>
<stop offset="1" stop-color="white" stop-opacity="0"/>
</linearGradient>
<radialGradient id="paint9_radial_186_114958" cx="0" cy="0" r="1" gradientUnits="userSpaceOnUse" gradientTransform="translate(88.5 159) rotate(90) scale(2.25646 9.5)">
<stop offset="0.0537305" stop-color="#6E43B4" stop-opacity="0.2"/>
<stop offset="1" stop-color="#502691" stop-opacity="0.27"/>
</radialGradient>
<linearGradient id="paint10_linear_186_114958" x1="88.5" y1="159" x2="88.5" y2="161.314" gradientUnits="userSpaceOnUse">
<stop stop-color="white" stop-opacity="0.1"/>
<stop offset="1" stop-color="white" stop-opacity="0"/>
</linearGradient>
<radialGradient id="paint11_radial_186_114958" cx="0" cy="0" r="1" gradientUnits="userSpaceOnUse" gradientTransform="translate(137.5 114) rotate(90) scale(2.25646 34.5)">
<stop offset="0.0537305" stop-color="#6E43B4" stop-opacity="0.2"/>
<stop offset="1" stop-color="#502691" stop-opacity="0.27"/>
</radialGradient>
<linearGradient id="paint12_linear_186_114958" x1="137.5" y1="114" x2="137.5" y2="116.314" gradientUnits="userSpaceOnUse">
<stop stop-color="white" stop-opacity="0.1"/>
<stop offset="1" stop-color="white" stop-opacity="0"/>
</linearGradient>
<radialGradient id="paint13_radial_186_114958" cx="0" cy="0" r="1" gradientUnits="userSpaceOnUse" gradientTransform="translate(137.5 129) rotate(90) scale(2.25646 34.5)">
<stop offset="0.0537305" stop-color="#6E43B4" stop-opacity="0.2"/>
<stop offset="1" stop-color="#502691" stop-opacity="0.27"/>
</radialGradient>
<linearGradient id="paint14_linear_186_114958" x1="137.5" y1="129" x2="137.5" y2="131.314" gradientUnits="userSpaceOnUse">
<stop stop-color="white" stop-opacity="0.1"/>
<stop offset="1" stop-color="white" stop-opacity="0"/>
</linearGradient>
<radialGradient id="paint15_radial_186_114958" cx="0" cy="0" r="1" gradientUnits="userSpaceOnUse" gradientTransform="translate(137.5 144) rotate(90) scale(2.25646 34.5)">
<stop offset="0.0537305" stop-color="#6E43B4" stop-opacity="0.2"/>
<stop offset="1" stop-color="#502691" stop-opacity="0.27"/>
</radialGradient>
<linearGradient id="paint16_linear_186_114958" x1="137.5" y1="144" x2="137.5" y2="146.314" gradientUnits="userSpaceOnUse">
<stop stop-color="white" stop-opacity="0.1"/>
<stop offset="1" stop-color="white" stop-opacity="0"/>
</linearGradient>
<radialGradient id="paint17_radial_186_114958" cx="0" cy="0" r="1" gradientUnits="userSpaceOnUse" gradientTransform="translate(137.5 159) rotate(90) scale(2.25646 34.5)">
<stop offset="0.0537305" stop-color="#6E43B4" stop-opacity="0.2"/>
<stop offset="1" stop-color="#502691" stop-opacity="0.27"/>
</radialGradient>
<linearGradient id="paint18_linear_186_114958" x1="137.5" y1="159" x2="137.5" y2="161.314" gradientUnits="userSpaceOnUse">
<stop stop-color="white" stop-opacity="0.1"/>
<stop offset="1" stop-color="white" stop-opacity="0"/>
</linearGradient>
<radialGradient id="paint19_radial_186_114958" cx="0" cy="0" r="1" gradientUnits="userSpaceOnUse" gradientTransform="translate(190 114) rotate(90) scale(2.25646 13)">
<stop offset="0.0537305" stop-color="#6E43B4" stop-opacity="0.2"/>
<stop offset="1" stop-color="#502691" stop-opacity="0.27"/>
</radialGradient>
<linearGradient id="paint20_linear_186_114958" x1="190" y1="114" x2="190" y2="116.314" gradientUnits="userSpaceOnUse">
<stop stop-color="white" stop-opacity="0.1"/>
<stop offset="1" stop-color="white" stop-opacity="0"/>
</linearGradient>
<radialGradient id="paint21_radial_186_114958" cx="0" cy="0" r="1" gradientUnits="userSpaceOnUse" gradientTransform="translate(190 129) rotate(90) scale(2.25646 13)">
<stop offset="0.0537305" stop-color="#6E43B4" stop-opacity="0.2"/>
<stop offset="1" stop-color="#502691" stop-opacity="0.27"/>
</radialGradient>
<linearGradient id="paint22_linear_186_114958" x1="190" y1="129" x2="190" y2="131.314" gradientUnits="userSpaceOnUse">
<stop stop-color="white" stop-opacity="0.1"/>
<stop offset="1" stop-color="white" stop-opacity="0"/>
</linearGradient>
<radialGradient id="paint23_radial_186_114958" cx="0" cy="0" r="1" gradientUnits="userSpaceOnUse" gradientTransform="translate(190 144) rotate(90) scale(2.25646 13)">
<stop offset="0.0537305" stop-color="#6E43B4" stop-opacity="0.2"/>
<stop offset="1" stop-color="#502691" stop-opacity="0.27"/>
</radialGradient>
<linearGradient id="paint24_linear_186_114958" x1="190" y1="144" x2="190" y2="146.314" gradientUnits="userSpaceOnUse">
<stop stop-color="white" stop-opacity="0.1"/>
<stop offset="1" stop-color="white" stop-opacity="0"/>
</linearGradient>
<radialGradient id="paint25_radial_186_114958" cx="0" cy="0" r="1" gradientUnits="userSpaceOnUse" gradientTransform="translate(190 159) rotate(90) scale(2.25646 13)">
<stop offset="0.0537305" stop-color="#6E43B4" stop-opacity="0.2"/>
<stop offset="1" stop-color="#502691" stop-opacity="0.27"/>
</radialGradient>
<linearGradient id="paint26_linear_186_114958" x1="190" y1="159" x2="190" y2="161.314" gradientUnits="userSpaceOnUse">
<stop stop-color="white" stop-opacity="0.1"/>
<stop offset="1" stop-color="white" stop-opacity="0"/>
</linearGradient>
<clipPath id="clip0_186_114958">
<rect width="284" height="284" fill="white"/>
</clipPath>
</defs>
</svg>
