<svg width="284" height="284" viewBox="0 0 284 284" fill="none" xmlns="http://www.w3.org/2000/svg">
<rect x="80" y="120" width="2" height="2" fill="white" fill-opacity="0.1"/>
<rect x="80" y="82" width="2" height="2" fill="white" fill-opacity="0.1"/>
<rect x="118" y="120" width="2" height="2" fill="white" fill-opacity="0.1"/>
<rect x="118" y="82" width="2" height="2" fill="white" fill-opacity="0.1"/>
<g opacity="0.3">
<rect y="120" width="2" height="2" fill="white" fill-opacity="0.1"/>
<rect y="82" width="2" height="2" fill="white" fill-opacity="0.1"/>
<rect x="38" y="120" width="2" height="2" fill="white" fill-opacity="0.1"/>
<rect x="38" y="82" width="2" height="2" fill="white" fill-opacity="0.1"/>
</g>
<g opacity="0.3">
<rect y="201" width="2" height="2" fill="white" fill-opacity="0.1"/>
<rect y="163" width="2" height="2" fill="white" fill-opacity="0.1"/>
<rect x="38" y="201" width="2" height="2" fill="white" fill-opacity="0.1"/>
<rect x="38" y="163" width="2" height="2" fill="white" fill-opacity="0.1"/>
</g>
<g opacity="0.3">
<rect x="80" y="40" width="2" height="2" fill="white" fill-opacity="0.1"/>
<rect x="80" y="2" width="2" height="2" fill="white" fill-opacity="0.1"/>
<rect x="118" y="40" width="2" height="2" fill="white" fill-opacity="0.1"/>
<rect x="118" y="2" width="2" height="2" fill="white" fill-opacity="0.1"/>
</g>
<g opacity="0.3">
<rect x="80" y="280" width="2" height="2" fill="white" fill-opacity="0.1"/>
<rect x="80" y="242" width="2" height="2" fill="white" fill-opacity="0.1"/>
<rect x="118" y="280" width="2" height="2" fill="white" fill-opacity="0.1"/>
<rect x="118" y="242" width="2" height="2" fill="white" fill-opacity="0.1"/>
</g>
<rect x="80" y="200" width="2" height="2" fill="white" fill-opacity="0.1"/>
<rect x="80" y="162" width="2" height="2" fill="white" fill-opacity="0.1"/>
<rect x="118" y="200" width="2" height="2" fill="white" fill-opacity="0.1"/>
<rect x="118" y="162" width="2" height="2" fill="white" fill-opacity="0.1"/>
<rect x="162" y="120" width="2" height="2" fill="white" fill-opacity="0.1"/>
<rect x="162" y="82" width="2" height="2" fill="white" fill-opacity="0.1"/>
<rect x="200" y="120" width="2" height="2" fill="white" fill-opacity="0.1"/>
<rect x="200" y="82" width="2" height="2" fill="white" fill-opacity="0.1"/>
<g opacity="0.3">
<rect x="242" y="120" width="2" height="2" fill="white" fill-opacity="0.1"/>
<rect x="242" y="82" width="2" height="2" fill="white" fill-opacity="0.1"/>
<rect x="280" y="120" width="2" height="2" fill="white" fill-opacity="0.1"/>
<rect x="280" y="82" width="2" height="2" fill="white" fill-opacity="0.1"/>
</g>
<g opacity="0.3">
<rect x="242" y="201" width="2" height="2" fill="white" fill-opacity="0.1"/>
<rect x="242" y="163" width="2" height="2" fill="white" fill-opacity="0.1"/>
<rect x="280" y="201" width="2" height="2" fill="white" fill-opacity="0.1"/>
<rect x="280" y="163" width="2" height="2" fill="white" fill-opacity="0.1"/>
</g>
<g opacity="0.3">
<rect x="162" y="40" width="2" height="2" fill="white" fill-opacity="0.1"/>
<rect x="162" y="2" width="2" height="2" fill="white" fill-opacity="0.1"/>
<rect x="200" y="40" width="2" height="2" fill="white" fill-opacity="0.1"/>
<rect x="200" y="2" width="2" height="2" fill="white" fill-opacity="0.1"/>
</g>
<g opacity="0.3">
<rect x="162" y="280" width="2" height="2" fill="white" fill-opacity="0.1"/>
<rect x="162" y="242" width="2" height="2" fill="white" fill-opacity="0.1"/>
<rect x="200" y="280" width="2" height="2" fill="white" fill-opacity="0.1"/>
<rect x="200" y="242" width="2" height="2" fill="white" fill-opacity="0.1"/>
</g>
<rect x="162" y="200" width="2" height="2" fill="white" fill-opacity="0.1"/>
<rect x="162" y="162" width="2" height="2" fill="white" fill-opacity="0.1"/>
<rect x="200" y="200" width="2" height="2" fill="white" fill-opacity="0.1"/>
<rect x="200" y="162" width="2" height="2" fill="white" fill-opacity="0.1"/>
<g filter="url(#filter0_f_189_131326)">
<circle cx="141" cy="142" r="85.4528" fill="url(#paint0_radial_189_131326)"/>
</g>
<g filter="url(#filter1_b_189_131326)">
<rect x="73" y="107" width="136" height="71" rx="6" fill="url(#paint1_radial_189_131326)"/>
<rect x="73.5" y="107.5" width="135" height="70" rx="5.5" stroke="url(#paint2_linear_189_131326)"/>
</g>
<rect x="79" y="114" width="19" height="9" rx="4.5" fill="black" fill-opacity="0.11"/>
<rect x="79" y="129" width="19" height="9" rx="4.5" fill="black" fill-opacity="0.11"/>
<rect x="79" y="144" width="19" height="9" rx="4.5" fill="black" fill-opacity="0.11"/>
<rect x="79" y="159" width="19" height="9" rx="4.5" fill="black" fill-opacity="0.11"/>
<rect x="103" y="114" width="69" height="9" rx="4.5" fill="black" fill-opacity="0.11"/>
<rect x="103" y="129" width="69" height="9" rx="4.5" fill="black" fill-opacity="0.11"/>
<rect x="103" y="144" width="69" height="9" rx="4.5" fill="black" fill-opacity="0.11"/>
<rect x="103" y="159" width="69" height="9" rx="4.5" fill="black" fill-opacity="0.11"/>
<rect x="177" y="114" width="26" height="9" rx="4.5" fill="black" fill-opacity="0.11"/>
<rect x="177" y="129" width="26" height="9" rx="4.5" fill="black" fill-opacity="0.11"/>
<rect x="177" y="144" width="26" height="9" rx="4.5" fill="black" fill-opacity="0.11"/>
<rect x="177" y="159" width="26" height="9" rx="4.5" fill="black" fill-opacity="0.11"/>
<defs>
<filter id="filter0_f_189_131326" x="-22.6531" y="-21.6531" width="327.305" height="327.305" filterUnits="userSpaceOnUse" color-interpolation-filters="sRGB">
<feFlood flood-opacity="0" result="BackgroundImageFix"/>
<feBlend mode="normal" in="SourceGraphic" in2="BackgroundImageFix" result="shape"/>
<feGaussianBlur stdDeviation="39.1" result="effect1_foregroundBlur_189_131326"/>
</filter>
<filter id="filter1_b_189_131326" x="-32.8" y="1.2" width="347.6" height="282.6" filterUnits="userSpaceOnUse" color-interpolation-filters="sRGB">
<feFlood flood-opacity="0" result="BackgroundImageFix"/>
<feGaussianBlur in="BackgroundImageFix" stdDeviation="52.9"/>
<feComposite in2="SourceAlpha" operator="in" result="effect1_backgroundBlur_189_131326"/>
<feBlend mode="normal" in="SourceGraphic" in2="effect1_backgroundBlur_189_131326" result="shape"/>
</filter>
<radialGradient id="paint0_radial_189_131326" cx="0" cy="0" r="1" gradientUnits="userSpaceOnUse" gradientTransform="translate(141 142) rotate(90) scale(85.4528)">
<stop stop-color="#7000FF"/>
<stop offset="1" stop-color="#792BF8" stop-opacity="0"/>
</radialGradient>
<radialGradient id="paint1_radial_189_131326" cx="0" cy="0" r="1" gradientUnits="userSpaceOnUse" gradientTransform="translate(141 107) rotate(90) scale(17.801 68)">
<stop offset="0.0537305" stop-color="#56496A" stop-opacity="0.2"/>
<stop offset="1" stop-color="#2D233D" stop-opacity="0.27"/>
</radialGradient>
<linearGradient id="paint2_linear_189_131326" x1="141" y1="107" x2="141" y2="125.251" gradientUnits="userSpaceOnUse">
<stop stop-color="white" stop-opacity="0.1"/>
<stop offset="1" stop-color="white" stop-opacity="0"/>
</linearGradient>
</defs>
</svg>
