<svg width="284" height="306" viewBox="0 0 284 306" fill="none" xmlns="http://www.w3.org/2000/svg">
<rect x="80" y="120" width="2" height="2" fill="white" fill-opacity="0.1"/>
<rect x="80" y="82" width="2" height="2" fill="white" fill-opacity="0.1"/>
<rect x="118" y="120" width="2" height="2" fill="white" fill-opacity="0.1"/>
<rect x="118" y="82" width="2" height="2" fill="white" fill-opacity="0.1"/>
<g opacity="0.3">
<rect y="120" width="2" height="2" fill="white" fill-opacity="0.1"/>
<rect y="82" width="2" height="2" fill="white" fill-opacity="0.1"/>
<rect x="38" y="120" width="2" height="2" fill="white" fill-opacity="0.1"/>
<rect x="38" y="82" width="2" height="2" fill="white" fill-opacity="0.1"/>
</g>
<g opacity="0.3">
<rect y="201" width="2" height="2" fill="white" fill-opacity="0.1"/>
<rect y="163" width="2" height="2" fill="white" fill-opacity="0.1"/>
<rect x="38" y="201" width="2" height="2" fill="white" fill-opacity="0.1"/>
<rect x="38" y="163" width="2" height="2" fill="white" fill-opacity="0.1"/>
</g>
<g opacity="0.3">
<rect x="80" y="40" width="2" height="2" fill="white" fill-opacity="0.1"/>
<rect x="80" y="2" width="2" height="2" fill="white" fill-opacity="0.1"/>
<rect x="118" y="40" width="2" height="2" fill="white" fill-opacity="0.1"/>
<rect x="118" y="2" width="2" height="2" fill="white" fill-opacity="0.1"/>
</g>
<g opacity="0.3">
<rect x="80" y="280" width="2" height="2" fill="white" fill-opacity="0.1"/>
<rect x="80" y="242" width="2" height="2" fill="white" fill-opacity="0.1"/>
<rect x="118" y="280" width="2" height="2" fill="white" fill-opacity="0.1"/>
<rect x="118" y="242" width="2" height="2" fill="white" fill-opacity="0.1"/>
</g>
<rect x="80" y="200" width="2" height="2" fill="white" fill-opacity="0.1"/>
<rect x="80" y="162" width="2" height="2" fill="white" fill-opacity="0.1"/>
<rect x="118" y="200" width="2" height="2" fill="white" fill-opacity="0.1"/>
<rect x="118" y="162" width="2" height="2" fill="white" fill-opacity="0.1"/>
<rect x="162" y="120" width="2" height="2" fill="white" fill-opacity="0.1"/>
<rect x="162" y="82" width="2" height="2" fill="white" fill-opacity="0.1"/>
<rect x="200" y="120" width="2" height="2" fill="white" fill-opacity="0.1"/>
<rect x="200" y="82" width="2" height="2" fill="white" fill-opacity="0.1"/>
<g opacity="0.3">
<rect x="242" y="120" width="2" height="2" fill="white" fill-opacity="0.1"/>
<rect x="242" y="82" width="2" height="2" fill="white" fill-opacity="0.1"/>
<rect x="280" y="120" width="2" height="2" fill="white" fill-opacity="0.1"/>
<rect x="280" y="82" width="2" height="2" fill="white" fill-opacity="0.1"/>
</g>
<g opacity="0.3">
<rect x="242" y="201" width="2" height="2" fill="white" fill-opacity="0.1"/>
<rect x="242" y="163" width="2" height="2" fill="white" fill-opacity="0.1"/>
<rect x="280" y="201" width="2" height="2" fill="white" fill-opacity="0.1"/>
<rect x="280" y="163" width="2" height="2" fill="white" fill-opacity="0.1"/>
</g>
<g opacity="0.3">
<rect x="162" y="40" width="2" height="2" fill="white" fill-opacity="0.1"/>
<rect x="162" y="2" width="2" height="2" fill="white" fill-opacity="0.1"/>
<rect x="200" y="40" width="2" height="2" fill="white" fill-opacity="0.1"/>
<rect x="200" y="2" width="2" height="2" fill="white" fill-opacity="0.1"/>
</g>
<g opacity="0.3">
<rect x="162" y="280" width="2" height="2" fill="white" fill-opacity="0.1"/>
<rect x="162" y="242" width="2" height="2" fill="white" fill-opacity="0.1"/>
<rect x="200" y="280" width="2" height="2" fill="white" fill-opacity="0.1"/>
<rect x="200" y="242" width="2" height="2" fill="white" fill-opacity="0.1"/>
</g>
<rect x="162" y="200" width="2" height="2" fill="white" fill-opacity="0.1"/>
<rect x="162" y="162" width="2" height="2" fill="white" fill-opacity="0.1"/>
<rect x="200" y="200" width="2" height="2" fill="white" fill-opacity="0.1"/>
<rect x="200" y="162" width="2" height="2" fill="white" fill-opacity="0.1"/>
<g filter="url(#filter0_f_247_146225)">
<circle cx="141" cy="142" r="85.4528" fill="url(#paint0_radial_247_146225)"/>
</g>
<g filter="url(#filter1_b_247_146225)">
<path d="M134.25 90C106.498 90 84 112.61 84 140.5C84 168.39 106.498 191 134.25 191H190.295C191.869 191 192.381 188.874 190.98 188.152L188.28 186.758C183.326 184.201 182.737 177.175 186.311 172.882C193.608 164.115 198 152.823 198 140.5C198 112.61 175.502 90 147.75 90H134.25Z" fill="url(#paint1_radial_247_146225)"/>
<path d="M84.5 140.5C84.5 112.883 106.776 90.5 134.25 90.5H147.75C175.224 90.5 197.5 112.883 197.5 140.5C197.5 152.702 193.151 163.882 185.927 172.562C184.047 174.82 183.266 177.789 183.601 180.532C183.938 183.279 185.402 185.836 188.051 187.202L190.751 188.596C191.691 189.081 191.339 190.5 190.295 190.5H134.25C106.776 190.5 84.5 168.117 84.5 140.5Z" stroke="url(#paint2_linear_247_146225)"/>
</g>
<defs>
<filter id="filter0_f_247_146225" x="-22.6531" y="-21.6531" width="327.305" height="327.305" filterUnits="userSpaceOnUse" color-interpolation-filters="sRGB">
<feFlood flood-opacity="0" result="BackgroundImageFix"/>
<feBlend mode="normal" in="SourceGraphic" in2="BackgroundImageFix" result="shape"/>
<feGaussianBlur stdDeviation="39.1" result="effect1_foregroundBlur_247_146225"/>
</filter>
<filter id="filter1_b_247_146225" x="-21.8" y="-15.8" width="325.6" height="312.6" filterUnits="userSpaceOnUse" color-interpolation-filters="sRGB">
<feFlood flood-opacity="0" result="BackgroundImageFix"/>
<feGaussianBlur in="BackgroundImageFix" stdDeviation="52.9"/>
<feComposite in2="SourceAlpha" operator="in" result="effect1_backgroundBlur_247_146225"/>
<feBlend mode="normal" in="SourceGraphic" in2="effect1_backgroundBlur_247_146225" result="shape"/>
</filter>
<radialGradient id="paint0_radial_247_146225" cx="0" cy="0" r="1" gradientUnits="userSpaceOnUse" gradientTransform="translate(141 142) rotate(90) scale(85.4528)">
<stop stop-color="#7000FF"/>
<stop offset="1" stop-color="#792BF8" stop-opacity="0"/>
</radialGradient>
<radialGradient id="paint1_radial_247_146225" cx="0" cy="0" r="1" gradientUnits="userSpaceOnUse" gradientTransform="translate(141 90) rotate(90) scale(25.3225 57)">
<stop offset="0.0537305" stop-color="#56496A" stop-opacity="0.2"/>
<stop offset="1" stop-color="#2D233D" stop-opacity="0.27"/>
</radialGradient>
<linearGradient id="paint2_linear_247_146225" x1="141" y1="90" x2="141" y2="115.963" gradientUnits="userSpaceOnUse">
<stop stop-color="white" stop-opacity="0.1"/>
<stop offset="1" stop-color="white" stop-opacity="0"/>
</linearGradient>
</defs>
</svg>
