<svg width="19" height="19" viewBox="0 0 19 19" fill="none" xmlns="http://www.w3.org/2000/svg">
<path d="M7.07458 6.13087C7.4429 6.29352 7.87433 6.21612 8.16558 5.93811C10.8397 3.38558 11.1331 3.27883 16.6585 1.48487C17.4456 1.1706 18.2262 1.95124 17.9119 2.73828C15.8998 8.15577 15.8217 8.37815 13.1819 11.1404C12.9589 11.3737 12.8963 11.7203 13.0267 12.0156V12.0156C13.3991 12.859 13.1024 13.8479 12.3273 14.3469L7.94877 17.166C7.46137 17.4798 6.82513 17.1014 6.86818 16.5233L6.99929 14.7625C7.01178 14.5947 7.08408 14.437 7.20304 14.318L7.68427 13.8368C8.16953 13.3515 8.16953 12.5648 7.68427 12.0795L7.13139 11.5266C6.64613 11.0414 5.85936 11.0414 5.3741 11.5266L4.89288 12.0078C4.77392 12.1268 4.61618 12.1991 4.44841 12.2116L2.68756 12.3427C2.10951 12.3858 1.73111 11.7495 2.04488 11.2621L5.08067 6.54703C5.45494 5.96568 6.19661 5.74317 6.82908 6.02245L7.07458 6.13087Z" stroke="white" stroke-opacity="0.5" stroke-width="2"/>
</svg>
