<svg width="284" height="284" viewBox="0 0 284 284" fill="none" xmlns="http://www.w3.org/2000/svg">
<rect x="80.0002" y="102" width="2" height="2" fill="white" fill-opacity="0.1"/>
<rect x="80.0002" y="64" width="2" height="2" fill="white" fill-opacity="0.1"/>
<rect x="118" y="102" width="2" height="2" fill="white" fill-opacity="0.1"/>
<rect x="118" y="64" width="2" height="2" fill="white" fill-opacity="0.1"/>
<g opacity="0.3">
<rect x="-0.000244141" y="102" width="2" height="2" fill="white" fill-opacity="0.1"/>
<rect x="-0.000244141" y="64" width="2" height="2" fill="white" fill-opacity="0.1"/>
<rect x="37.9998" y="102" width="2" height="2" fill="white" fill-opacity="0.1"/>
<rect x="37.9998" y="64" width="2" height="2" fill="white" fill-opacity="0.1"/>
</g>
<g opacity="0.3">
<rect x="-0.000244141" y="183" width="2" height="2" fill="white" fill-opacity="0.1"/>
<rect x="-0.000244141" y="145" width="2" height="2" fill="white" fill-opacity="0.1"/>
<rect x="37.9998" y="183" width="2" height="2" fill="white" fill-opacity="0.1"/>
<rect x="37.9998" y="145" width="2" height="2" fill="white" fill-opacity="0.1"/>
</g>
<g opacity="0.3">
<rect x="80.0002" y="22" width="2" height="2" fill="white" fill-opacity="0.1"/>
<rect x="118" y="22" width="2" height="2" fill="white" fill-opacity="0.1"/>
</g>
<g opacity="0.3">
<rect x="80.0002" y="262" width="2" height="2" fill="white" fill-opacity="0.1"/>
<rect x="80.0002" y="224" width="2" height="2" fill="white" fill-opacity="0.1"/>
<rect x="118" y="262" width="2" height="2" fill="white" fill-opacity="0.1"/>
<rect x="118" y="224" width="2" height="2" fill="white" fill-opacity="0.1"/>
</g>
<rect x="80.0002" y="182" width="2" height="2" fill="white" fill-opacity="0.1"/>
<rect x="80.0002" y="144" width="2" height="2" fill="white" fill-opacity="0.1"/>
<rect x="118" y="182" width="2" height="2" fill="white" fill-opacity="0.1"/>
<rect x="118" y="144" width="2" height="2" fill="white" fill-opacity="0.1"/>
<rect x="162" y="102" width="2" height="2" fill="white" fill-opacity="0.1"/>
<rect x="162" y="64" width="2" height="2" fill="white" fill-opacity="0.1"/>
<rect x="200" y="102" width="2" height="2" fill="white" fill-opacity="0.1"/>
<rect x="200" y="64" width="2" height="2" fill="white" fill-opacity="0.1"/>
<g opacity="0.3">
<rect x="242" y="102" width="2" height="2" fill="white" fill-opacity="0.1"/>
<rect x="242" y="64" width="2" height="2" fill="white" fill-opacity="0.1"/>
<rect x="280" y="102" width="2" height="2" fill="white" fill-opacity="0.1"/>
<rect x="280" y="64" width="2" height="2" fill="white" fill-opacity="0.1"/>
</g>
<g opacity="0.3">
<rect x="242" y="183" width="2" height="2" fill="white" fill-opacity="0.1"/>
<rect x="242" y="145" width="2" height="2" fill="white" fill-opacity="0.1"/>
<rect x="280" y="183" width="2" height="2" fill="white" fill-opacity="0.1"/>
<rect x="280" y="145" width="2" height="2" fill="white" fill-opacity="0.1"/>
</g>
<g opacity="0.3">
<rect x="162" y="22" width="2" height="2" fill="white" fill-opacity="0.1"/>
<rect x="200" y="22" width="2" height="2" fill="white" fill-opacity="0.1"/>
</g>
<g opacity="0.3">
<rect x="162" y="262" width="2" height="2" fill="white" fill-opacity="0.1"/>
<rect x="162" y="224" width="2" height="2" fill="white" fill-opacity="0.1"/>
<rect x="200" y="262" width="2" height="2" fill="white" fill-opacity="0.1"/>
<rect x="200" y="224" width="2" height="2" fill="white" fill-opacity="0.1"/>
</g>
<rect x="162" y="182" width="2" height="2" fill="white" fill-opacity="0.1"/>
<rect x="162" y="144" width="2" height="2" fill="white" fill-opacity="0.1"/>
<rect x="200" y="182" width="2" height="2" fill="white" fill-opacity="0.1"/>
<rect x="200" y="144" width="2" height="2" fill="white" fill-opacity="0.1"/>
<g filter="url(#filter0_f_258_143724)">
<circle cx="141" cy="124" r="85.4528" fill="url(#paint0_radial_258_143724)"/>
</g>
<g filter="url(#filter1_b_258_143724)">
<rect x="103" y="86" width="77" height="77" rx="38.5" fill="url(#paint1_radial_258_143724)"/>
<rect x="103.5" y="86.5" width="76" height="76" rx="38" stroke="url(#paint2_linear_258_143724)"/>
<g filter="url(#filter2_b_258_143724)">
<path fill-rule="evenodd" clip-rule="evenodd" d="M131.513 109.263C132.196 108.579 133.304 108.579 133.987 109.263L139.237 114.513C139.921 115.196 139.921 116.304 139.237 116.987C138.554 117.671 137.446 117.671 136.763 116.987C135.928 116.152 134.5 116.744 134.5 117.925V128C134.5 128.966 133.716 129.75 132.75 129.75C131.784 129.75 131 128.966 131 128V117.925C131 116.744 129.572 116.152 128.737 116.987C128.054 117.671 126.946 117.671 126.263 116.987C125.579 116.304 125.579 115.196 126.263 114.513L131.513 109.263Z" fill="url(#paint3_radial_258_143724)"/>
<path d="M131.866 109.616C132.354 109.128 133.146 109.128 133.634 109.616L138.884 114.866C139.372 115.354 139.372 116.146 138.884 116.634C138.396 117.122 137.604 117.122 137.116 116.634C135.966 115.484 134 116.298 134 117.925V128C134 128.69 133.44 129.25 132.75 129.25C132.06 129.25 131.5 128.69 131.5 128V117.925C131.5 116.298 129.534 115.484 128.384 116.634C127.896 117.122 127.104 117.122 126.616 116.634C126.128 116.146 126.128 115.354 126.616 114.866L131.866 109.616Z" stroke="url(#paint4_linear_258_143724)"/>
</g>
<g filter="url(#filter3_b_258_143724)">
<path fill-rule="evenodd" clip-rule="evenodd" d="M149.737 137.987C149.054 138.671 147.946 138.671 147.263 137.987L142.013 132.737C141.329 132.054 141.329 130.946 142.013 130.263C142.696 129.579 143.804 129.579 144.487 130.263C145.322 131.098 146.75 130.506 146.75 129.325L146.75 119.25C146.75 118.284 147.534 117.5 148.5 117.5C149.467 117.5 150.25 118.284 150.25 119.25L150.25 129.325C150.25 130.506 151.678 131.098 152.513 130.263C153.196 129.579 154.304 129.579 154.987 130.263C155.671 130.946 155.671 132.054 154.987 132.737L149.737 137.987Z" fill="url(#paint5_radial_258_143724)"/>
<path d="M149.384 137.634C148.896 138.122 148.104 138.122 147.616 137.634L142.366 132.384C141.878 131.896 141.878 131.104 142.366 130.616C142.854 130.128 143.646 130.128 144.134 130.616C145.284 131.766 147.25 130.952 147.25 129.325L147.25 119.25C147.25 118.56 147.81 118 148.5 118C149.19 118 149.75 118.56 149.75 119.25L149.75 129.325C149.75 130.952 151.716 131.766 152.866 130.616C153.354 130.128 154.146 130.128 154.634 130.616C155.122 131.104 155.122 131.896 154.634 132.384L149.384 137.634Z" stroke="url(#paint6_linear_258_143724)"/>
</g>
</g>
<defs>
<filter id="filter0_f_258_143724" x="-22.6531" y="-39.6531" width="327.306" height="327.305" filterUnits="userSpaceOnUse" color-interpolation-filters="sRGB">
<feFlood flood-opacity="0" result="BackgroundImageFix"/>
<feBlend mode="normal" in="SourceGraphic" in2="BackgroundImageFix" result="shape"/>
<feGaussianBlur stdDeviation="39.1" result="effect1_foregroundBlur_258_143724"/>
</filter>
<filter id="filter1_b_258_143724" x="-2.8" y="-19.8" width="288.6" height="288.6" filterUnits="userSpaceOnUse" color-interpolation-filters="sRGB">
<feFlood flood-opacity="0" result="BackgroundImageFix"/>
<feGaussianBlur in="BackgroundImageFix" stdDeviation="52.9"/>
<feComposite in2="SourceAlpha" operator="in" result="effect1_backgroundBlur_258_143724"/>
<feBlend mode="normal" in="SourceGraphic" in2="effect1_backgroundBlur_258_143724" result="shape"/>
</filter>
<filter id="filter2_b_258_143724" x="19.95" y="2.95" width="225.6" height="232.6" filterUnits="userSpaceOnUse" color-interpolation-filters="sRGB">
<feFlood flood-opacity="0" result="BackgroundImageFix"/>
<feGaussianBlur in="BackgroundImageFix" stdDeviation="52.9"/>
<feComposite in2="SourceAlpha" operator="in" result="effect1_backgroundBlur_258_143724"/>
<feBlend mode="normal" in="SourceGraphic" in2="effect1_backgroundBlur_258_143724" result="shape"/>
</filter>
<filter id="filter3_b_258_143724" x="35.7" y="11.7" width="225.6" height="232.6" filterUnits="userSpaceOnUse" color-interpolation-filters="sRGB">
<feFlood flood-opacity="0" result="BackgroundImageFix"/>
<feGaussianBlur in="BackgroundImageFix" stdDeviation="52.9"/>
<feComposite in2="SourceAlpha" operator="in" result="effect1_backgroundBlur_258_143724"/>
<feBlend mode="normal" in="SourceGraphic" in2="effect1_backgroundBlur_258_143724" result="shape"/>
</filter>
<radialGradient id="paint0_radial_258_143724" cx="0" cy="0" r="1" gradientUnits="userSpaceOnUse" gradientTransform="translate(141 124) rotate(90) scale(85.4528)">
<stop stop-color="#7000FF"/>
<stop offset="1" stop-color="#792BF8" stop-opacity="0"/>
</radialGradient>
<radialGradient id="paint1_radial_258_143724" cx="0" cy="0" r="1" gradientUnits="userSpaceOnUse" gradientTransform="translate(141.5 86) rotate(90) scale(19.3053 38.5)">
<stop offset="0.0537305" stop-color="#6E43B4" stop-opacity="0.2"/>
<stop offset="1" stop-color="#502691" stop-opacity="0.27"/>
</radialGradient>
<linearGradient id="paint2_linear_258_143724" x1="141.5" y1="86" x2="141.5" y2="105.793" gradientUnits="userSpaceOnUse">
<stop stop-color="white" stop-opacity="0.1"/>
<stop offset="1" stop-color="white" stop-opacity="0"/>
</linearGradient>
<radialGradient id="paint3_radial_258_143724" cx="0" cy="0" r="1" gradientUnits="userSpaceOnUse" gradientTransform="translate(132.75 108.75) rotate(90) scale(5.26507 7)">
<stop offset="0.0537305" stop-color="#D6BDFF" stop-opacity="0.2"/>
<stop offset="1" stop-color="#8E57E1" stop-opacity="0.27"/>
</radialGradient>
<linearGradient id="paint4_linear_258_143724" x1="132.75" y1="108.75" x2="132.75" y2="114.148" gradientUnits="userSpaceOnUse">
<stop stop-color="white" stop-opacity="0.1"/>
<stop offset="1" stop-color="white" stop-opacity="0"/>
</linearGradient>
<radialGradient id="paint5_radial_258_143724" cx="0" cy="0" r="1" gradientUnits="userSpaceOnUse" gradientTransform="translate(148.5 138.5) rotate(-90) scale(5.26507 7)">
<stop offset="0.0537305" stop-color="#D6BDFF" stop-opacity="0.2"/>
<stop offset="1" stop-color="#8E57E1" stop-opacity="0.27"/>
</radialGradient>
<linearGradient id="paint6_linear_258_143724" x1="148.5" y1="138.5" x2="148.5" y2="133.102" gradientUnits="userSpaceOnUse">
<stop stop-color="white" stop-opacity="0.1"/>
<stop offset="1" stop-color="white" stop-opacity="0"/>
</linearGradient>
</defs>
</svg>
