<svg width="24" height="24" viewBox="0 0 24 24" fill="none" xmlns="http://www.w3.org/2000/svg">
<path d="M20.2949 3.15008C20.2949 3.15008 22.1451 2.41422 21.9909 4.20131C21.9395 4.93717 21.477 7.51267 21.1172 10.2984L19.8838 18.5506C19.8838 18.5506 19.781 19.7595 18.8559 19.9697C17.9308 20.1799 16.5432 19.2339 16.2862 19.0236C16.0807 18.8659 12.4318 16.5007 11.147 15.3443C10.7872 15.0289 10.3761 14.3982 11.1983 13.6623L16.5946 8.40624C17.2113 7.77549 17.8281 6.30378 15.2584 8.09086L8.06339 13.0842C8.06339 13.0842 7.2411 13.6098 5.69934 13.1368L2.35877 12.0855C2.35877 12.0855 1.12534 11.2971 3.23245 10.5087C8.37177 8.03826 14.6931 5.51532 20.2949 3.15008Z" fill="#715894"/>
</svg>
