<svg width="50" height="50" viewBox="0 0 50 50" fill="none" xmlns="http://www.w3.org/2000/svg">
<g id="Frame 58">
<rect width="50" height="50" rx="6" fill="#0B080F" fill-opacity="0.4"/>
<rect x="0.5" y="0.5" width="49" height="49" rx="5.5" stroke="black" stroke-opacity="0.1"/>
<g id="Intersect">
<path d="M9.25 18.2046C9.25 17.6884 8.60571 17.5335 8.4054 18.0093C7.50032 20.1588 7 22.5209 7 25C7 27.4791 7.50032 29.8412 8.4054 31.9907C8.60571 32.4665 9.25 32.3116 9.25 31.7954V18.2046Z" fill="#873EFF" fill-opacity="0.29"/>
<path d="M13 37.7566C13 38.016 12.6949 38.151 12.5082 37.9709C12.0394 37.5184 11.595 37.0408 11.1772 36.54C10.8938 36.2003 10.75 35.768 10.75 35.3256V14.6744C10.75 14.232 10.8938 13.7997 11.1772 13.46C11.595 12.9592 12.0394 12.4816 12.5082 12.0291C12.6949 11.849 13 11.984 13 12.2434V37.7566Z" fill="#873EFF" fill-opacity="0.29"/>
<path d="M16.75 40.1945C16.75 40.5692 16.3538 40.8092 16.0292 40.6221C15.7247 40.4466 15.4259 40.2624 15.1329 40.0699C14.7298 39.8049 14.5 39.3484 14.5 38.866V11.134C14.5 10.6516 14.7298 10.1951 15.1329 9.93013C15.4259 9.73761 15.7247 9.55343 16.0292 9.3779C16.3538 9.19079 16.75 9.43083 16.75 9.80549V40.1945Z" fill="#873EFF" fill-opacity="0.29"/>
<path d="M20.5 41.8027C20.5 42.1294 20.1916 42.3685 19.8783 42.2756C19.4326 42.1434 18.994 41.9945 18.5634 41.8294C18.3733 41.7565 18.25 41.5726 18.25 41.3689V8.63107C18.25 8.42743 18.3733 8.24351 18.5634 8.17062C18.994 8.00555 19.4326 7.85656 19.8783 7.72439C20.1916 7.6315 20.5 7.87057 20.5 8.19733V41.8027Z" fill="#873EFF" fill-opacity="0.29"/>
<path d="M24.25 42.4791C24.25 42.7632 24.0134 42.991 23.7299 42.9712C23.288 42.9404 22.8505 42.8936 22.418 42.8314C22.1763 42.7966 22 42.5874 22 42.3432V7.65679C22 7.4126 22.1763 7.20337 22.418 7.16862C22.8505 7.10643 23.288 7.05964 23.7299 7.0288C24.0134 7.00902 24.25 7.23675 24.25 7.52094V42.4791Z" fill="#873EFF" fill-opacity="0.29"/>
<path d="M28 42.3432C28 42.5874 27.8237 42.7966 27.582 42.8314C27.1495 42.8936 26.712 42.9404 26.2701 42.9712C25.9866 42.991 25.75 42.7632 25.75 42.4791V7.52094C25.75 7.23675 25.9866 7.00902 26.2701 7.0288C26.712 7.05964 27.1495 7.10643 27.582 7.16862C27.8237 7.20337 28 7.4126 28 7.65679V42.3432Z" fill="#873EFF" fill-opacity="0.29"/>
<path d="M31.75 41.3689C31.75 41.5725 31.6267 41.7565 31.4366 41.8294C31.006 41.9944 30.5674 42.1434 30.1217 42.2756C29.8084 42.3685 29.5 42.1294 29.5 41.8027V8.19733C29.5 7.87057 29.8084 7.6315 30.1217 7.72439C30.5674 7.85657 31.006 8.00556 31.4366 8.17064C31.6267 8.24353 31.75 8.42745 31.75 8.6311V41.3689Z" fill="#873EFF" fill-opacity="0.29"/>
<path d="M35.5 38.8659C35.5 39.3484 35.2702 39.8049 34.8671 40.0699C34.5741 40.2624 34.2753 40.4466 33.9708 40.6221C33.6462 40.8092 33.25 40.5692 33.25 40.1945V9.80549C33.25 9.43083 33.6462 9.19079 33.9708 9.3779C34.2753 9.55344 34.5741 9.73763 34.8671 9.93015C35.2702 10.1951 35.5 10.6516 35.5 11.134V38.8659Z" fill="#873EFF" fill-opacity="0.29"/>
<path d="M39.25 35.3255C39.25 35.768 39.1062 36.2003 38.8228 36.54C38.405 37.0408 37.9606 37.5184 37.4918 37.9709C37.3051 38.151 37 38.016 37 37.7566V12.2434C37 11.984 37.3051 11.849 37.4918 12.0291C37.9606 12.4816 38.405 12.9592 38.8228 13.46C39.1062 13.7997 39.25 14.232 39.25 14.6745V35.3255Z" fill="#873EFF" fill-opacity="0.29"/>
<path d="M43 25C43 27.4791 42.4997 29.8412 41.5946 31.9908C41.3943 32.4665 40.75 32.3116 40.75 31.7955V18.2045C40.75 17.6884 41.3943 17.5335 41.5946 18.0092C42.4997 20.1588 43 22.5209 43 25Z" fill="#873EFF" fill-opacity="0.29"/>
</g>
</g>
</svg>
