<svg width="18" height="18" viewBox="0 0 18 18" fill="none" xmlns="http://www.w3.org/2000/svg">
<mask id="path-1-inside-1_21_502" fill="white">
<path fill-rule="evenodd" clip-rule="evenodd" d="M0.308495 9.72353C0.0968754 9.26445 0.0968753 8.73556 0.308495 8.27648C2.03746 4.52572 5.28219 2 8.99988 2C12.7176 2 15.9623 4.52572 17.6913 8.27648C17.9029 8.73556 17.9029 9.26445 17.6913 9.72354C15.9623 13.4743 12.7176 16 8.99988 16C5.28219 16 2.03746 13.4743 0.308495 9.72353Z"/>
</mask>
<path d="M17.6913 8.27648L15.875 9.11374L17.6913 8.27648ZM17.6913 9.72354L15.875 8.88628L17.6913 9.72354ZM0.308495 8.27648L2.12481 9.11373L0.308495 8.27648ZM0.308495 9.72353L-1.50782 10.5608L0.308495 9.72353ZM2.12481 9.11373C3.61896 5.87237 6.26065 4 8.99988 4V0C4.30374 0 0.455954 3.17907 -1.50782 7.43922L2.12481 9.11373ZM8.99988 4C11.7391 4 14.3808 5.87237 15.875 9.11374L19.5076 7.43923C17.5438 3.17908 13.696 0 8.99988 0V4ZM15.875 8.88628C14.3808 12.1276 11.7391 14 8.99988 14V18C13.696 18 17.5438 14.8209 19.5076 10.5608L15.875 8.88628ZM8.99988 14C6.26065 14 3.61896 12.1276 2.12481 8.88628L-1.50782 10.5608C0.455954 14.8209 4.30374 18 8.99988 18V14ZM15.875 9.11374C15.8417 9.04151 15.8417 8.9585 15.875 8.88628L19.5076 10.5608C19.9641 9.57041 19.9641 8.42961 19.5076 7.43923L15.875 9.11374ZM-1.50782 7.43922C-1.96435 8.42961 -1.96435 9.5704 -1.50782 10.5608L2.12481 8.88628C2.1581 8.9585 2.1581 9.04151 2.12481 9.11373L-1.50782 7.43922Z" fill="#715894" mask="url(#path-1-inside-1_21_502)"/>
<circle cx="9" cy="9" r="3" fill="#715894"/>
</svg>
